SplineFontDB: 3.2
FontName: Orelega-Bold
FullName: Orelega Bold
FamilyName: Orelega
Weight: Bold
Copyright: Copyright (c) 2019 UkiyoMoji Fonts
UComments: "2019-10-17: Created with FontForge (http://fontforge.org)"
Version: 001.000
ItalicAngle: 0
UnderlinePosition: -160
UnderlineWidth: 160
Ascent: 3296
Descent: 800
InvalidEm: 0
LayerCount: 2
Layer: 0 0 "+gMyXYgAA" 1
Layer: 1 0 "+Uk2XYgAA" 0
XUID: [1021 734 -1507982095 5434]
StyleMap: 0x0020
FSType: 0
OS2Version: 0
OS2_WeightWidthSlopeOnly: 0
OS2_UseTypoMetrics: 1
CreationTime: 1571294646
ModificationTime: 1571316899
PfmFamily: 17
TTFWeight: 700
TTFWidth: 5
LineGap: 369
VLineGap: 0
OS2TypoAscent: 0
OS2TypoAOffset: 1
OS2TypoDescent: 0
OS2TypoDOffset: 1
OS2TypoLinegap: 369
OS2WinAscent: 0
OS2WinAOffset: 1
OS2WinDescent: 0
OS2WinDOffset: 1
HheadAscent: 0
HheadAOffset: 1
HheadDescent: 0
HheadDOffset: 1
OS2FamilyClass: 1025
OS2Vendor: 'Ukyo'
Lookup: 1 0 0 "Duck +ACIA-f+ACIA" { "Duck +ACIA-f+ACIA--1"  } []
Lookup: 4 0 1 "'liga' +ahluljBuVAhbVwAA in +MOkwxjDzZYdbVwAA lookup 0" { "'liga' +ahluljBuVAhbVwAA in +MOkwxjDzZYdbVwAA lookup 0-1"  } ['liga' ('DFLT' <'dflt' > 'latn' <'dflt' > ) ]
Lookup: 4 0 1 "Dutch IJ/ij ligatures" { "Dutch IJ/ij ligatures-1"  } ['liga' ('latn' <'nld ' > ) ]
Lookup: 5 0 0 "+X8WYCDBual+A/QAA in +MOkwxjDzZYdbVwAA lookup 1" { "+X8WYCDBual+A/QAA in +MOkwxjDzZYdbVwAA lookup 1-1"  } ['calt' ('DFLT' <'dflt' > 'latn' <'dflt' > ) ]
Lookup: 258 0 0 "'kern' +aipm+DBNMKsw/DDLMPMwsAAA in +MOkwxjDzZYdbVwAA lookup 0" { "'kern' +aipm+DBNMKsw/DDLMPMwsAAA in +MOkwxjDzZYdbVwAA lookup 0-1" [320,40,2] } ['kern' ('DFLT' <'dflt' > 'latn' <'dflt' 'nld ' > ) ]
MarkAttachClasses: 1
DEI: 91125
KernClass2: 22 16 "'kern' +aipm+DBNMKsw/DDLMPMwsAAA in +MOkwxjDzZYdbVwAA lookup 0-1"
 8 quotedbl
 9 parenleft
 1 A
 3 B S
 1 C
 3 D O
 3 F T
 1 G
 1 L
 1 N
 1 P
 1 Q
 1 R
 1 U
 3 V W
 1 X
 1 Y
 1 Z
 10 exclamdown
 12 questiondown
 7 uni1E9E
 8 quotedbl
 10 parenright
 8 question
 1 A
 7 C G O Q
 1 J
 1 S
 1 T
 1 U
 3 V W
 1 X
 1 Y
 1 Z

StartChar: exclam
Encoding: 33 33 1
Width: 800
VWidth: 0
Flags: W
HStem: -20 640<179.115 620.885>
VStem: 80 640<79.1152 520.885 1589.65 2460.88>
LayerCount: 2
Fore
SplineSet
80 300 m 0
 80 477 223 620 400 620 c 0
 577 620 720 477 720 300 c 0
 720 123 577 -20 400 -20 c 0
 223 -20 80 123 80 300 c 0
400 2560 m 0
 577 2560 720 2417 720 2240 c 0
 720 1929 580 1303 484 960 c 1
 316 960 l 1
 220 1303 80 1929 80 2240 c 0
 80 2417 223 2560 400 2560 c 0
EndSplineSet
Validated: 1
EndChar

StartChar: numbersign
Encoding: 35 35 3
Width: 2240
VWidth: 0
UnlinkRmOvrlpSave: 1
Flags: W
HStem: 0 21G<360 761.935 1240 1641.94> 520 320<80 2160> 1640 320<80 2160> 2460 20G<598.065 1000 1478.06 1880>
LayerCount: 2
Fore
SplineSet
600 2480 m 1
 1000 2480 l 1
 760 0 l 1
 360 0 l 1
 600 2480 l 1
1480 2480 m 1
 1880 2480 l 1
 1640 0 l 1
 1240 0 l 1
 1480 2480 l 1
2160 1960 m 1
 2160 1640 l 1
 80 1640 l 1
 80 1960 l 1
 2160 1960 l 1
2160 840 m 1
 2160 520 l 1
 80 520 l 1
 80 840 l 1
 2160 840 l 1
EndSplineSet
Validated: 5
EndChar

StartChar: dollar
Encoding: 36 36 4
Width: 2120
VWidth: 0
UnlinkRmOvrlpSave: 1
Flags: W
HStem: -40 320<586.975 1311.83> 320 320<223 400> 1840 320<1680 1857> 2200 320<833.382 1522.16>
VStem: 80 640<463 860.885> 80 320<463 640> 120 640<1707.46 2105.19> 920 320<-160 2640> 1360 640<1619.12 2017> 1400 640<382.596 772.537> 1680 320<1840 2017>
LayerCount: 2
Fore
SplineSet
760 1920 m 0xf320
 760 1322 2040 1554 2040 720 c 3
 2040 280 1640 -40 1080 -40 c 0
 720 -40 80 131 80 640 c 1xf940
 400 640 l 1
 400 400 640 280 960 280 c 0
 1240 280 1400 360 1400 560 c 0xf540
 1400 1158 120 926 120 1760 c 3
 120 2200 480 2520 1040 2520 c 0
 1400 2520 2000 2349 2000 1840 c 1xf380
 1680 1840 l 1
 1680 2080 1480 2200 1160 2200 c 0
 880 2200 760 2120 760 1920 c 0xf320
720 640 m 0
 720 463 577 320 400 320 c 0xf5
 223 320 80 463 80 640 c 0xf9
 80 817 223 960 400 960 c 0xf5
 577 960 720 817 720 640 c 0
1360 1840 m 0xf180
 1360 2017 1503 2160 1680 2160 c 0xf120
 1857 2160 2000 2017 2000 1840 c 0xf180
 2000 1663 1857 1520 1680 1520 c 0xf120
 1503 1520 1360 1663 1360 1840 c 0xf180
920 2640 m 1
 1240 2640 l 1
 1240 -160 l 1
 920 -160 l 1
 920 2640 l 1
EndSplineSet
Validated: 5
EndChar

StartChar: ampersand
Encoding: 38 38 6
Width: 2776
VWidth: 0
UnlinkRmOvrlpSave: 1
Flags: W
HStem: -40 520<1958.11 2270.9> -40 360<942.688 1496.31> 1200 320<1640 1795.93> 2200 320<1066.65 1265.88>
VStem: 80 640<560.938 1151.66> 480 560<1637.42 2191.64> 1280 480<1764.38 2188.88> 1860 379<663.709 1136.05> 2280 320<488.812 720>
LayerCount: 2
Fore
SplineSet
1040 1920 m 3xb780
 1040 1640 1226 1355 1480 1080 c 0
 1770 766 2029 480 2200 480 c 0
 2259 480 2280 520 2280 720 c 1
 2600 720 l 1
 2600 560 l 2
 2600 287 2587 235 2520 120 c 0
 2451 0 2297 -40 2120 -40 c 3
 1744 -40 1393 323 1040 720 c 0
 680 1125 480 1577 480 1920 c 0
 480 2240 576 2520 1096 2520 c 0
 1576 2520 1760 2360 1760 1960 c 1
 1280 2000 l 1
 1280 2160 1240 2200 1160 2200 c 0
 1080 2200 1040 2120 1040 1920 c 3xb780
2040 1840 m 0
 2040 2017 2183 2160 2360 2160 c 0
 2537 2160 2680 2017 2680 1840 c 0
 2680 1663 2537 1520 2360 1520 c 0
 2183 1520 2040 1663 2040 1840 c 0
1280 2000 m 1
 1760 1960 l 1
 1760 1720 1563 1555 1320 1400 c 0
 1229 1342 925 1188 840 1160 c 0
 779 1140 720 1082 720 880 c 0
 720 600 912 320 1200 320 c 0x7b80
 1324 320 1492 379 1581 480 c 1xbb80
 1800 252 l 1
 1645 81 1368 -40 1040 -40 c 0x7780
 340 -40 80 320 80 800 c 0x7b80
 80 1160 320 1420 560 1480 c 0
 880 1560 978 1655 1120 1720 c 0
 1246 1778 1280 1880 1280 2000 c 1
2637 2000 m 1
 2690 1909 2696 1807 2696 1708 c 0
 2696 1460 2473 1228 2160 1200 c 1
 2210 1134 2239 1027 2239 912 c 0
 2239 750 2181 574 2040 480 c 1xb380
 1720 680 l 1
 1800 720 1860 830 1860 940 c 0
 1860 1050 1800 1160 1640 1200 c 1
 1640 1520 l 1
 2080 1520 l 2
 2249 1520 2386 1623 2386 1747 c 0
 2637 2000 l 1
EndSplineSet
Validated: 5
EndChar

StartChar: quotesingle
Encoding: 39 39 7
Width: 720
VWidth: 0
Flags: W
HStem: 1280 1280<221.288 498.712>
VStem: 80 560<1598.95 2482.81>
LayerCount: 2
Fore
SplineSet
360 2560 m 4
 515 2560 640 2435 640 2280 c 4
 640 2008 560 1600 480 1280 c 5
 240 1280 l 5
 160 1600 80 2008 80 2280 c 4
 80 2435 205 2560 360 2560 c 4
EndSplineSet
Validated: 1
EndChar

StartChar: parenleft
Encoding: 40 40 8
Width: 1319
VWidth: 0
Flags: W
HStem: -800 320<1101.73 1240> 2320 320<1101.73 1240>
VStem: 80 680<279.798 1560.2>
LayerCount: 2
Fore
SplineSet
1240 -480 m 1
 1240 -800 l 1
 480 -800 80 145 80 920 c 0
 80 1695 480 2640 1240 2640 c 1
 1240 2320 l 5
 960 2320 760 1649 760 920 c 0
 760 191 960 -480 1240 -480 c 1
EndSplineSet
Validated: 1
EndChar

StartChar: asterisk
Encoding: 42 42 10
Width: 2531
VWidth: 0
Flags: W
HStem: 1123 624<180.654 558.92 1973.08 2350.62>
VStem: 946 640<1680.48 2276.88>
LayerCount: 2
Fore
SplineSet
80 1427 m 0
 80 1621 240 1747 400 1747 c 0
 433 1747 466 1742 499 1731 c 0
 779 1639 952 1377 1180 1264 c 1
 1143 1516 946 1761 946 2056 c 0
 946 2233 1089 2376 1266 2376 c 0
 1443 2376 1586 2233 1586 2056 c 0
 1586 1761 1389 1516 1352 1264 c 1
 1580 1377 1753 1639 2033 1731 c 0
 2066 1742 2099 1747 2132 1747 c 0
 2292 1747 2452 1621 2452 1427 c 0
 2452 1292 2365 1167 2230 1123 c 0
 2144 1095 2056 1086 1969 1086 c 0
 1822 1086 1676 1111 1539 1111 c 0
 1493 1111 1448 1109 1404 1101 c 1
 1582 918 1887 836 2060 597 c 0
 2101 540 2121 474 2121 409 c 0
 2121 245 1983 89 1801 89 c 0
 1702 89 1605 135 1542 221 c 0
 1369 460 1385 774 1266 1000 c 1
 1147 774 1163 460 990 221 c 0
 927 135 830 89 731 89 c 0
 549 89 411 245 411 409 c 0
 411 474 431 540 472 597 c 0
 645 836 950 918 1128 1101 c 1
 1084 1109 1039 1111 993 1111 c 0
 856 1111 710 1086 563 1086 c 0
 476 1086 387 1095 301 1123 c 0
 166 1167 80 1292 80 1427 c 0
EndSplineSet
Validated: 1
EndChar

StartChar: plus
Encoding: 43 43 11
Width: 1680
VWidth: 0
Flags: W
HStem: 1080 320<80 680 1000 1600>
VStem: 680 320<480 1080 1400 2000>
LayerCount: 2
Fore
SplineSet
680 2000 m 1
 1000 2000 l 1
 1000 1400 l 1
 1600 1400 l 1
 1600 1080 l 1
 1000 1080 l 1
 1000 480 l 1
 680 480 l 1
 680 1080 l 1
 80 1080 l 1
 80 1400 l 1
 680 1400 l 1
 680 2000 l 1
EndSplineSet
Validated: 1
EndChar

StartChar: comma
Encoding: 44 44 12
Width: 800
VWidth: 0
Flags: W
HStem: -640 1260
VStem: 80 649<87.5346 509.526>
LayerCount: 2
Fore
SplineSet
400 620 m 0
 545 620 671 523 709 383 c 0
 723 332 729 281 729 229 c 0
 729 -107 454 -445 117 -640 c 1
 -28 -495 l 1
 269 -257 362 -151 366 -18 c 1
 204 0 80 137 80 300 c 0
 80 477 223 620 400 620 c 0
EndSplineSet
Validated: 1
EndChar

StartChar: hyphen
Encoding: 45 45 13
Width: 1240
VWidth: 0
Flags: W
HStem: 800 320<80 1160>
VStem: 80 1080<800 1120>
LayerCount: 2
Fore
SplineSet
80 800 m 1
 80 1120 l 1
 1160 1120 l 1
 1160 800 l 1
 80 800 l 1
EndSplineSet
Validated: 1
EndChar

StartChar: period
Encoding: 46 46 14
Width: 800
VWidth: 0
Flags: W
HStem: -20 640<179.115 620.885>
VStem: 80 640<79.1152 520.885>
LayerCount: 2
Fore
SplineSet
80 300 m 4
 80 477 223 620 400 620 c 4
 577 620 720 477 720 300 c 4
 720 123 577 -20 400 -20 c 4
 223 -20 80 123 80 300 c 4
EndSplineSet
Validated: 1
EndChar

StartChar: slash
Encoding: 47 47 15
Width: 1961
VWidth: 0
Flags: W
HStem: 0 21G<80 461.54> 2460 20G<1500.45 1881>
LayerCount: 2
Fore
SplineSet
1512 2480 m 5
 1881 2480 l 5
 450 0 l 5
 80 0 l 5
 1512 2480 l 5
EndSplineSet
Validated: 1
EndChar

StartChar: zero
Encoding: 48 48 16
Width: 2240
VWidth: 0
Flags: W
HStem: -46 320<932.81 1307.19> 2200 320<932.81 1307.19>
VStem: 80 680<700.098 1773.9> 1480 680<703.199 1770.8>
LayerCount: 2
Fore
SplineSet
1120 2520 m 3
 1694 2520 2160 2012 2160 1237 c 3
 2160 462 1694 -46 1120 -46 c 3
 546 -46 80 462 80 1237 c 3
 80 2012 546 2520 1120 2520 c 3
1120 2200 m 3
 896 2200 760 1966 760 1237 c 3
 760 508 896 274 1120 274 c 3
 1344 274 1480 522 1480 1237 c 3
 1480 1952 1344 2200 1120 2200 c 3
EndSplineSet
Validated: 1
EndChar

StartChar: one
Encoding: 49 49 17
Width: 2240
VWidth: 0
Flags: W
HStem: 0 320<400 800 1440 1840> 1840 320<400 776.759> 2460 20G<880 1440>
VStem: 800 640<320 1840>
LayerCount: 2
Fore
SplineSet
960 2480 m 1
 1440 2480 l 5
 1440 320 l 1
 1840 320 l 1
 1840 0 l 1
 400 0 l 1
 400 320 l 1
 800 320 l 1
 800 1840 l 1
 400 1840 l 1
 400 2160 l 1
 480 2160 l 2
 680 2160 800 2203 960 2480 c 1
EndSplineSet
Validated: 1
EndChar

StartChar: two
Encoding: 50 50 18
Width: 2240
VWidth: 0
UnlinkRmOvrlpSave: 1
Flags: W
HStem: 0 480<741.25 1632.16> 2200 320<656.089 1212.35>
VStem: 173 667<1543 1897> 200 277<1663.5 2105.5> 1360 680<1427.85 2051.87> 1680 360<509.48 960>
LayerCount: 2
Fore
SplineSet
200 1720 m 3xd0
 200 1897 343 2040 520 2040 c 3
 697 2040 840 1897 840 1720 c 0xe0
 840 1543 697 1400 520 1400 c 3
 343 1400 200 1543 200 1720 c 3xd0
243 1560 m 0
 195 1643 173 1731 173 1820 c 0xe0
 173 2169 522 2520 1080 2520 c 3
 1780 2520 2040 2160 2040 1800 c 3
 2040 1200 1520 1045 1200 800 c 0
 987 637 859 600 720 360 c 1
 480 133 l 1
 200 0 l 3
 200 520 680 880 1040 1160 c 0
 1265 1335 1360 1558 1360 1760 c 3
 1360 2040 1208 2200 920 2200 c 3
 725 2200 477 2042 477 1832 c 0xd8
 477 1784 490 1732 520 1680 c 0
 243 1560 l 0
200 0 m 1xd4
 520 360 l 1
 760 440 l 2
 835 465 919 480 1000 480 c 2
 1520 480 l 2
 1640 480 1680 681 1680 800 c 2
 1680 960 l 1
 2040 960 l 1
 2040 0 l 1
 200 0 l 1xd4
EndSplineSet
Validated: 5
EndChar

StartChar: three
Encoding: 51 51 19
Width: 2240
VWidth: 0
UnlinkRmOvrlpSave: 1
Flags: W
HStem: -40 320<676.089 1232.35> 1080 960<363 717> 1080 320<860 1010.43> 1200 64<1220 1460> 2200 320<676.089 1208.8>
VStem: 193 667<583 937 1543 1897> 220 277<374.5 816.5 1663.5 2105.5> 1340 680<1547.48 2079> 1380 680<428.133 955.257>
LayerCount: 2
Fore
SplineSet
220 1720 m 0xaa
 220 1897 363 2040 540 2040 c 0
 717 2040 860 1897 860 1720 c 0xcc
 860 1543 717 1400 540 1400 c 0
 363 1400 220 1543 220 1720 c 0xaa
263 1560 m 0
 215 1643 193 1731 193 1820 c 0
 193 2169 542 2520 1100 2520 c 0
 1800 2520 2020 2160 2020 1800 c 0
 2020 1400 1460 1200 1220 1200 c 1x9d
 860 1400 l 1xad
 1260 1400 1340 1558 1340 1760 c 0
 1340 2040 1228 2200 940 2200 c 0
 745 2200 497 2042 497 1832 c 0xab
 497 1784 510 1732 540 1680 c 0
 263 1560 l 0
220 760 m 0xca
 220 937 363 1080 540 1080 c 0
 717 1080 860 937 860 760 c 0xcc
 860 583 717 440 540 440 c 0
 363 440 220 583 220 760 c 0xca
263 920 m 0
 540 800 l 0
 510 748 497 696 497 648 c 0x9a
 497 438 745 280 940 280 c 0
 1228 280 1380 440 1380 720 c 0
 1380 922 1260 1080 860 1080 c 1
 860 1400 l 1xac80
 1220 1264 l 1
 1700 1264 2060 1080 2060 680 c 0x9c80
 2060 320 1800 -40 1100 -40 c 0
 542 -40 193 311 193 660 c 0
 193 749 215 837 263 920 c 0
EndSplineSet
Validated: 5
EndChar

StartChar: four
Encoding: 52 52 20
Width: 2240
VWidth: 0
Flags: W
HStem: 0 320<740 1140 1780 2100> 640 320<460 1140 1780 2100> 1820 20G<1455 1780> 2460 20G<760 1420>
VStem: 780 640<2005.09 2480> 1140 640<320 640 960 1437.36> 1487 293<1663.14 1840>
LayerCount: 2
Fore
SplineSet
780 2480 m 1xf8
 1420 2480 l 1xf8
 1420 1840 1020 1400 460 960 c 1
 1140 960 l 1
 1140 1343 l 1xf4
 1292 1493 1423 1669 1487 1840 c 1
 1780 1840 l 1xf2
 1780 960 l 1
 2100 960 l 1
 2100 640 l 1
 1780 640 l 1
 1780 320 l 1
 2100 320 l 1
 2100 0 l 1
 740 0 l 1
 740 320 l 1
 1140 320 l 1
 1140 640 l 1xf4
 140 640 l 1
 140 960 l 1
 620 1440 740 2040 780 2480 c 1xf8
EndSplineSet
Validated: 1
EndChar

StartChar: five
Encoding: 53 53 21
Width: 2240
VWidth: 0
UnlinkRmOvrlpSave: 1
Flags: W
HStem: -40 320<670.089 1226.35> 1223 346<665.083 1563> 1880 520<720.189 1675.31> 2460 20G<429.255 814 1864 1980.67>
VStem: 214 277<510.5 848.5> 1374 680<428.292 1071.79>
LayerCount: 2
Fore
SplineSet
214 760 m 0
 214 937 357 1080 534 1080 c 0
 711 1080 854 937 854 760 c 0
 854 583 711 440 534 440 c 0
 357 440 214 583 214 760 c 0
257 920 m 0
 534 800 l 0
 504 748 491 696 491 648 c 0
 491 438 739 280 934 280 c 3
 1222 280 1374 440 1374 720 c 3
 1374 1077 1243 1223 873 1223 c 0
 787 1223 688 1215 574 1200 c 1
 254 1280 l 1
 534 1440 l 1
 782 1529 1118 1569 1303 1569 c 3
 1823 1569 2054 1241 2054 760 c 3
 2054 400 1794 -40 1094 -40 c 3
 536 -40 187 311 187 660 c 0
 187 749 209 837 257 920 c 0
267 1278 m 1
 432 2480 l 1
 735 2438 l 1
 571 1237 l 1
 267 1278 l 1
614 2000 m 0
 432 2480 l 1
 734 2480 l 1
 894 2440 974 2400 1254 2400 c 0
 1534 2400 1754 2421 1974 2480 c 1
 2014 2360 l 1
 1894 2000 1574 1880 1254 1880 c 3
 1012 1880 774 1902 614 2000 c 0
EndSplineSet
Validated: 5
EndChar

StartChar: six
Encoding: 54 54 22
Width: 2240
VWidth: 0
UnlinkRmOvrlpSave: 1
Flags: W
HStem: -40 320<929.62 1335.46> 1240 320<891.973 1330.89> 2200 320<1004.09 1562.04>
VStem: 1440 680<424.716 1122.77>
LayerCount: 2
Fore
SplineSet
737 920 m 1
 680 1240 l 1
 757 1424 960 1560 1240 1560 c 0
 1744 1560 2120 1225 2120 760 c 0
 2120 400 1820 -40 1120 -40 c 1
 1120 280 l 1
 1408 280 1440 520 1440 800 c 0
 1440 1143 1280 1240 1080 1240 c 0
 940 1240 800 1102 737 920 c 1
1360 1920 m 0
 1360 2097 1503 2240 1680 2240 c 0
 1857 2240 2000 2097 2000 1920 c 0
 2000 1743 1857 1600 1680 1600 c 0
 1503 1600 1360 1743 1360 1920 c 0
2000 1920 m 1
 1480 2120 l 1
 1466 2160 1440 2200 1240 2200 c 3
 960 2200 760 1966 760 1237 c 0
 760 508 896 280 1120 280 c 1
 1120 -40 l 5
 386 -40 80 457 80 1237 c 0
 80 2007 546 2520 1120 2520 c 0
 1720 2520 2000 2280 2000 1920 c 1
EndSplineSet
Validated: 5
EndChar

StartChar: seven
Encoding: 55 55 23
Width: 2240
VWidth: 0
Flags: W
HStem: 0 21G<660 1300> 2000 480<627.836 1646.22>
VStem: 220 360<1520 1970.52> 660 640<0 651.505>
LayerCount: 2
Fore
SplineSet
220 2480 m 1
 2100 2480 l 1
 2100 2160 l 5
 1676 1678 1470 1336 1380 1024 c 4
 1319 810 1300 393 1300 0 c 5
 660 0 l 1
 660 788 963 1351 1652 2040 c 1
 1528 2014 1454 2000 1300 2000 c 2
 740 2000 l 2
 620 2000 580 1799 580 1680 c 2
 580 1520 l 1
 220 1520 l 1
 220 2480 l 1
EndSplineSet
Validated: 1
EndChar

StartChar: eight
Encoding: 56 56 24
Width: 2240
VWidth: 0
UnlinkRmOvrlpSave: 1
Flags: W
HStem: -40 320<769.294 1385.51> 1820 20G<1540 2020> 1840 21G<1540 2020> 2200 320<890.378 1425.55>
VStem: 140 520<384.752 832.312> 180 640<1329.31 2105.19> 1460 640<356.766 772.58> 1540 480<1604.58 2073.35>
LayerCount: 2
Fore
SplineSet
1060 280 m 0xda
 1340 280 1460 360 1460 560 c 0xda
 1460 1158 180 926 180 1760 c 0
 180 2200 540 2520 1100 2520 c 0
 1620 2520 2020 2349 2020 1840 c 1
 1540 1840 l 1
 1540 2080 1380 2200 1140 2200 c 0
 940 2200 820 2120 820 1920 c 0xd5
 820 1440 2100 1554 2100 720 c 0
 2100 240 1820 -40 1100 -40 c 0
 580 -40 140 91 140 600 c 0
 140 840 461 1125 740 1200 c 1
 900 1080 l 1
 721 901 660 800 660 600 c 0
 660 360 860 280 1060 280 c 0xda
1540 1320 m 1xd1
 1284 1424 l 1
 1460 1560 1540 1680 1540 1840 c 1
 2020 1840 l 1
 2020 1600 1740 1377 1540 1320 c 1xd1
EndSplineSet
Validated: 5
EndChar

StartChar: colon
Encoding: 58 58 26
Width: 800
VWidth: 0
Flags: W
HStem: -20 640<179.115 620.885> 1210 640<179.115 620.885>
VStem: 80 640<79.1152 520.885 1309.12 1750.88>
LayerCount: 2
Fore
SplineSet
80 1530 m 0
 80 1707 223 1850 400 1850 c 0
 577 1850 720 1707 720 1530 c 0
 720 1353 577 1210 400 1210 c 0
 223 1210 80 1353 80 1530 c 0
EndSplineSet
Refer: 14 46 S 1 0 0 1 0 0 2
Validated: 1
EndChar

StartChar: semicolon
Encoding: 59 59 27
Width: 800
VWidth: 0
Flags: W
HStem: -640 1260 1210 640<179.115 620.885>
VStem: 80 640<1309.12 1750.88> 80 649<87.5346 509.526>
LayerCount: 2
Fore
SplineSet
80 1530 m 0xe0
 80 1707 223 1850 400 1850 c 0
 577 1850 720 1707 720 1530 c 0
 720 1353 577 1210 400 1210 c 0
 223 1210 80 1353 80 1530 c 0xe0
EndSplineSet
Refer: 12 44 S 1 0 0 1 0 0 2
Validated: 1
EndChar

StartChar: less
Encoding: 60 60 28
Width: 1680
VWidth: 0
UnlinkRmOvrlpSave: 1
Flags: W
LayerCount: 2
Fore
SplineSet
1600 1987 m 5
 1600 1627 l 5
 840 1339 l 6
 678 1278 483 1229 240 1208 c 5
 80 1147 l 5
 80 1427 l 5
 1600 1987 l 5
1600 493 m 5
 80 1053 l 5
 80 1333 l 5
 240 1272 l 5
 483 1251 678 1202 840 1141 c 6
 1600 853 l 5
 1600 493 l 5
EndSplineSet
Validated: 5
EndChar

StartChar: equal
Encoding: 61 61 29
Width: 1680
VWidth: 0
Flags: W
HStem: 720 320<80 1600> 1440 320<80 1600>
LayerCount: 2
Fore
SplineSet
80 1760 m 5
 1600 1760 l 5
 1600 1440 l 5
 80 1440 l 5
 80 1760 l 5
80 1040 m 5
 1600 1040 l 5
 1600 720 l 5
 80 720 l 5
 80 1040 l 5
EndSplineSet
Validated: 1
EndChar

StartChar: question
Encoding: 63 63 31
Width: 1920
VWidth: 0
UnlinkRmOvrlpSave: 1
Flags: W
HStem: -20 640<739.115 1180.88> 1840 320<223 400> 2240 320<543.223 1099.75>
VStem: 80 640<1619.12 2017> 80 320<1840 2017> 640 640<79.1152 520.885> 786 254<922.95 1048.2> 1240 600<1627.66 2105.34>
LayerCount: 2
Fore
SplineSet
80 1840 m 3xf0
 80 2017 223 2160 400 2160 c 3xe8
 577 2160 720 2017 720 1840 c 3xf0
 720 1663 577 1520 400 1520 c 3xe8
 223 1520 80 1663 80 1840 c 3xf0
80 1840 m 0xf0
 80 2240 360 2560 960 2560 c 3
 1560 2560 1840 2320 1840 1840 c 3
 1840 1200 1040 1160 1040 920 c 1
 840 920 l 1
 802 983 786 1042 786 1096 c 0
 786 1386 1240 1571 1240 1840 c 3
 1240 2040 1120 2240 840 2240 c 0
 600 2240 400 2120 400 1840 c 0xeb
 80 1840 l 0xf0
640 300 m 0xe4
 640 477 783 620 960 620 c 0
 1137 620 1280 477 1280 300 c 0
 1280 123 1137 -20 960 -20 c 0
 783 -20 640 123 640 300 c 0xe4
EndSplineSet
Validated: 5
EndChar

StartChar: at
Encoding: 64 64 32
Width: 3560
VWidth: 0
UnlinkRmOvrlpSave: 1
Flags: W
HStem: -800 320<1178.9 2162.91> -40 360<1270 1865.94> 0 320<2480 2985.53> 1820 20G<2401.56 2680> 2320 320<1298.07 2470.49>
VStem: 80 320<357.159 1469.04> 789 602<520.97 1340.43> 2120 640<-577 -179.115> 2120 76<908 1121.72 1137.73 1520> 2196 44<920 1192> 3160 320<561.21 1649.47>
LayerCount: 2
Fore
SplineSet
1508 -40 m 0xdea0
 1032 -40 789 333 789 921 c 0
 789 1509 1126 1880 1586 1880 c 0
 1980 1880 2157 1637 2223 1545 c 1
 2240 920 l 1xde60
 2196 908 l 1
 2176 1192 2052 1509 1781 1509 c 0
 1510 1509 1391 1283 1391 914 c 0
 1391 545 1571 320 1768 320 c 0
 1965 320 2080 485 2198 745 c 1
 2205 726 l 1
 2213 579 l 1
 2181 320 1984 -40 1508 -40 c 0xdea0
2415 1840 m 1
 2680 1840 l 1
 2680 520 l 2
 2680 446 2720 320 2836 320 c 0
 2960 320 3160 520 3160 1120 c 1
 3160 1914 2730 2320 1880 2320 c 0
 988 2320 400 1824 400 960 c 0
 400 -43 932 -480 1720 -480 c 3
 2034 -480 2371 -440 2440 -400 c 1
 2600 -677 l 1
 2404 -790 2120 -800 1720 -800 c 3
 769 -800 80 -197 80 960 c 0
 80 2016 852 2640 1880 2640 c 0
 2870 2640 3480 2086 3480 1120 c 0
 3480 147 2949 0 2680 0 c 0
 2280 0 2120 219 2120 480 c 2
 2120 1520 l 1xbea0
 2200 1520 l 1
 2415 1840 l 1
2120 -400 m 0x9f20
 2120 -223 2263 -80 2440 -80 c 0
 2617 -80 2760 -223 2760 -400 c 0
 2760 -577 2617 -720 2440 -720 c 0
 2263 -720 2120 -577 2120 -400 c 0x9f20
EndSplineSet
Validated: 5
EndChar

StartChar: A
Encoding: 65 65 33
Width: 2960
VWidth: 0
UnlinkRmOvrlpSave: 1
Flags: W
HStem: 0 320<80 341 741 1360 1600 1920 2637 2880> 640 320<800 2040> 2460 20G<1231.68 1688.86>
AnchorPoint: "ogonek" 2640 80 basechar 0
AnchorPoint: "cedilla" 1464 80 basechar 0
AnchorPoint: "top" 1460 2560 basechar 0
LayerCount: 2
Fore
SplineSet
1240 2480 m 1
 1680 2480 l 1
 2637 320 l 1
 2880 320 l 1
 2880 0 l 1
 1600 0 l 1
 1600 320 l 1
 1920 320 l 1
 1388 1520 l 2
 1363 1577 1328 1675 1312 1736 c 1
 1295 1676 1264 1577 1240 1520 c 2
 741 320 l 1
 1360 320 l 1
 1360 0 l 1
 80 0 l 1
 80 320 l 1
 341 320 l 1
 1240 2480 l 1
800 640 m 1
 800 960 l 1
 2040 960 l 1
 2040 640 l 1
 800 640 l 1
EndSplineSet
Validated: 5
EndChar

StartChar: B
Encoding: 66 66 34
Width: 2560
VWidth: 0
UnlinkRmOvrlpSave: 1
Flags: W
HStem: 0 320<120 1676.44> 960 320<748 1910> 2160 320<120 440 1080 1610.38>
VStem: 440 640<320 960 1280 2160> 748 332<960 1280> 1720 720<1470.31 2065.52> 1760 720<399.001 865.817>
AnchorPoint: "cedilla" 1284 80 basechar 0
AnchorPoint: "top" 1280 2560 basechar 0
LayerCount: 2
Fore
SplineSet
748 1280 m 1xea
 1240 1280 l 2
 1996 1280 2480 1160 2480 680 c 0
 2480 440 2392 275 2256 167 c 0
 2062 12 1840 0 1160 0 c 2
 120 0 l 1
 120 320 l 1
 1320 320 l 2
 1638 320 1760 400 1760 640 c 0
 1760 880 1631 960 1240 960 c 2
 748 960 l 1
 748 1280 l 1xea
440 2160 m 1xf0
 1080 2160 l 1
 1080 320 l 1
 440 320 l 1
 440 2160 l 1xf0
120 2480 m 1
 1160 2480 l 2
 1880 2480 2080 2424 2264 2240 c 0
 2383 2121 2440 1934 2440 1740 c 0
 2440 1358 1910 960 1240 960 c 1
 1240 1280 l 1
 1596 1280 1720 1460 1720 1720 c 0xe4
 1720 2020 1652 2160 1320 2160 c 2
 120 2160 l 1
 120 2480 l 1
EndSplineSet
EndChar

StartChar: C
Encoding: 67 67 35
Width: 2520
VWidth: 0
UnlinkRmOvrlpSave: 1
Flags: W
HStem: -40 320<1158.53 1747.34> 2200 320<1120.78 1758.29>
VStem: 40 720<766.786 1713.21> 2120 320<706.061 927.168>
AnchorPoint: "cedilla" 1384 80 basechar 0
AnchorPoint: "top" 1380 2560 basechar 0
LayerCount: 2
Fore
SplineSet
1360 2520 m 0
 1718 2520 2001 2417 2200 2240 c 0
 2366 2093 2440 1960 2440 1720 c 1
 1960 1800 l 1
 1879 2108 1689 2200 1400 2200 c 0
 988 2200 760 1767 760 1240 c 0
 760 713 1041 280 1440 280 c 0
 1783 280 2071 576 2120 1000 c 1
 2440 920 l 1
 2333 399 2074 -40 1360 -40 c 0
 506 -40 40 600 40 1240 c 0
 40 1880 506 2520 1360 2520 c 0
1800 1720 m 0
 1800 1897 1943 2040 2120 2040 c 0
 2297 2040 2440 1897 2440 1720 c 0
 2440 1543 2297 1400 2120 1400 c 0
 1943 1400 1800 1543 1800 1720 c 0
EndSplineSet
EndChar

StartChar: D
Encoding: 68 68 36
Width: 2780
VWidth: 0
Flags: W
HStem: 0 320<120 440 1080 1709.08> 2160 320<120 440 1080 1711.09>
VStem: 440 640<320 2160> 2040 720<774.958 1705.04>
AnchorPoint: "cedilla" 1404 80 basechar 0
AnchorPoint: "top" 1440 2560 basechar 0
LayerCount: 2
Fore
SplineSet
1400 0 m 2
 120 0 l 1
 120 320 l 1
 440 320 l 1
 440 2160 l 1
 120 2160 l 1
 120 2480 l 1
 1400 2480 l 2
 2280 2480 2760 1880 2760 1240 c 0
 2760 600 2280 0 1400 0 c 2
1400 320 m 2
 1826 320 2040 713 2040 1240 c 0
 2040 1767 1840 2160 1400 2160 c 2
 1080 2160 l 1
 1080 320 l 1
 1400 320 l 2
EndSplineSet
EndChar

StartChar: E
Encoding: 69 69 37
Width: 2480
VWidth: 0
Flags: HW
HStem: 0 320<120 440 1080 1912.16> 960 320<1080 1440> 2160 320<120 440 1080 1872.16>
VStem: 440 640<320 960 1280 2160> 1440 320<600 960 1280 1640> 1920 360<1680 2130.52> 1960 360<349.48 800>
AnchorPoint: "ogonek" 2100 80 basechar 0
AnchorPoint: "cedilla" 1244 80 basechar 0
AnchorPoint: "top" 1240 2560 basechar 0
LayerCount: 2
Fore
SplineSet
120 2480 m 1xfa
 2280 2480 l 1
 2280 1680 l 1
 1920 1680 l 1
 1920 1840 l 2xfc
 1920 1959 1880 2160 1760 2160 c 2
 1080 2160 l 1
 1080 1280 l 1
 1440 1280 l 1
 1440 1640 l 1
 1760 1640 l 1
 1760 600 l 1
 1440 600 l 1
 1440 960 l 1
 1080 960 l 1
 1080 320 l 1
 1800 320 l 2
 1920 320 1960 521 1960 640 c 2
 1960 800 l 1
 2320 800 l 1
 2320 0 l 1
 120 0 l 1
 120 320 l 1
 440 320 l 1
 440 2160 l 1
 120 2160 l 1
 120 2480 l 1xfa
EndSplineSet
EndChar

StartChar: F
Encoding: 70 70 38
Width: 2400
VWidth: 0
Flags: W
HStem: 0 320<120 440 1080 1640> 960 320<1080 1440> 2160 320<120 440 1080 1872.16>
VStem: 440 640<320 960 1280 2160> 1440 320<600 960 1280 1640> 1920 360<1680 2130.52>
AnchorPoint: "cedilla" 764 80 basechar 0
AnchorPoint: "top" 1240 2560 basechar 0
LayerCount: 2
Fore
SplineSet
1640 320 m 1
 1640 0 l 1
 120 0 l 1
 120 320 l 1
 440 320 l 1
 440 2160 l 1
 120 2160 l 1
 120 2480 l 1
 2280 2480 l 1
 2280 1680 l 1
 1920 1680 l 1
 1920 1840 l 2
 1920 1959 1880 2160 1760 2160 c 2
 1080 2160 l 1
 1080 1280 l 1
 1440 1280 l 1
 1440 1640 l 1
 1760 1640 l 1
 1760 600 l 1
 1440 600 l 1
 1440 960 l 1
 1080 960 l 1
 1080 320 l 1
 1640 320 l 1
EndSplineSet
EndChar

StartChar: G
Encoding: 71 71 39
Width: 2680
VWidth: 0
UnlinkRmOvrlpSave: 1
Flags: W
HStem: -40 320<1158.53 1770.26> 0 21G<2213.33 2400> 920 360<1280 1760 2400 2640> 2200 320<1120.78 1758.29>
VStem: 40 720<766.786 1713.21> 1760 640<240 920>
AnchorPoint: "cedilla" 1404 80 basechar 0
AnchorPoint: "top" 1360 2560 basechar 0
LayerCount: 2
Fore
SplineSet
1360 2520 m 0xbc
 1718 2520 2001 2417 2200 2240 c 0
 2366 2093 2440 1960 2440 1720 c 1
 1960 1800 l 1
 1879 2108 1689 2200 1400 2200 c 0
 988 2200 760 1767 760 1240 c 0
 760 713 1041 280 1440 280 c 0
 1783 280 1951 576 2000 1000 c 1
 2320 920 l 1
 2213 399 2074 -40 1360 -40 c 0
 506 -40 40 600 40 1240 c 0
 40 1880 506 2520 1360 2520 c 0xbc
1800 1720 m 0
 1800 1897 1943 2040 2120 2040 c 0
 2297 2040 2440 1897 2440 1720 c 0
 2440 1543 2297 1400 2120 1400 c 0
 1943 1400 1800 1543 1800 1720 c 0
1280 1280 m 1
 2640 1280 l 1
 2640 920 l 1
 2400 920 l 1
 2400 0 l 1
 2240 0 l 1x7c
 1920 240 l 1
 1760 200 l 1
 1760 920 l 1
 1280 920 l 1
 1280 1280 l 1
EndSplineSet
EndChar

StartChar: H
Encoding: 72 72 40
Width: 3040
VWidth: 0
UnlinkRmOvrlpSave: 1
Flags: HW
HStem: 0 320<120 440 1080 1400 1640 1960 2600 2920> 960 320<1000 2040> 2160 320<120 440 1080 1400 1640 1960 2600 2920>
VStem: 1000 80<960 1280> 1960 80<960 1280>
AnchorPoint: "cedilla" 1524 80 basechar 0
AnchorPoint: "top" 1520 2560 basechar 0
LayerCount: 2
Fore
SplineSet
120 2480 m 1
 1400 2480 l 1
 1400 2160 l 1
 1080 2160 l 1
 1080 320 l 1
 1400 320 l 1
 1400 0 l 1
 120 0 l 1
 120 320 l 1
 440 320 l 1
 440 2160 l 1
 120 2160 l 1
 120 2480 l 1
1640 2480 m 1
 2920 2480 l 1
 2920 2160 l 1
 2600 2160 l 1
 2600 320 l 1
 2920 320 l 1
 2920 0 l 1
 1640 0 l 1
 1640 320 l 1
 1960 320 l 1
 1960 2160 l 1
 1640 2160 l 1
 1640 2480 l 1
1000 1280 m 5
 2040 1280 l 5
 2040 960 l 5
 1000 960 l 5
 1000 1280 l 5
EndSplineSet
EndChar

StartChar: I
Encoding: 73 73 41
Width: 1520
VWidth: 0
Flags: W
HStem: 0 320<100 420 1060 1380> 2160 320<100 420 1060 1380>
VStem: 420 640<320 2160>
AnchorPoint: "ogonek" 1040 80 basechar 0
AnchorPoint: "cedilla" 744 80 basechar 0
AnchorPoint: "top" 740 2560 basechar 0
LayerCount: 2
Fore
SplineSet
100 2480 m 1
 1380 2480 l 1
 1380 2160 l 1
 1060 2160 l 1
 1060 320 l 1
 1380 320 l 1
 1380 0 l 1
 100 0 l 1
 100 320 l 1
 420 320 l 1
 420 2160 l 1
 100 2160 l 1
 100 2480 l 1
EndSplineSet
Validated: 1
EndChar

StartChar: J
Encoding: 74 74 42
Width: 2260
VWidth: 0
UnlinkRmOvrlpSave: 1
Flags: W
HStem: -40 320<454.478 990.363> 320 320<183 360> 2160 320<760 1160 1800 2120>
VStem: 40 640<463 860.885> 40 320<463 640> 1160 640<449.219 2160>
AnchorPoint: "cedilla" 944 80 basechar 0
AnchorPoint: "top" 1460 2560 basechar 0
LayerCount: 2
Fore
SplineSet
1160 2160 m 1xec
 1800 2160 l 1
 1800 760 l 2
 1800 269 1440 -40 880 -40 c 0
 520 -40 40 131 40 640 c 1xf4
 360 640 l 1
 360 400 520 280 760 280 c 0
 960 280 1160 440 1160 760 c 2
 1160 2160 l 1xec
680 640 m 0
 680 463 537 320 360 320 c 0xec
 183 320 40 463 40 640 c 0xf4
 40 817 183 960 360 960 c 0xec
 537 960 680 817 680 640 c 0
760 2160 m 1
 760 2480 l 1
 2120 2480 l 1
 2120 2160 l 1
 760 2160 l 1
EndSplineSet
EndChar

StartChar: K
Encoding: 75 75 43
Width: 2960
VWidth: 0
UnlinkRmOvrlpSave: 1
Flags: HW
HStem: 0 320<120 440 1080 1280 1520 1800 2563 2840> 316 4<1800 2563> 2160 320<120 440 1080 1400 1680 2039 2520 2800>
VStem: 440 640<320 2160>
AnchorPoint: "cedilla" 1404 80 basechar 0
AnchorPoint: "top" 1520 2560 basechar 0
LayerCount: 2
Fore
SplineSet
1520 320 m 1xb0
 2840 320 l 1
 2840 0 l 1
 1520 0 l 1
 1520 320 l 1xb0
1680 2160 m 1
 1680 2480 l 1
 2800 2480 l 1
 2800 2160 l 1
 1680 2160 l 1
2039 2160 m 1
 2520 2174 l 1
 1560 1120 l 1
 1174 1210 l 1
 2039 2160 l 1
1174 1210 m 1
 1800 1410 l 1
 2563 320 l 1xb0
 1800 316 l 1x70
 1174 1210 l 1
120 2480 m 1
 1400 2480 l 1
 1400 2160 l 1
 1080 2160 l 1
 1080 320 l 1
 1280 320 l 1
 1280 0 l 1
 120 0 l 1
 120 320 l 1
 440 320 l 1
 440 2160 l 1
 120 2160 l 1
 120 2480 l 1
EndSplineSet
EndChar

StartChar: L
Encoding: 76 76 44
Width: 2360
VWidth: 0
Flags: HW
HStem: 0 320<120 440 1080 1832.16> 2160 320<120 440 1080 1480>
VStem: 440 640<320 2160> 1880 360<349.48 960>
AnchorPoint: "cedilla" 1244 80 basechar 0
AnchorPoint: "top" 800 2560 basechar 0
LayerCount: 2
Fore
SplineSet
120 2480 m 1
 1480 2480 l 1
 1480 2160 l 1
 1080 2160 l 1
 1080 320 l 1
 1720 320 l 2
 1840 320 1880 521 1880 640 c 2
 1880 960 l 1
 2240 960 l 1
 2240 0 l 1
 120 0 l 1
 120 320 l 1
 440 320 l 1
 440 2160 l 1
 120 2160 l 1
 120 2480 l 1
EndSplineSet
EndChar

StartChar: M
Encoding: 77 77 45
Width: 3440
VWidth: 0
Flags: HW
HStem: 0 320<120 440 840 1160 2040 2360 3000 3320> 2160 320<120 440 3000 3320>
VStem: 440 400<320 1768> 2360 640<320 1763>
AnchorPoint: "cedilla" 1604 80 basechar 0
AnchorPoint: "top" 1680 2560 basechar 0
LayerCount: 2
Fore
SplineSet
120 2480 m 1
 1160 2480 l 1
 1778 1308 l 1
 2363 2480 l 1
 3320 2480 l 1
 3320 2160 l 1
 3000 2160 l 1
 3000 320 l 1
 3320 320 l 1
 3320 0 l 1
 2040 0 l 1
 2040 320 l 1
 2360 320 l 1
 2360 1763 l 1
 1720 480 l 1
 1520 480 l 1
 840 1768 l 1
 840 320 l 1
 1160 320 l 1
 1160 0 l 1
 120 0 l 1
 120 320 l 1
 440 320 l 1
 440 2160 l 1
 120 2160 l 1
 120 2480 l 1
EndSplineSet
EndChar

StartChar: N
Encoding: 78 78 46
Width: 2860
VWidth: 0
Flags: HW
HStem: 0 320<120 440 840 1160> 2160 320<120 440 1720 2040 2440 2760>
VStem: 440 400<320 1600> 2040 400<1268 2160>
AnchorPoint: "cedilla" 1444 80 basechar 0
AnchorPoint: "top" 1440 2560 basechar 0
LayerCount: 2
Fore
SplineSet
120 2480 m 1
 1010 2480 l 1
 2040 1268 l 1
 2040 2160 l 1
 1720 2160 l 1
 1720 2480 l 1
 2760 2480 l 1
 2760 2160 l 1
 2440 2160 l 1
 2440 0 l 1
 2200 0 l 1
 840 1600 l 1
 840 320 l 1
 1160 320 l 1
 1160 0 l 1
 120 0 l 1
 120 320 l 1
 440 320 l 1
 440 2160 l 1
 120 2160 l 1
 120 2480 l 1
EndSplineSet
EndChar

StartChar: O
Encoding: 79 79 47
Width: 2720
VWidth: 0
Flags: W
HStem: -40 320<1088.91 1631.09> 2200 320<1086.12 1633.88>
VStem: 40 720<766.786 1713.21> 1960 720<766.786 1713.21>
AnchorPoint: "ogonek" 1900 80 basechar 0
AnchorPoint: "cedilla" 1364 80 basechar 0
AnchorPoint: "top" 1360 2560 basechar 0
LayerCount: 2
Fore
SplineSet
1360 2520 m 0
 2214 2520 2680 1880 2680 1240 c 0
 2680 600 2214 -40 1360 -40 c 0
 506 -40 40 600 40 1240 c 0
 40 1880 506 2520 1360 2520 c 0
1360 2200 m 0
 948 2200 760 1767 760 1240 c 0
 760 713 961 280 1360 280 c 0
 1759 280 1960 713 1960 1240 c 0
 1960 1767 1772 2200 1360 2200 c 0
EndSplineSet
EndChar

StartChar: P
Encoding: 80 80 48
Width: 2500
VWidth: 0
UnlinkRmOvrlpSave: 1
Flags: HW
HStem: 0 320<120 440 1080 1480> 960 320<1080 1571.08> 2160 320<120 440 1080 1587.05>
VStem: 440 640<320 960 1280 2160> 1720 720<1428.62 2039.72>
AnchorPoint: "cedilla" 764 80 basechar 0
AnchorPoint: "top" 1320 2560 basechar 0
LayerCount: 2
Fore
SplineSet
440 2160 m 1
 1080 2160 l 1
 1080 320 l 1
 440 320 l 1
 440 2160 l 1
120 2480 m 1
 1160 2480 l 2
 1880 2480 2080 2424 2264 2240 c 0
 2383 2121 2440 1934 2440 1740 c 0
 2440 1160 1910 960 1240 960 c 2
 1080 960 l 1
 1080 1280 l 1
 1240 1280 l 2
 1596 1280 1720 1460 1720 1720 c 0
 1720 1960 1640 2160 1320 2160 c 2
 120 2160 l 1
 120 2480 l 1
120 0 m 1
 120 320 l 1
 1480 320 l 1
 1480 0 l 1
 120 0 l 1
EndSplineSet
EndChar

StartChar: Q
Encoding: 81 81 49
Width: 2720
VWidth: 0
UnlinkRmOvrlpSave: 1
Flags: HW
HStem: -800 320<1502.21 1997.1> -40 160<812 1438.92> -20 20G<2111.5 2288.5> 2200 320<1086.12 1633.88>
VStem: 40 720<766.786 1713.21> 1880 640<-497 -99.1152> 1960 720<766.786 1713.21>
AnchorPoint: "cedilla" 964 -400 basechar 0
AnchorPoint: "top" 1360 2560 basechar 0
LayerCount: 2
Fore
SplineSet
1360 2520 m 0xda
 2214 2520 2680 1880 2680 1240 c 0
 2680 600 2214 -40 1360 -40 c 0
 506 -40 40 600 40 1240 c 0
 40 1880 506 2520 1360 2520 c 0xda
1360 2200 m 0
 948 2200 760 1767 760 1240 c 0
 760 713 961 280 1360 280 c 0
 1759 280 1960 713 1960 1240 c 0
 1960 1767 1772 2200 1360 2200 c 0
2520 -320 m 0xbc
 2520 -497 2377 -640 2200 -640 c 0
 2023 -640 1880 -497 1880 -320 c 0
 1880 -143 2023 0 2200 0 c 0
 2377 0 2520 -143 2520 -320 c 0xbc
2426 -546 m 0
 2296 -676 2152 -800 1880 -800 c 0
 1280 -800 1400 -520 572 -520 c 1
 812 120 l 1
 1452 120 l 1xdc
 1320 -320 l 1
 1521 -364 1560 -480 1800 -480 c 3
 1933 -480 2131 -465 2200 -320 c 0
 2426 -546 l 0
EndSplineSet
EndChar

StartChar: R
Encoding: 82 82 50
Width: 2740
VWidth: 0
UnlinkRmOvrlpSave: 1
Flags: HW
HStem: -40 320<1970 2384.32> 0 320<120 440 1080 1400> 960 320<1080 1596> 960 280<1360 1800> 2160 320<120 440 1080 1587.05>
VStem: 440 640<320 960 1280 2160> 1720 720<1428.62 2039.72> 2438 282<300.49 613.949>
AnchorPoint: "cedilla" 1404 80 basechar 0
AnchorPoint: "top" 1360 2560 basechar 0
LayerCount: 2
Fore
SplineSet
440 2160 m 1x4c
 1080 2160 l 1
 1080 320 l 1
 440 320 l 1
 440 2160 l 1x4c
120 2480 m 1
 1160 2480 l 2
 1880 2480 2080 2424 2264 2240 c 0
 2383 2121 2440 1934 2440 1740 c 0
 2440 1160 1910 960 1240 960 c 2
 1080 960 l 1
 1080 1280 l 1
 1240 1280 l 2
 1596 1280 1720 1460 1720 1720 c 0x2e
 1720 1960 1640 2160 1320 2160 c 2
 120 2160 l 1
 120 2480 l 1
120 0 m 1x4c
 120 320 l 1
 1400 320 l 1
 1400 0 l 1
 120 0 l 1x4c
1360 1240 m 0x1d
 1800 1240 2120 1160 2200 640 c 0
 2231 438 2240 280 2308 280 c 0
 2401 280 2419 481 2438 640 c 1
 2720 611 l 1
 2682 251 2645 -40 2195 -40 c 0
 1745 -40 1653 166 1520 640 c 0
 1453 878 1400 960 1200 960 c 0xad
 1360 1240 l 0x1d
EndSplineSet
EndChar

StartChar: S
Encoding: 83 83 51
Width: 2120
VWidth: 0
UnlinkRmOvrlpSave: 1
Flags: W
HStem: -40 320<586.975 1311.83> 320 320<223 400> 1840 320<1680 1857> 2200 320<833.382 1522.16>
VStem: 80 640<463 860.885> 80 320<463 640> 120 640<1707.46 2105.19> 1360 640<1619.12 2017> 1400 640<382.596 772.537> 1680 320<1840 2017>
AnchorPoint: "cedilla" 1064 80 basechar 0
AnchorPoint: "top" 1060 2560 basechar 0
LayerCount: 2
Fore
SplineSet
760 1920 m 0xf240
 760 1322 2040 1554 2040 720 c 3
 2040 280 1640 -40 1080 -40 c 0
 720 -40 80 131 80 640 c 1xf880
 400 640 l 1
 400 400 640 280 960 280 c 0
 1240 280 1400 360 1400 560 c 0xf480
 1400 1158 120 926 120 1760 c 3
 120 2200 480 2520 1040 2520 c 0
 1400 2520 2000 2349 2000 1840 c 1xf3
 1680 1840 l 1
 1680 2080 1480 2200 1160 2200 c 0
 880 2200 760 2120 760 1920 c 0xf240
720 640 m 0
 720 463 577 320 400 320 c 0xf4
 223 320 80 463 80 640 c 0xf8
 80 817 223 960 400 960 c 0xf4
 577 960 720 817 720 640 c 0
1360 1840 m 0xf1
 1360 2017 1503 2160 1680 2160 c 0xf040
 1857 2160 2000 2017 2000 1840 c 0xf1
 2000 1663 1857 1520 1680 1520 c 0xf040
 1503 1520 1360 1663 1360 1840 c 0xf1
EndSplineSet
Validated: 5
EndChar

StartChar: T
Encoding: 84 84 52
Width: 2520
VWidth: 0
Flags: W
HStem: 0 320<620 940 1580 1900> 1680 800<100 460 2060 2420> 2160 320<507.836 940 1580 2012.16>
VStem: 100 360<1680 2130.52> 940 640<320 2160> 2060 360<1680 2130.52>
CounterMasks: 1 1c
AnchorPoint: "cedilla" 1244 80 basechar 0
AnchorPoint: "top" 1280 2560 basechar 0
LayerCount: 2
Fore
SplineSet
100 2480 m 1xdc
 2420 2480 l 1
 2420 1680 l 1
 2060 1680 l 1xdc
 2060 1840 l 2
 2060 1959 2020 2160 1900 2160 c 2
 1580 2160 l 1
 1580 320 l 1
 1900 320 l 1
 1900 0 l 1
 620 0 l 1
 620 320 l 1
 940 320 l 1
 940 2160 l 1
 620 2160 l 2xbc
 500 2160 460 1959 460 1840 c 2
 460 1680 l 1
 100 1680 l 1
 100 2480 l 1xdc
EndSplineSet
EndChar

StartChar: U
Encoding: 85 85 53
Width: 2840
VWidth: 0
UnlinkRmOvrlpSave: 1
Flags: W
HStem: -40 320<1283.98 1842.54> 2160 320<120 440 1080 1400 1640 2720>
VStem: 440 640<522.734 2160> 2040 320<497.621 2160>
AnchorPoint: "ogonek" 1940 80 basechar 0
AnchorPoint: "cedilla" 1524 80 basechar 0
AnchorPoint: "top" 1520 2560 basechar 0
LayerCount: 2
Fore
SplineSet
120 2480 m 1
 1400 2480 l 1
 1400 2160 l 1
 120 2160 l 1
 120 2480 l 1
1640 2480 m 1
 2720 2480 l 1
 2720 2160 l 1
 1640 2160 l 1
 1640 2480 l 1
2040 2160 m 1
 2360 2160 l 1
 2360 840 l 2
 2360 400 2120 -40 1520 -40 c 0
 760 -40 440 280 440 920 c 2
 440 2160 l 1
 1080 2160 l 1
 1080 920 l 2
 1080 393 1360 280 1560 280 c 0
 1880 280 2040 520 2040 840 c 2
 2040 2160 l 1
EndSplineSet
EndChar

StartChar: V
Encoding: 86 86 54
Width: 2920
VWidth: 0
UnlinkRmOvrlpSave: 1
Flags: W
HStem: 0 21G<1231.48 1688.52> 2160 320<80 320 1080 1360 1760 2840>
AnchorPoint: "cedilla" 1484 80 basechar 0
AnchorPoint: "top" 1520 2560 basechar 0
LayerCount: 2
Fore
SplineSet
80 2480 m 1
 1360 2480 l 1
 1360 2160 l 1
 80 2160 l 1
 80 2480 l 1
1760 2480 m 1
 2840 2480 l 1
 2840 2160 l 1
 1760 2160 l 1
 1760 2480 l 1
1520 1127 m 2
 1552 1053 1600 920 1640 760 c 1
 1680 920 1731 1059 1760 1127 c 2
 2200 2160 l 1
 2600 2160 l 1
 1680 0 l 1
 1240 0 l 1
 320 2160 l 1
 1080 2160 l 1
 1520 1127 l 2
EndSplineSet
EndChar

StartChar: W
Encoding: 87 87 55
Width: 4200
VWidth: 0
UnlinkRmOvrlpSave: 1
Flags: HW
HStem: 0 21G<1159.53 1560.47 2639.53 3040.47> 2160 320<80 360 1120 1360 1600 1960 2600 2880 3120 3440 3840 4120>
AnchorPoint: "cedilla" 2124 80 basechar 0
AnchorPoint: "top" 2160 2560 basechar 0
LayerCount: 2
Fore
SplineSet
360 2160 m 1
 1120 2160 l 1
 1450 1127 l 2
 1474 1053 1510 920 1540 760 c 1
 1570 920 1608 1059 1630 1127 c 2
 1960 2160 l 1
 2600 2160 l 1
 2930 1127 l 2
 2954 1053 2990 920 3020 760 c 1
 3050 920 3088 1059 3110 1127 c 2
 3440 2160 l 1
 3840 2160 l 1
 3033 0 l 1
 2647 0 l 1
 2169 1280 l 2
 2140 1358 2113 1438 2100 1520 c 1
 2087 1438 2060 1358 2031 1280 c 2
 1553 0 l 1
 1167 0 l 1
 360 2160 l 1
1600 2480 m 1
 2880 2480 l 1
 2880 2160 l 1
 1600 2160 l 1
 1600 2480 l 1
3120 2480 m 1
 4120 2480 l 1
 4120 2160 l 1
 3120 2160 l 1
 3120 2480 l 1
80 2480 m 1
 1360 2480 l 1
 1360 2160 l 1
 80 2160 l 1
 80 2480 l 1
EndSplineSet
EndChar

StartChar: X
Encoding: 88 88 56
Width: 2920
VWidth: 0
UnlinkRmOvrlpSave: 1
Flags: W
HStem: 0 320<120 400 659 1200 1520 1798 2589 2800> 2160 320<120 1400 1720 2261 2520 2800>
AnchorPoint: "cedilla" 1384 80 basechar 0
AnchorPoint: "top" 1540 2560 basechar 0
LayerCount: 2
Fore
SplineSet
120 2480 m 1
 1400 2480 l 1
 1400 2160 l 1
 120 2160 l 1
 120 2480 l 1
1720 2480 m 1
 2800 2480 l 1
 2800 2160 l 1
 1720 2160 l 1
 1720 2480 l 1
2800 0 m 1
 1520 0 l 1
 1520 320 l 1
 2800 320 l 1
 2800 0 l 1
1200 0 m 1
 120 0 l 1
 120 320 l 1
 1200 320 l 1
 1200 0 l 1
1775 1440 m 1
 2589 320 l 1
 1798 320 l 1
 1257 1064 l 1
 1775 1440 l 1
2261 2348 m 1
 2520 2160 l 1
 1655 970 l 1
 1396 1159 l 1
 2261 2348 l 1
1175 1040 m 1
 360 2160 l 1
 1151 2160 l 1
 1692 1416 l 1
 1175 1040 l 1
659 132 m 1
 400 320 l 1
 1265 1510 l 1
 1524 1321 l 1
 659 132 l 1
EndSplineSet
EndChar

StartChar: Y
Encoding: 89 89 57
Width: 2840
VWidth: 0
UnlinkRmOvrlpSave: 1
Flags: W
HStem: 0 320<756 1076 1716 2036> 2160 320<80 320 1111 1360 1680 2221 2480 2760>
VStem: 1076 640<320 1320>
AnchorPoint: "ogonek" 1720 80 basechar 0
AnchorPoint: "cedilla" 1424 80 basechar 0
AnchorPoint: "top" 1500 2560 basechar 0
LayerCount: 2
Fore
SplineSet
80 2480 m 1
 1360 2480 l 1
 1360 2160 l 1
 80 2160 l 1
 80 2480 l 1
1680 2480 m 1
 2760 2480 l 1
 2760 2160 l 1
 1680 2160 l 1
 1680 2480 l 1
2221 2348 m 1
 2480 2160 l 1
 1615 970 l 1
 1356 1159 l 1
 2221 2348 l 1
1135 1040 m 1
 320 2160 l 1
 1111 2160 l 1
 1652 1416 l 1
 1135 1040 l 1
1076 1320 m 1
 1716 1320 l 1
 1716 320 l 1
 2036 320 l 1
 2036 0 l 1
 756 0 l 1
 756 320 l 1
 1076 320 l 1
 1076 1320 l 1
EndSplineSet
Validated: 5
EndChar

StartChar: Z
Encoding: 90 90 58
Width: 2280
VWidth: 0
Flags: W
HStem: 0 320<927 1732.16> 2160 320<551.836 1298>
VStem: 144 360<1680 2130.52> 1780 360<349.48 960>
AnchorPoint: "cedilla" 1144 80 basechar 0
AnchorPoint: "top" 1100 2560 basechar 0
LayerCount: 2
Fore
SplineSet
144 2480 m 1
 2100 2480 l 1
 2100 2240 l 1
 927 320 l 1
 1620 320 l 2
 1740 320 1780 521 1780 640 c 2
 1780 960 l 1
 2140 960 l 1
 2140 0 l 1
 100 0 l 1
 100 200 l 1
 1298 2160 l 1
 664 2160 l 2
 544 2160 504 1959 504 1840 c 2
 504 1680 l 1
 144 1680 l 1
 144 2480 l 1
EndSplineSet
Validated: 1
EndChar

StartChar: bracketleft
Encoding: 91 91 59
Width: 1320
VWidth: 0
Flags: W
HStem: -800 320<680 1240> 2320 320<680 1240>
VStem: 120 560<-480 2320>
LayerCount: 2
Fore
SplineSet
120 2640 m 1
 1240 2640 l 1
 1240 2320 l 1
 680 2320 l 1
 680 -480 l 1
 1240 -480 l 1
 1240 -800 l 1
 120 -800 l 1
 120 2640 l 1
EndSplineSet
Validated: 1
EndChar

StartChar: backslash
Encoding: 92 92 60
Width: 1961
VWidth: 0
Flags: W
HStem: 0 21G<1499.46 1881> 2460 20G<80 460.548>
LayerCount: 2
Fore
SplineSet
449 2480 m 5
 1881 0 l 5
 1511 0 l 5
 80 2480 l 5
 449 2480 l 5
EndSplineSet
Validated: 1
EndChar

StartChar: a
Encoding: 97 97 62
Width: 2060
VWidth: 0
UnlinkRmOvrlpSave: 1
Flags: W
HStem: -46 320<486.5 1097.84> 0 320<1780 1980> 722 279<486.5 1114.19> 1566 314<669.247 1152.59>
VStem: 80 599<308.622 689.606> 134 640<1179.12 1456.72> 1220 560<384 1497.06>
AnchorPoint: "ogonek" 1760 80 basechar 0
AnchorPoint: "cedilla" 964 80 basechar 0
AnchorPoint: "top" 1000 1920 basechar 0
LayerCount: 2
Fore
SplineSet
134 1400 m 0x36
 134 1577 277 1720 454 1720 c 0
 631 1720 774 1577 774 1400 c 0
 774 1223 631 1080 454 1080 c 0
 277 1080 134 1223 134 1400 c 0x36
1369 658 m 0
 1277 515 l 0
 1210 613 1057 722 937 722 c 0
 743 722 679 658 679 521 c 1
 80 521 l 1x3a
 80 795 317 1001 656 1001 c 0
 1048 1001 1218 898 1369 658 c 0
1369 384 m 0
 1199 41 1048 -46 656 -46 c 0
 317 -46 80 197 80 521 c 1
 679 521 l 1
 679 364 723 274 915 274 c 0xba
 1061 274 1226 422 1277 527 c 0
 1369 384 l 0
1780 1205 m 2
 1780 320 l 1
 1980 320 l 1
 1980 0 l 1
 1357 0 l 1
 1220 320 l 1x72
 1220 1264 l 2
 1220 1509 1079 1566 866 1566 c 0
 775 1566 683 1520 683 1459 c 1
 228 1626 l 1
 348 1758 541 1880 988 1880 c 0
 1435 1880 1780 1611 1780 1205 c 2
EndSplineSet
Validated: 5
EndChar

StartChar: b
Encoding: 98 98 63
Width: 2250
VWidth: 0
UnlinkRmOvrlpSave: 1
Flags: HW
HStem: 0 21G<280 558.438> 1520 360<1094.06 1690> 2160 320<80 280>
VStem: 280 440<203.844 858.147> 720 44<648 858.147> 737 103<320 811.647 1261 1290.35> 1569 602<499.568 1319.03>
AnchorPoint: "cedilla" 1244 80 basechar 0
AnchorPoint: "top" 1160 2560 basechar 0
LayerCount: 2
Fore
SplineSet
80 2480 m 1xf6
 840 2480 l 1
 840 320 l 1
 760 320 l 1
 545 0 l 1
 280 0 l 1
 280 2160 l 1
 80 2160 l 1
 80 2480 l 1xf6
1452 1880 m 0
 1928 1880 2170 1507 2170 919 c 0
 2170 331 1834 -40 1374 -40 c 0
 980 -40 803 203 737 295 c 1
 720 720 l 1xf6
 764 932 l 1xea
 784 648 908 331 1179 331 c 0
 1450 331 1570 557 1570 926 c 0
 1570 1295 1389 1520 1192 1520 c 0
 995 1520 880 1355 762 1095 c 1
 840 1520 l 1
 747 1261 l 1
 779 1520 976 1880 1452 1880 c 0
EndSplineSet
EndChar

StartChar: ogonek
Encoding: 731 731 64
Width: 1120
VWidth: 0
UnlinkRmOvrlpSave: 1
Flags: W
HStem: -760 232<417 720>
VStem: 80 280<-572.151 -49.8567> 400 640<-542.737 -219.115>
AnchorPoint: "ogonek" 520 80 mark 0
LayerCount: 2
Fore
SplineSet
400 -440 m 0
 400 -263 543 -120 720 -120 c 0
 897 -120 1040 -263 1040 -440 c 0
 1040 -617 897 -760 720 -760 c 0
 543 -760 400 -617 400 -440 c 0
946 -666 m 0
 866 -746 800 -800 560 -800 c 0
 280 -800 80 -679 80 -400 c 0
 80 -239 120 -120 240 80 c 1
 520 80 l 1
 440 -40 360 -239 360 -360 c 3
 361 -429 374 -528 417 -528 c 0
 946 -666 l 0
EndSplineSet
Validated: 5
EndChar

StartChar: ring
Encoding: 730 730 65
Width: 1040
VWidth: 0
Flags: W
HStem: 1960 320<406.917 633.083> 2520 320<406.917 633.083>
VStem: 80 320<2286.92 2513.08> 640 320<2286.92 2513.08>
AnchorPoint: "top" 520 1920 mark 0
LayerCount: 2
Fore
SplineSet
960 2400 m 20
 960 2157 763 1960 520 1960 c 4
 277 1960 80 2157 80 2400 c 4
 80 2643 277 2840 520 2840 c 4
 763 2840 960 2643 960 2400 c 20
520 2520 m 4
 454 2520 400 2466 400 2400 c 4
 400 2334 454 2280 520 2280 c 4
 586 2280 640 2334 640 2400 c 4
 640 2466 586 2520 520 2520 c 4
EndSplineSet
Validated: 1
EndChar

StartChar: c
Encoding: 99 99 66
Width: 1994
VWidth: 0
UnlinkRmOvrlpSave: 1
Flags: W
HStem: -40 332<864.946 1452.7> 1560 320<856.779 1439.62>
VStem: 80 594<499.927 1342.1> 1274 640<1019.12 1417>
AnchorPoint: "cedilla" 1084 80 basechar 0
AnchorPoint: "top" 1000 1920 basechar 0
LayerCount: 2
Fore
SplineSet
1033 1880 m 0
 1468 1880 1713 1673 1871 1400 c 1
 1612 1225 l 1
 1492 1450 1363 1560 1102 1560 c 0
 875 1560 674 1405 674 920 c 0
 674 435 893 292 1120 292 c 0
 1413 292 1549 410 1639 625 c 1
 1905 533 l 1
 1788 213 1493 -40 1038 -40 c 0
 509 -40 80 340 80 920 c 0
 80 1500 504 1880 1033 1880 c 0
1274 1240 m 0
 1274 1417 1417 1560 1594 1560 c 0
 1771 1560 1914 1417 1914 1240 c 0
 1914 1063 1771 920 1594 920 c 0
 1417 920 1274 1063 1274 1240 c 0
EndSplineSet
Validated: 5
EndChar

StartChar: cedilla
Encoding: 184 184 67
Width: 1337
VWidth: 0
UnlinkRmOvrlpSave: 1
Flags: W
HStem: -800 240<553.091 876.357> -280 360<720 862.501>
VStem: 80 560<-447.243 -237.186> 720 200<-102.29 80> 883 377<-549.846 -304.574>
AnchorPoint: "cedilla" 804 80 mark 0
LayerCount: 2
Fore
SplineSet
80 -440 m 0xe0
 80 -285 205 -160 360 -160 c 0
 515 -160 640 -285 640 -440 c 0
 640 -595 515 -720 360 -720 c 0
 205 -720 80 -595 80 -440 c 0xe0
80 -440 m 1
 550 -508 l 1
 550 -546 621 -560 720 -560 c 0xf0
 853 -560 883 -497 883 -440 c 0xe8
 883 -385 838 -281 682 -280 c 1
 720 80 l 1
 920 80 l 1
 920 -80 l 1xf0
 1120 -120 1260 -200 1260 -480 c 0xe8
 1260 -669 1080 -800 760 -800 c 0
 223 -800 80 -640 80 -440 c 1
EndSplineSet
Validated: 5
EndChar

StartChar: breve
Encoding: 728 728 68
Width: 1520
VWidth: 0
UnlinkRmOvrlpSave: 1
Flags: W
HStem: 2000 280<579.342 940.658>
VStem: 80 480<2297.69 2640> 960 480<2297.69 2640>
AnchorPoint: "top" 760 1920 mark 0
LayerCount: 2
Fore
SplineSet
80 2520 m 2
 80 2640 l 1
 560 2640 l 1
 560 2520 l 2
 560 2320 600 2280 760 2280 c 1
 760 2000 l 1
 400 2000 80 2240 80 2520 c 2
1440 2520 m 2
 1440 2240 1120 2000 760 2000 c 1
 760 2280 l 1
 920 2280 960 2320 960 2520 c 2
 960 2640 l 1
 1440 2640 l 1
 1440 2520 l 2
EndSplineSet
Validated: 5
EndChar

StartChar: d
Encoding: 100 100 69
Width: 2222
VWidth: 0
UnlinkRmOvrlpSave: 1
Flags: W
HStem: -46 366<591.733 1207.2> 0 320<1942 2142> 1509 371<834.72 1207.79> 2160 320<1182 1382>
VStem: 80 601<525.898 1340.43> 1382 560<579 2160>
AnchorPoint: "cedilla" 1124 80 basechar 0
AnchorPoint: "top" 1000 2560 basechar 0
LayerCount: 2
Fore
SplineSet
1182 2480 m 1x7c
 1942 2480 l 1
 1942 320 l 1
 2142 320 l 1
 2142 0 l 1
 1548 0 l 1
 1382 320 l 1
 1382 2160 l 1
 1182 2160 l 1
 1182 2480 l 1x7c
799 -46 m 0xbc
 323 -46 80 333 80 921 c 0
 80 1509 394 1880 854 1880 c 0
 1248 1880 1377 1645 1443 1553 c 1
 1694 1829 l 1
 1486 908 l 1
 1466 1192 1343 1509 1072 1509 c 0
 801 1509 681 1283 681 914 c 0
 681 545 862 320 1059 320 c 0xbc
 1256 320 1371 485 1489 745 c 1
 1942 320 l 1x7c
 1555 579 l 1
 1533 401 1463 245 1339 133 c 0
 1215 21 1037 -46 799 -46 c 0xbc
EndSplineSet
Validated: 5
EndChar

StartChar: tilde
Encoding: 732 732 70
Width: 1736
VWidth: 0
Flags: W
HStem: 1992 640<192.746 560.322 1183.36 1549.74>
VStem: 80 560<2069.55 2296.95> 1096 560<2319.05 2546.45>
AnchorPoint: "top" 870 1920 mark 0
LayerCount: 2
Fore
SplineSet
480 2632 m 0
 660 2632 782 2527 897 2430 c 0
 954 2382 1005 2341 1040 2326 c 0
 1057 2318 1069 2317 1076 2319 c 0
 1082 2320 1088 2323 1096 2333 c 0
 1096 2337 1096 2340 1096 2344 c 0
 1096 2498 1222 2624 1376 2624 c 0
 1530 2624 1656 2498 1656 2344 c 0
 1656 2236 1622 2144 1553 2080 c 0
 1484 2016 1383 1984 1256 1984 c 0
 1076 1984 954 2089 839 2186 c 0
 782 2234 731 2275 696 2290 c 0
 679 2298 667 2299 660 2297 c 0
 654 2296 648 2293 640 2283 c 0
 640 2279 640 2276 640 2272 c 0
 640 2118 514 1992 360 1992 c 0
 206 1992 80 2118 80 2272 c 0
 80 2380 114 2472 183 2536 c 0
 252 2600 353 2632 480 2632 c 0
EndSplineSet
Validated: 1
EndChar

StartChar: e
Encoding: 101 101 71
Width: 2076
VWidth: 0
UnlinkRmOvrlpSave: 1
Flags: W
HStem: -52 332<864.946 1452.7> 800 320<380 1402> 908 212<1402 1475> 1560 320<819.492 1257.83>
VStem: 380 294<800 1120>
AnchorPoint: "ogonek" 1520 80 basechar 0
AnchorPoint: "cedilla" 1084 80 basechar 0
AnchorPoint: "top" 1040 1920 basechar 0
LayerCount: 2
Fore
SplineSet
1996 908 m 4xb8
 1402 908 l 4
 1402 1383 1267 1560 1040 1560 c 7
 813 1560 674 1393 674 908 c 4
 674 423 893 280 1120 280 c 4
 1413 280 1549 398 1639 613 c 5
 1905 521 l 5
 1788 201 1493 -52 1038 -52 c 4
 509 -52 80 328 80 908 c 4
 80 1488 509 1880 1038 1880 c 4
 1567 1880 1996 1488 1996 908 c 4xb8
380 1120 m 5xd8
 1475 1120 l 5
 1996 908 l 5xb8
 1971 800 l 5
 380 800 l 5
 380 1120 l 5xd8
EndSplineSet
Validated: 5
EndChar

StartChar: f
Encoding: 102 102 72
Width: 1600
VWidth: 0
UnlinkRmOvrlpSave: 1
Flags: W
HStem: 0 320<160 360 920 1360> 1520 320<80 1520> 1840 21G<360 920> 2320 320<993.364 1340>
VStem: 360 560<320 2243.12> 1120 640<2059.12 2457>
AnchorPoint: "cedilla" 644 80 basechar 0
AnchorPoint: "top" 1000 2720 basechar 0
LayerCount: 2
Fore
SplineSet
160 0 m 1x9c
 160 320 l 1
 1360 320 l 1
 1360 0 l 1
 160 0 l 1x9c
360 320 m 1
 360 1840 l 1
 920 1840 l 1xdc
 920 320 l 1
 360 320 l 1
80 1520 m 1
 80 1840 l 1
 1520 1840 l 1
 1520 1520 l 1
 80 1520 l 1
1120 2280 m 0
 1120 2457 1263 2600 1440 2600 c 0
 1617 2600 1760 2457 1760 2280 c 0
 1760 2103 1617 1960 1440 1960 c 0
 1263 1960 1120 2103 1120 2280 c 0
1717 2440 m 0
 1520 2200 l 0
 1406 2291 1218 2320 1120 2320 c 0
 979 2320 920 2160 920 1840 c 1
 360 1840 l 1
 360 2331 640 2640 1200 2640 c 0
 1480 2640 1649 2558 1717 2440 c 0
EndSplineSet
Validated: 5
Substitution2: "Duck +ACIA-f+ACIA--1" f_duck
EndChar

StartChar: g
Encoding: 103 103 73
Width: 2080
VWidth: 0
UnlinkRmOvrlpSave: 1
Flags: W
HStem: -800 400<628.82 1363.83> 0 480<560 600 680 1399.37> 640 280<856.247 1239.08> 1560 314<794.612 1241.48> 2500 20G<1551.5 1835.5>
VStem: 80 520<-361.462 -59.2866> 120 400<260 645.491> 160 560<1004.71 1483.6> 1320 560<1005.44 1483.45> 1440 520<-311.613 -21.8385> 1664 296<2023 2275.63>
AnchorPoint: "cedilla" 1004 -720 basechar 0
AnchorPoint: "top" 840 2240 basechar 0
LayerCount: 2
Fore
SplineSet
1000 1874 m 0xf980
 1480 1874 1880 1680 1880 1280 c 0
 1880 840 1480 640 1000 640 c 0
 580 640 160 840 160 1280 c 0
 160 1720 560 1874 1000 1874 c 0xf980
1020 1560 m 4
 835 1560 720 1452 720 1245 c 0
 720 1038 835 920 1020 920 c 0
 1205 920 1320 1042 1320 1245 c 0
 1320 1448 1205 1560 1020 1560 c 4
600 840 m 1xfc
 960 680 l 1
 800 680 l 2
 600 680 520 600 520 560 c 0xfa
 520 520 560 480 600 480 c 2
 1160 480 l 1
 1280 0 l 1
 600 0 l 2xfc
 360 0 120 120 120 400 c 0xfa
 120 640 320 840 600 840 c 1xfc
1280 0 m 1
 1160 480 l 1
 1720 480 1960 333 1960 -40 c 0
 1960 -680 1400 -800 880 -800 c 0
 360 -800 80 -560 80 -280 c 0
 80 0 400 120 680 160 c 1
 880 80 l 1
 760 40 600 -40 600 -200 c 0
 600 -360 680 -400 960 -400 c 0
 1280 -400 1440 -320 1440 -160 c 0xfc40
 1440 -80 1360 0 1280 0 c 1
1320 2200 m 0xf880
 1320 2377 1463 2520 1640 2520 c 0
 1817 2520 1960 2377 1960 2200 c 0xf820
 1960 2023 1817 1880 1640 1880 c 0
 1463 1880 1320 2023 1320 2200 c 0xf880
1723 2509 m 1
 1948 2449 2000 2285 2000 2097 c 0
 2000 1909 1824 1700 1689 1610 c 1
 1522 1751 l 1
 1608 1845 1664 1936 1664 2055 c 1
 1723 2509 l 1
EndSplineSet
Validated: 5
EndChar

StartChar: h
Encoding: 104 104 74
Width: 2280
VWidth: 0
UnlinkRmOvrlpSave: 1
Flags: W
HStem: 0 320<80 280 840 1040 1240 1440 2000 2200> 1520 360<1055.46 1638> 2160 320<80 280>
VStem: 280 560<320 2160> 1440 560<320 1461.01>
AnchorPoint: "cedilla" 1124 80 basechar 0
AnchorPoint: "top" 1160 2560 basechar 0
LayerCount: 2
Fore
SplineSet
80 2480 m 1
 840 2480 l 1
 840 320 l 1
 1040 320 l 1
 1040 0 l 1
 80 0 l 1
 80 320 l 1
 280 320 l 1
 280 2160 l 1
 80 2160 l 1
 80 2480 l 1
1400 1880 m 0
 1876 1880 2000 1560 2000 1080 c 2
 2000 320 l 1
 2200 320 l 1
 2200 0 l 1
 1240 0 l 1
 1240 320 l 1
 1440 320 l 1
 1440 1120 l 2
 1440 1440 1360 1520 1184 1520 c 0
 1040 1520 880 1355 762 1095 c 1
 747 1261 l 1
 779 1520 924 1880 1400 1880 c 0
EndSplineSet
Validated: 5
EndChar

StartChar: uni0237
Encoding: 567 567 77
Width: 1080
VWidth: 0
UnlinkRmOvrlpSave: 1
Flags: W
HStem: -800 680<-240 25> 1520 320<80 280>
VStem: -472 640<-496.715 -219.115> 280 560<-452.949 1520>
AnchorPoint: "top" 560 1920 basechar 0
LayerCount: 2
Fore
SplineSet
160 -480 m 4
 241 -480 280 -440 280 0 c 6
 280 1520 l 5
 80 1520 l 5
 80 1840 l 5
 840 1840 l 5
 840 0 l 6
 840 -491 640 -800 80 -800 c 4
 -240 -800 -354 -730 -429 -600 c 5
 160 -480 l 4
168 -440 m 0
 168 -617 25 -760 -152 -760 c 0
 -329 -760 -472 -617 -472 -440 c 0
 -472 -263 -329 -120 -152 -120 c 0
 25 -120 168 -263 168 -440 c 0
EndSplineSet
Validated: 5
EndChar

StartChar: dotlessi
Encoding: 305 305 78
Width: 1120
VWidth: 0
Flags: W
HStem: 0 320<80 280 840 1040> 1520 320<80 280>
VStem: 280 560<320 1520>
AnchorPoint: "top" 560 1920 basechar 0
LayerCount: 2
Fore
SplineSet
80 1840 m 1
 840 1840 l 1
 840 320 l 1
 1040 320 l 1
 1040 0 l 1
 80 0 l 1
 80 320 l 1
 280 320 l 1
 280 1520 l 1
 80 1520 l 1
 80 1840 l 1
EndSplineSet
Validated: 1
EndChar

StartChar: dotaccent
Encoding: 729 729 79
Width: 800
VWidth: 0
UnlinkRmOvrlpSave: 1
Flags: W
HStem: 1960 640<179.115 620.885>
VStem: 80 640<2059.12 2500.88>
AnchorPoint: "top" 400 1920 mark 0
LayerCount: 2
Fore
SplineSet
80 2280 m 0
 80 2457 223 2600 400 2600 c 0
 577 2600 720 2457 720 2280 c 0
 720 2103 577 1960 400 1960 c 4
 223 1960 80 2103 80 2280 c 0
EndSplineSet
Validated: 1
EndChar

StartChar: k
Encoding: 107 107 80
Width: 2280
VWidth: 0
UnlinkRmOvrlpSave: 1
Flags: W
HStem: 0 320<80 280 840 1040 1240 1452 2120 2200> 1520 320<1200 1649 2034 2160> 2160 320<80 280>
VStem: 280 560<320 2160>
AnchorPoint: "cedilla" 1124 80 basechar 0
AnchorPoint: "top" 1000 2560 basechar 0
LayerCount: 2
Fore
SplineSet
80 2480 m 1
 840 2480 l 1
 840 320 l 1
 1040 320 l 1
 1040 0 l 1
 80 0 l 1
 80 320 l 1
 280 320 l 1
 280 2160 l 1
 80 2160 l 1
 80 2480 l 1
1240 320 m 1
 2200 320 l 1
 2200 0 l 1
 1240 0 l 1
 1240 320 l 1
1200 1520 m 1
 1200 1840 l 1
 2160 1840 l 1
 2160 1520 l 1
 1200 1520 l 1
1649 1760 m 1
 2034 1670 l 1
 1306 870 l 1
 920 960 l 1
 1649 1760 l 1
920 960 m 1
 1448 1160 l 1
 2120 200 l 1
 1452 200 l 1
 920 960 l 1
EndSplineSet
Validated: 5
EndChar

StartChar: m
Encoding: 109 109 81
Width: 3440
VWidth: 0
UnlinkRmOvrlpSave: 1
Flags: W
HStem: 0 320<80 280 840 1040 1240 1440 2000 2200 2400 2600 3160 3360> 1520 360<1055.46 1628.94 2215.46 2788.94> 1520 320<80 280>
VStem: 280 560<320 1261> 1440 560<320 1461.01> 2600 560<320 1461.01>
CounterMasks: 1 1c
AnchorPoint: "cedilla" 1724 80 basechar 0
AnchorPoint: "top" 1720 1920 basechar 0
LayerCount: 2
Fore
SplineSet
80 1840 m 1xbc
 701 1840 l 1
 846 1560 l 1
 840 320 l 1
 1040 320 l 1
 1040 0 l 1
 80 0 l 1
 80 320 l 1
 280 320 l 1
 280 1520 l 1
 80 1520 l 1
 80 1840 l 1xbc
1400 1880 m 0xdc
 1876 1880 2000 1560 2000 1080 c 2
 2000 320 l 1
 2200 320 l 1
 2200 0 l 1
 1240 0 l 1
 1240 320 l 1
 1440 320 l 1
 1440 1120 l 2
 1440 1440 1360 1520 1184 1520 c 0
 1040 1520 880 1355 762 1095 c 1
 747 1261 l 1
 779 1520 924 1880 1400 1880 c 0xdc
2560 1880 m 0
 3036 1880 3160 1560 3160 1080 c 2
 3160 320 l 1
 3360 320 l 1
 3360 0 l 1
 2400 0 l 1
 2400 320 l 1
 2600 320 l 1
 2600 1120 l 2
 2600 1440 2520 1520 2344 1520 c 0
 2200 1520 2040 1355 1922 1095 c 1
 1907 1261 l 1
 1939 1520 2084 1880 2560 1880 c 0
EndSplineSet
Validated: 5
EndChar

StartChar: o
Encoding: 111 111 82
Width: 2076
VWidth: 0
Flags: W
HStem: -46 320<815.366 1257.2> 1554 320<815.366 1257.2>
VStem: 80 594<491.896 1336.1> 1402 595<494.072 1333.93>
AnchorPoint: "ogonek" 1480 80 basechar 0
AnchorPoint: "cedilla" 1044 80 basechar 0
AnchorPoint: "top" 1038 1914 basechar 0
LayerCount: 2
Fore
SplineSet
1038 1874 m 3
 1567 1874 1997 1494 1997 914 c 0
 1997 334 1567 -46 1038 -46 c 3
 509 -46 80 334 80 914 c 0
 80 1494 509 1874 1038 1874 c 3
1038 1554 m 3
 811 1554 674 1399 674 914 c 0
 674 429 811 274 1038 274 c 3
 1265 274 1402 439 1402 914 c 0
 1402 1389 1265 1554 1038 1554 c 3
EndSplineSet
Validated: 1
EndChar

StartChar: acute
Encoding: 180 180 83
Width: 1060
VWidth: 0
Flags: W
HStem: 2000 640
VStem: 83 897
AnchorPoint: "top" 460 1920 mark 0
LayerCount: 2
Fore
SplineSet
99 2091 m 2
 579 2571 l 2
 623 2615 683 2640 745 2640 c 0
 875 2640 980 2535 980 2405 c 0
 980 2299 909 2206 806 2178 c 2
 150 2002 l 2
 146 2001 141 2000 136 2000 c 0
 107 2000 83 2024 83 2053 c 0
 83 2067 89 2081 99 2091 c 2
EndSplineSet
Validated: 1
EndChar

StartChar: grave
Encoding: 96 96 84
Width: 1060
VWidth: 0
Flags: W
HStem: 2000 640
VStem: 80 897
AnchorPoint: "top" 600 1920 mark 0
LayerCount: 2
Fore
SplineSet
961 2091 m 2
 971 2081 977 2067 977 2053 c 0
 977 2024 953 2000 924 2000 c 0
 919 2000 914 2001 910 2002 c 2
 254 2178 l 2
 151 2206 80 2299 80 2405 c 0
 80 2535 185 2640 315 2640 c 0
 377 2640 437 2615 481 2571 c 2
 961 2091 l 2
EndSplineSet
Validated: 1
EndChar

StartChar: p
Encoding: 112 112 85
Width: 2222
VWidth: 0
UnlinkRmOvrlpSave: 1
Flags: W
HStem: -640 320<80 280 840 1040> -40 371<1014.21 1387.28> 1520 366<1015.19 1630.27> 1520 320<80 280>
VStem: 280 560<-320 1261> 1541 601<499.568 1314.1>
AnchorPoint: "cedilla" 1444 80 basechar 0
AnchorPoint: "top" 1140 1920 basechar 0
LayerCount: 2
Fore
SplineSet
1040 -640 m 1xdc
 80 -640 l 1
 80 -320 l 1
 280 -320 l 1
 280 1520 l 1
 80 1520 l 1
 80 1840 l 1
 674 1840 l 1
 840 1520 l 1
 840 -320 l 1
 1040 -320 l 1
 1040 -640 l 1xdc
1423 1886 m 0xec
 1899 1886 2142 1507 2142 919 c 0
 2142 331 1828 -40 1368 -40 c 0
 974 -40 845 195 779 287 c 1
 528 11 l 1
 736 932 l 1
 756 648 879 331 1150 331 c 0
 1421 331 1541 557 1541 926 c 0
 1541 1295 1360 1520 1163 1520 c 0xec
 966 1520 851 1355 733 1095 c 1
 280 1520 l 1xdc
 668 1261 l 1
 690 1439 760 1595 884 1707 c 0
 1008 1819 1185 1886 1423 1886 c 0xec
EndSplineSet
Validated: 5
EndChar

StartChar: q
Encoding: 113 113 86
Width: 2250
VWidth: 0
UnlinkRmOvrlpSave: 1
Flags: W
HStem: -640 320<1211 1411 1971 2171> -40 360<561 1156.94> 1820 20G<1692.56 1971>
VStem: 80 601<526.367 1340.43> 1411 560<-320 320 579 920> 1411 103<549.65 579 920 920> 1486 45<920 1192>
AnchorPoint: "cedilla" 644 80 basechar 0
AnchorPoint: "top" 1100 1920 basechar 0
LayerCount: 2
Fore
SplineSet
1706 1840 m 1xf4
 1971 1840 l 1
 1971 -320 l 1
 2171 -320 l 1
 2171 -640 l 1
 1211 -640 l 1
 1211 -320 l 1
 1411 -320 l 1xf8
 1411 1520 l 1
 1491 1520 l 1
 1706 1840 l 1xf4
799 -40 m 0
 323 -40 80 333 80 921 c 0
 80 1509 417 1880 877 1880 c 0
 1271 1880 1448 1637 1514 1545 c 1xf4
 1531 920 l 1
 1486 908 l 1xf2
 1466 1192 1343 1509 1072 1509 c 0
 801 1509 681 1283 681 914 c 0
 681 545 862 320 1059 320 c 0
 1256 320 1371 485 1489 745 c 1
 1411 320 l 1
 1504 579 l 1
 1472 320 1275 -40 799 -40 c 0
EndSplineSet
Validated: 5
EndChar

StartChar: r
Encoding: 114 114 87
Width: 1880
VWidth: 0
UnlinkRmOvrlpSave: 1
Flags: W
HStem: 0 320<80 280 840 1280> 1520 360<1014.76 1406.01> 1520 320<80 280>
VStem: 280 560<320 1200>
AnchorPoint: "cedilla" 564 80 basechar 0
AnchorPoint: "top" 980 1920 basechar 0
LayerCount: 2
Fore
SplineSet
80 1840 m 1xb0
 701 1840 l 1
 846 1560 l 1
 840 320 l 1
 1280 320 l 1
 1280 0 l 1
 80 0 l 1
 80 320 l 1
 280 320 l 1
 280 1520 l 1
 80 1520 l 1
 80 1840 l 1xb0
1800 1400 m 0
 1191 1495 l 0
 1170 1511 1146 1520 1120 1520 c 0
 1019 1520 901 1372 800 1040 c 1
 680 1200 l 1
 760 1600 960 1880 1328 1880 c 0xd0
 1622 1880 1800 1680 1800 1400 c 0
1160 1400 m 0
 1160 1577 1303 1720 1480 1720 c 0
 1657 1720 1800 1577 1800 1400 c 0
 1800 1223 1657 1080 1480 1080 c 0
 1303 1080 1160 1223 1160 1400 c 0
EndSplineSet
Validated: 5
EndChar

StartChar: s
Encoding: 115 115 88
Width: 1720
VWidth: 0
UnlinkRmOvrlpSave: 1
Flags: W
HStem: -40 320<564.496 1089.4> 120 280<205 515> 1440 280<1165 1475> 1560 280<620.225 1114.3>
VStem: 80 560<245 602.814> 120 480<1245.68 1530.51> 1040 560<1237.19 1595> 1120 520<318.778 627.708>
AnchorPoint: "cedilla" 884 80 basechar 0
AnchorPoint: "top" 860 1920 basechar 0
LayerCount: 2
Fore
SplineSet
1040 1440 m 0x22
 1040 1595 1165 1720 1320 1720 c 0
 1475 1720 1600 1595 1600 1440 c 0
 1600 1285 1475 1160 1320 1160 c 0
 1165 1160 1040 1285 1040 1440 c 0x22
80 400 m 0x48
 80 555 205 680 360 680 c 0
 515 680 640 555 640 400 c 0
 640 245 515 120 360 120 c 0
 205 120 80 245 80 400 c 0x48
80 400 m 1
 560 400 l 1x49
 600 331 640 280 800 280 c 0
 1080 280 1120 349 1120 480 c 0
 1120 880 120 600 120 1280 c 0
 120 1760 520 1840 918 1840 c 0x95
 1360 1840 1600 1640 1600 1440 c 1x26
 1120 1440 l 1x21
 1080 1509 1040 1560 880 1560 c 0
 708 1560 600 1531 600 1400 c 0
 600 1000 1640 1240 1640 560 c 0
 1640 80 1240 -40 762 -40 c 0x95
 360 -40 80 120 80 400 c 1
EndSplineSet
Validated: 5
EndChar

StartChar: circumflex
Encoding: 710 710 89
Width: 1600
VWidth: 0
Flags: W
HStem: 2000 640<560 600 1000 1040>
AnchorPoint: "top" 801 1924 mark 0
LayerCount: 2
Fore
SplineSet
1520 2000 m 1
 1000 2000 l 1
 800 2480 l 1
 600 2000 l 1
 80 2000 l 1
 560 2640 l 1
 1040 2640 l 5
 1520 2000 l 1
EndSplineSet
Validated: 1
EndChar

StartChar: l
Encoding: 108 108 90
Width: 1120
VWidth: 0
Flags: W
HStem: 0 320<80 280 840 1040> 2160 320<80 280>
VStem: 280 560<320 2160>
AnchorPoint: "cedilla" 604 80 basechar 0
AnchorPoint: "top" 560 2560 basechar 0
LayerCount: 2
Fore
SplineSet
80 2480 m 1
 840 2480 l 1
 840 320 l 1
 1040 320 l 1
 1040 0 l 1
 80 0 l 1
 80 320 l 1
 280 320 l 1
 280 2160 l 1
 80 2160 l 1
 80 2480 l 1
EndSplineSet
Validated: 1
EndChar

StartChar: n
Encoding: 110 110 91
Width: 2280
VWidth: 0
UnlinkRmOvrlpSave: 1
Flags: W
HStem: 0 320<80 280 840 1040 1240 1440 2000 2200> 1520 360<1055.46 1628.94> 1520 320<80 280>
VStem: 280 560<320 1261> 1440 560<320 1461.01>
AnchorPoint: "cedilla" 1124 80 basechar 0
AnchorPoint: "top" 1140 1920 basechar 0
LayerCount: 2
Fore
SplineSet
80 1840 m 1xb8
 701 1840 l 1
 846 1560 l 1
 840 320 l 1
 1040 320 l 1
 1040 0 l 1
 80 0 l 1
 80 320 l 1
 280 320 l 1
 280 1520 l 1
 80 1520 l 1
 80 1840 l 1xb8
1400 1880 m 0xd8
 1876 1880 2000 1560 2000 1080 c 2
 2000 320 l 1
 2200 320 l 1
 2200 0 l 1
 1240 0 l 1
 1240 320 l 1
 1440 320 l 1
 1440 1120 l 2
 1440 1440 1360 1520 1184 1520 c 0
 1040 1520 880 1355 762 1095 c 1
 747 1261 l 1
 779 1520 924 1880 1400 1880 c 0xd8
EndSplineSet
Validated: 5
EndChar

StartChar: t
Encoding: 116 116 92
Width: 1560
VWidth: 0
UnlinkRmOvrlpSave: 1
Flags: W
HStem: -40 360<858.876 1180.74> 1520 320<80 277.248 840 1400>
VStem: 280 560<339.094 1520> 1240 240<381.809 524.779>
AnchorPoint: "cedilla" 884 80 basechar 0
AnchorPoint: "top" 770 2320 basechar 0
LayerCount: 2
Fore
SplineSet
640 2240 m 1
 840 2240 l 1
 840 1840 l 1
 1400 1840 l 1
 1400 1520 l 1
 840 1520 l 1
 840 480 l 2
 840 400 880 320 1000 320 c 0
 1120 320 1216 400 1240 560 c 1
 1480 520 l 1
 1440 216 1257 -40 920 -40 c 0
 520 -40 280 160 280 480 c 2
 280 1520 l 1
 80 1520 l 1
 80 1840 l 1
 120 1840 l 2
 320 1840 463 1934 640 2240 c 1
EndSplineSet
Validated: 1
EndChar

StartChar: dieresis
Encoding: 168 168 93
Width: 1760
VWidth: 0
Flags: W
HStem: 2000 640<179.115 620.885 1139.12 1580.88>
VStem: 80 640<2099.12 2540.88> 1040 640<2099.12 2540.88>
AnchorPoint: "top" 880 1920 mark 0
LayerCount: 2
Fore
SplineSet
400 2640 m 0
 577 2640 720 2497 720 2320 c 0
 720 2143 577 2000 400 2000 c 0
 223 2000 80 2143 80 2320 c 0
 80 2497 223 2640 400 2640 c 0
1360 2640 m 0
 1537 2640 1680 2497 1680 2320 c 0
 1680 2143 1537 2000 1360 2000 c 0
 1183 2000 1040 2143 1040 2320 c 0
 1040 2497 1183 2640 1360 2640 c 0
EndSplineSet
Validated: 1
EndChar

StartChar: u
Encoding: 117 117 94
Width: 2280
VWidth: 0
UnlinkRmOvrlpSave: 1
Flags: W
HStem: -40 360<651.063 1229.9> 0 320<2000 2200> 1520 320<80 280 1240 1440>
VStem: 280 560<378.991 1520> 1436 564<469.944 1520>
AnchorPoint: "ogonek" 2000 80 basechar 0
AnchorPoint: "cedilla" 1164 80 basechar 0
AnchorPoint: "top" 1130 1920 basechar 0
LayerCount: 2
Fore
SplineSet
80 1840 m 1xb8
 840 1840 l 1
 840 720 l 2
 840 400 920 320 1096 320 c 0xb8
 1209 320 1332 421 1436 589 c 1
 1440 1520 l 1
 1240 1520 l 1
 1240 1840 l 1
 2000 1840 l 1
 2000 320 l 1
 2200 320 l 1
 2200 0 l 1
 1579 0 l 1x78
 1439 272 l 1
 1347 102 1179 -40 880 -40 c 0
 404 -40 280 280 280 760 c 2
 280 1520 l 1
 80 1520 l 1
 80 1840 l 1xb8
EndSplineSet
Validated: 1
EndChar

StartChar: v
Encoding: 118 118 95
Width: 2320
VWidth: 0
UnlinkRmOvrlpSave: 1
Flags: W
HStem: 0 21G<927.211 1368.79> 1520 320<80 268 871 1200 1400 1680 2028 2240>
AnchorPoint: "cedilla" 1164 80 basechar 0
AnchorPoint: "top" 1210 1920 basechar 0
LayerCount: 2
Fore
SplineSet
80 1840 m 1
 1200 1840 l 1
 1200 1520 l 1
 871 1520 l 1
 1188 800 l 2
 1217 733 1257 630 1276 560 c 1
 1295 630 1335 733 1364 800 c 2
 1680 1520 l 1
 1400 1520 l 1
 1400 1840 l 1
 2240 1840 l 1
 2240 1520 l 1
 2028 1520 l 1
 1360 0 l 1
 936 0 l 1
 268 1520 l 1
 80 1520 l 1
 80 1840 l 1
EndSplineSet
Validated: 1
EndChar

StartChar: w
Encoding: 119 119 96
Width: 3240
VWidth: 0
UnlinkRmOvrlpSave: 1
Flags: W
HStem: 0 21G<808.789 1369.2 1952.8 2407.21> 1520 320<80 268 886 1200 1400 1560 1924 2120 2320 2598 2948 3160>
AnchorPoint: "cedilla" 1644 80 basechar 0
AnchorPoint: "top" 1650 1920 basechar 0
LayerCount: 2
Fore
SplineSet
80 1840 m 1
 1200 1840 l 1
 1200 1520 l 1
 886 1520 l 1
 1155 800 l 2
 1180 733 1205 646 1230 550 c 1
 1254 646 1278 733 1302 800 c 2
 1560 1520 l 1
 1400 1520 l 1
 1400 1840 l 1
 2120 1840 l 1
 2120 1520 l 1
 1924 1520 l 1
 2194 800 l 2
 2219 733 2244 646 2269 550 c 1
 2293 646 2316 733 2340 800 c 2
 2598 1520 l 1
 2320 1520 l 1
 2320 1840 l 1
 3160 1840 l 1
 3160 1520 l 1
 2948 1520 l 1
 2400 0 l 1
 1960 0 l 1
 1744 600 l 2
 1716 677 1689 770 1661 880 c 1
 1633 770 1606 677 1578 600 c 2
 1362 0 l 1
 816 0 l 1
 268 1520 l 1
 80 1520 l 1
 80 1840 l 1
EndSplineSet
Validated: 1
EndChar

StartChar: x
Encoding: 120 120 97
Width: 2280
VWidth: 0
UnlinkRmOvrlpSave: 1
Flags: W
HStem: 0 320<80 960 1160 1360 2000 2200> 1520 320<80 271 911 1120 1320 1560 2000 2200>
AnchorPoint: "cedilla" 1044 80 basechar 0
AnchorPoint: "top" 1130 1920 basechar 0
LayerCount: 2
Fore
SplineSet
1560 1520 m 1
 2000 1520 l 1
 1520 920 l 1
 2000 320 l 1
 1360 320 l 1
 880 920 l 1
 1080 920 l 1
 1560 1520 l 1
711 320 m 1
 271 320 l 1
 751 920 l 1
 271 1520 l 1
 911 1520 l 1
 1391 920 l 1
 1191 920 l 1
 711 320 l 1
1320 1520 m 1
 1320 1840 l 1
 2200 1840 l 1
 2200 1520 l 1
 1320 1520 l 1
1120 1520 m 1
 80 1520 l 1
 80 1840 l 1
 1120 1840 l 1
 1120 1520 l 1
960 320 m 1
 960 0 l 1
 80 0 l 1
 80 320 l 1
 960 320 l 1
1160 320 m 1
 2200 320 l 1
 2200 0 l 1
 1160 0 l 1
 1160 320 l 1
EndSplineSet
Validated: 5
EndChar

StartChar: y
Encoding: 121 121 98
Width: 2320
VWidth: 0
UnlinkRmOvrlpSave: 1
Flags: W
HStem: -800 305<403 821.111> 1520 320<80 268 871 1200 1400 1680 2028 2240>
VStem: 80 640<-464.655 -219.115>
AnchorPoint: "ogonek" 1920 80 basechar 0
AnchorPoint: "cedilla" 1924 80 basechar 0
AnchorPoint: "top" 1130 1920 basechar 0
LayerCount: 2
Fore
SplineSet
720 -440 m 0
 720 -617 577 -760 400 -760 c 0
 223 -760 80 -617 80 -440 c 0
 80 -263 223 -120 400 -120 c 0
 577 -120 720 -263 720 -440 c 0
671 -457 m 5
 687 -483 704 -495 722 -495 c 0
 777 -495 841 -387 898 -257 c 2
 973 -85 l 1
 268 1520 l 1
 80 1520 l 1
 80 1840 l 1
 1200 1840 l 1
 1200 1520 l 1
 871 1520 l 1
 1188 800 l 2
 1217 733 1257 630 1276 560 c 1
 1295 630 1335 733 1364 800 c 2
 1680 1520 l 1
 1400 1520 l 1
 1400 1840 l 1
 2240 1840 l 1
 2240 1520 l 1
 2028 1520 l 1
 1360 0 l 2
 1139 -503 956 -800 526 -800 c 0
 280 -800 188 -712 123 -600 c 5
 671 -457 l 5
EndSplineSet
Validated: 5
EndChar

StartChar: z
Encoding: 122 122 99
Width: 1720
VWidth: 0
UnlinkRmOvrlpSave: 1
Flags: W
HStem: 0 320<752 1320> 1520 320<400 936>
VStem: 80 320<1040 1520> 1320 320<320 800>
AnchorPoint: "cedilla" 884 80 basechar 0
AnchorPoint: "top" 850 1920 basechar 0
LayerCount: 2
Fore
SplineSet
80 1840 m 1
 1640 1840 l 1
 1640 1656 l 1
 873 480 l 2
 838 427 799 378 752 320 c 1
 1320 320 l 1
 1320 800 l 1
 1640 800 l 1
 1640 0 l 1
 40 0 l 1
 40 184 l 1
 807 1360 l 2
 842 1413 886 1464 936 1520 c 1
 400 1520 l 1
 400 1040 l 1
 80 1040 l 1
 80 1840 l 1
EndSplineSet
Validated: 1
EndChar

StartChar: macron
Encoding: 175 175 223
Width: 1240
VWidth: 0
Flags: W
HStem: 2080 320<80 1160>
VStem: 80 1080<2080 2400>
AnchorPoint: "top" 620 1920 mark 0
LayerCount: 2
Fore
SplineSet
80 2080 m 1
 80 2400 l 1
 1160 2400 l 1
 1160 2080 l 1
 80 2080 l 1
EndSplineSet
Validated: 1
EndChar

StartChar: hungarumlaut
Encoding: 733 733 234
Width: 1933
VWidth: 0
Flags: W
HStem: 2043 786<411.217 468 1371.22 1428>
AnchorPoint: "top" 880 1920 mark 0
LayerCount: 2
Back
SplineSet
400 2640 m 4
 576.639648438 2640 720 2496.63964844 720 2320 c 4
 720 2143.36035156 576.639648438 2000 400 2000 c 4
 223.360351562 2000 80 2143.36035156 80 2320 c 4
 80 2496.63964844 223.360351562 2640 400 2640 c 4
1360 2640 m 4
 1536.63964844 2640 1680 2496.63964844 1680 2320 c 4
 1680 2143.36035156 1536.63964844 2000 1360 2000 c 4
 1183.36035156 2000 1040 2143.36035156 1040 2320 c 4
 1040 2496.63964844 1183.36035156 2640 1360 2640 c 4
EndSplineSet
Fore
SplineSet
1574 2829 m 0
 1728 2829 1854 2697 1854 2549 c 0
 1854 2482 1830 2415 1782 2361 c 0
 1600 2159 1428 2088 1208 2043 c 1
 1030 2124 l 1
 1131 2356 1184 2534 1366 2736 c 0
 1421 2797 1497 2829 1574 2829 c 0
614 2829 m 0
 768 2829 894 2697 894 2549 c 0
 894 2482 870 2415 822 2361 c 0
 640 2159 468 2088 248 2043 c 1
 70 2124 l 1
 171 2356 224 2534 406 2736 c 0
 461 2797 537 2829 614 2829 c 0
EndSplineSet
Validated: 1
EndChar

StartChar: uni0326
Encoding: 806 806 246
Width: 0
VWidth: 0
UnlinkRmOvrlpSave: 1
Flags: W
HStem: -800 153<-497.435 -321.835>
VStem: -560 510<-453 -216> -288 208<-453 -187>
AnchorPoint: "cedilla" -316 80 mark 0
LayerCount: 2
Fore
SplineSet
-560 -320 m 0xc0
 -560 -187 -453 -80 -320 -80 c 0
 -187 -80 -80 -187 -80 -320 c 0xa0
 -80 -453 -187 -560 -320 -560 c 0
 -453 -560 -560 -453 -560 -320 c 0xc0
-320 -80 m 0
 -108 -80 -50 -216 -50 -357 c 0xc0
 -50 -658 -253 -800 -395 -800 c 3
 -443 -800 -490 -789 -532 -770 c 1
 -482 -625 l 1
 -458 -640 -434 -647 -409 -647 c 3
 -358 -647 -288 -573 -288 -417 c 0
 -320 -80 l 0
EndSplineSet
Validated: 5
EndChar

StartChar: longs
Encoding: 383 383 263
Width: 1520
VWidth: 0
UnlinkRmOvrlpSave: 1
Flags: W
HStem: 0 320<160 360 920 1360> 1820 20G<360 920> 1840 21G<360 920> 2320 320<993.364 1340>
VStem: 360 560<320 2243.12> 1120 640<2059.12 2457>
AnchorPoint: "cedilla" 644 80 basechar 0
AnchorPoint: "top" 1000 2720 basechar 0
LayerCount: 2
Fore
SplineSet
160 0 m 1x9c
 160 320 l 1
 1360 320 l 1
 1360 0 l 1
 160 0 l 1x9c
360 320 m 1
 360 1840 l 1
 920 1840 l 1xdc
 920 320 l 1
 360 320 l 1
1120 2280 m 0
 1120 2457 1263 2600 1440 2600 c 0
 1617 2600 1760 2457 1760 2280 c 0
 1760 2103 1617 1960 1440 1960 c 0
 1263 1960 1120 2103 1120 2280 c 0
1717 2440 m 0
 1520 2200 l 0
 1406 2291 1218 2320 1120 2320 c 0
 979 2320 920 2160 920 1840 c 1
 360 1840 l 1
 360 2331 640 2640 1200 2640 c 0
 1480 2640 1649 2558 1717 2440 c 0
EndSplineSet
Validated: 5
EndChar

StartChar: quotereversed
Encoding: 8219 8219 268
Width: 800
VWidth: 0
Flags: W
HStem: 1280 1260
VStem: 77 649<2007.53 2429.53>
LayerCount: 2
Fore
SplineSet
406 2540 m 0
 583 2540 726 2397 726 2220 c 0
 726 2057 602 1920 440 1902 c 1
 444 1769 537 1663 834 1425 c 1
 689 1280 l 1
 352 1475 77 1813 77 2149 c 0
 77 2201 83 2252 97 2303 c 0
 135 2443 261 2540 406 2540 c 0
EndSplineSet
Validated: 1
EndChar

StartChar: uni201F
Encoding: 8223 8223 271
Width: 1680
VWidth: 0
Flags: W
HStem: 1280 1260
VStem: 77 649<2007.53 2429.53> 957 649<2007.53 2429.53>
LayerCount: 2
Fore
SplineSet
406 2540 m 0
 583 2540 726 2397 726 2220 c 0
 726 2057 602 1920 440 1902 c 1
 444 1769 537 1663 834 1425 c 1
 689 1280 l 1
 352 1475 77 1813 77 2149 c 0
 77 2201 83 2252 97 2303 c 0
 135 2443 261 2540 406 2540 c 0
1286 2540 m 0
 1463 2540 1606 2397 1606 2220 c 0
 1606 2057 1482 1920 1320 1902 c 1
 1324 1769 1417 1663 1714 1425 c 1
 1569 1280 l 1
 1232 1475 957 1813 957 2149 c 0
 957 2201 963 2252 977 2303 c 0
 1015 2443 1141 2540 1286 2540 c 0
EndSplineSet
Validated: 1
EndChar

StartChar: eth
Encoding: 240 240 284
Width: 2080
VWidth: 0
UnlinkRmOvrlpSave: 1
Flags: W
HStem: -40 320<821.676 1219.4> 1560 320<818.745 1191.04>
VStem: 80 594<497.896 1401.09> 1398 602<514.661 1743.9>
LayerCount: 2
Fore
SplineSet
1038 280 m 1
 1038 -40 l 1
 509 -40 80 340 80 920 c 0
 80 1500 320 1880 880 1880 c 0
 1240 1880 1453 1600 1560 1200 c 1
 1400 1040 l 1
 1400 1320 1200 1560 1038 1560 c 0
 811 1560 674 1405 674 920 c 0
 674 435 811 280 1038 280 c 1
840 2480 m 1
 1200 2640 l 1
 1840 2160 2000 1760 2000 1080 c 0
 2000 280 1612 -40 1038 -40 c 1
 1038 280 l 1
 1262 280 1398 508 1398 1237 c 0
 1398 1966 1120 2320 840 2480 c 1
1889 2560 m 1
 1889 2229 l 1
 790 1934 l 1
 790 2266 l 1
 1889 2560 l 1
EndSplineSet
Validated: 5
EndChar

StartChar: ae
Encoding: 230 230 285
Width: 3181
VWidth: 0
UnlinkRmOvrlpSave: 1
Flags: W
HStem: -46 320<718.626 1186.84 1976.26 2552.56> 722 279<486.5 1217.43> 800 320<1485 1620 1700 2506> 908 212<2506 2580> 1566 314<669.247 1115.86 1931.98 2357.97>
VStem: 80 599<308.622 689.606> 134 640<1179.12 1456.72> 1380 398<381.5 1446.5> 1485 215<1000 1108.76> 1485 135<800 840>
LayerCount: 2
Fore
SplineSet
134 1400 m 4x8a
 134 1577 277 1720 454 1720 c 4
 631 1720 774 1577 774 1400 c 4
 774 1223 631 1080 454 1080 c 4
 277 1080 134 1223 134 1400 c 4x8a
1369 880 m 4
 1277 657 l 4
 1167 701 1057 722 937 722 c 4
 743 722 679 658 679 521 c 5
 80 521 l 5
 80 795 317 1001 656 1001 c 4xcc
 1048 1001 1105 982 1369 880 c 4
1620 840 m 4x8c40
 1620 360 1504 -46 860 -46 c 4
 260 -46 80 197 80 521 c 5
 679 521 l 5
 679 364 723 274 915 274 c 4
 1061 274 1220 400 1277 657 c 4
 1620 840 l 4x8c40
1700 1000 m 5x8880
 1220 320 l 5
 1220 1000 l 6
 1220 1520 1079 1566 866 1566 c 4
 775 1566 683 1520 683 1459 c 5
 228 1626 l 5
 348 1758 541 1880 988 1880 c 4
 1435 1880 1700 1600 1700 1000 c 5x8880
3100 908 m 4x99
 2506 908 l 4
 2506 1383 2370 1560 2143 1560 c 7
 1916 1560 1778 1393 1778 908 c 4
 1778 423 1996 280 2223 280 c 4
 2516 280 2653 398 2743 613 c 5
 3009 521 l 5
 2892 201 2597 -52 2142 -52 c 4
 1613 -52 1380 340 1380 920 c 4
 1380 1500 1613 1880 2142 1880 c 4
 2671 1880 3100 1488 3100 908 c 4x99
1485 1120 m 5xa840
 2580 1120 l 5
 3102 908 l 5x9840
 3077 800 l 5
 1485 800 l 5
 1485 1120 l 5xa840
EndSplineSet
Validated: 5
EndChar

StartChar: oe
Encoding: 339 339 286
Width: 3358
VWidth: 0
UnlinkRmOvrlpSave: 1
Flags: W
HStem: -46 320<815.366 1250.39 2152.61 2728.82> 800 320<1662 2682> 908 212<2682 2757> 1554 320<815.366 1250.39 2090.93 2541.3>
VStem: 80 594<491.896 1336.1> 1557 397<381.5 1446.5> 1662 132<807.638 1096.9>
LayerCount: 2
Fore
SplineSet
1038 1874 m 0x9a
 1567 1874 1794 1494 1794 914 c 0
 1794 334 1567 -46 1038 -46 c 0
 509 -46 80 334 80 914 c 0
 80 1494 509 1874 1038 1874 c 0x9a
1038 1554 m 3
 811 1554 674 1399 674 914 c 0
 674 429 811 274 1038 274 c 0
 1265 274 1394 439 1394 914 c 0
 1394 1389 1265 1554 1038 1554 c 3
3277 908 m 0xbc
 2682 908 l 0
 2682 1383 2547 1560 2320 1560 c 3
 2093 1560 1954 1393 1954 908 c 0
 1954 423 2173 280 2400 280 c 0
 2693 280 2829 398 2919 613 c 1
 3185 521 l 1
 3068 201 2773 -52 2318 -52 c 0
 1789 -52 1557 340 1557 920 c 0
 1557 1500 1789 1880 2318 1880 c 0
 2847 1880 3277 1488 3277 908 c 0xbc
1662 1120 m 1xda
 2757 1120 l 1
 3278 908 l 1xba
 3254 800 l 1
 1662 800 l 1
 1662 1120 l 1xda
EndSplineSet
Validated: 5
EndChar

StartChar: germandbls
Encoding: 223 223 287
Width: 2360
VWidth: 0
UnlinkRmOvrlpSave: 1
Flags: W
HStem: -40 320<1230.72 1585.22> 0 320<80 280> 1280 320<1000 1400> 1400 80<1000 1754> 2360 280<977.384 1404.1>
VStem: 280 560<320 2218.12> 920 640<623.509 860.885> 1480 600<1679.63 2269.52> 1680 600<376.28 1094.85>
LayerCount: 2
Fore
SplineSet
1200 2640 m 0x6d
 1682 2640 2080 2400 2080 1920 c 0
 2080 1520 1754 1400 1480 1400 c 2
 1000 1400 l 1x5d
 1000 1600 l 1
 1200 1600 l 2
 1400 1600 1480 1760 1480 1960 c 0
 1480 2240 1400 2360 1200 2360 c 0
 1028 2360 840 2200 840 2000 c 2
 840 0 l 1
 80 0 l 1
 80 320 l 1
 280 320 l 1
 280 1840 l 2
 280 2440 720 2640 1200 2640 c 0x6d
1446 1480 m 2
 2055 1469 2280 1175 2280 720 c 0
 2280 240 2040 -40 1560 -40 c 0
 1160 -40 920 160 920 640 c 1
 1240 560 l 1
 1240 360 1320 280 1440 280 c 0
 1515 280 1680 360 1680 720 c 0
 1680 1120 1480 1280 1240 1280 c 2
 1000 1280 l 1xae80
 1000 1480 l 1
 1446 1480 l 2
1560 640 m 0
 1560 463 1417 320 1240 320 c 0x4e
 1063 320 920 463 920 640 c 0
 920 817 1063 960 1240 960 c 0
 1417 960 1560 817 1560 640 c 0
EndSplineSet
Validated: 5
EndChar

StartChar: uni0292
Encoding: 658 658 288
Width: 1920
VWidth: 0
UnlinkRmOvrlpSave: 1
Flags: W
HStem: -800 320<554.676 1079.71> -640 21G<282.5 437.5> 1520 320<440 1008>
VStem: 80 560<-402.724 -157.186> 120 320<1040 1520> 1240 600<-314.515 392.521>
LayerCount: 2
Fore
SplineSet
1046 863 m 7xa4
 1655 863 1840 535 1840 80 c 0
 1840 -520 1512 -800 832 -800 c 0
 312 -800 193 -630 118 -500 c 1
 534 -407 l 1
 556 -441 697 -480 832 -480 c 0
 973 -480 1240 -400 1240 0 c 0
 1240 388 1134 542 724 542 c 0
 632 542 525 535 400 520 c 1
 758 840 l 1
 863 855 959 863 1046 863 c 7xa4
640 -360 m 0x74
 640 -515 515 -640 360 -640 c 0
 205 -640 80 -515 80 -360 c 0
 80 -205 205 -80 360 -80 c 0
 515 -80 640 -205 640 -360 c 0x74
120 1840 m 1x2c
 1720 1840 l 1
 1720 1656 l 1
 1042 800 l 1
 400 520 l 1
 400 680 l 1
 887 1360 l 2
 924 1412 961 1462 1008 1520 c 1
 440 1520 l 1
 440 1040 l 1
 120 1040 l 1
 120 1840 l 1x2c
EndSplineSet
Validated: 5
EndChar

StartChar: thorn
Encoding: 254 254 289
Width: 4096
VWidth: 0
UnlinkRmOvrlpSave: 1
Flags: W
HStem: -640 320<13000 13200 13760 13960> -40 371<13924 14335.3> 1520 360<14014.1 14610> 2160 320<13000 13200>
VStem: 13200 440<203.844 858.147> 13640 44<648 858.147> 13657 103<295 811.647 1261 1290.35> 14489 602<499.568 1319.03>
LayerCount: 2
Fore
SplineSet
13000 2480 m 5xfb
 13760 2480 l 5
 13760 -320 l 5
 13960 -320 l 5
 13960 -640 l 5
 13000 -640 l 5
 13000 -320 l 5
 13200 -320 l 5
 13200 2160 l 5
 13000 2160 l 5
 13000 2480 l 5xfb
14372 1880 m 4
 14848 1880 15091 1507 15091 919 c 4
 15091 331 14754 -40 14294 -40 c 4
 13900 -40 13723 203 13657 295 c 5
 13640 720 l 5xfb
 13684 932 l 5xf5
 13704 648 13828 331 14099 331 c 4
 14370 331 14489 557 14489 926 c 4
 14489 1295 14309 1520 14112 1520 c 4
 13915 1520 13800 1355 13682 1095 c 5
 13760 1520 l 5
 13667 1261 l 5
 13699 1520 13896 1880 14372 1880 c 4
EndSplineSet
Validated: 5
EndChar

StartChar: periodcentered
Encoding: 183 183 290
Width: 800
VWidth: 0
Flags: W
HStem: 600 640<179.115 620.885>
VStem: 80 640<699.115 1140.88>
LayerCount: 2
Fore
SplineSet
400 1240 m 4
 577 1240 720 1097 720 920 c 4
 720 743 577 600 400 600 c 4
 223 600 80 743 80 920 c 4
 80 1097 223 1240 400 1240 c 4
EndSplineSet
Validated: 1
EndChar

StartChar: bullet
Encoding: 8226 8226 291
Width: 1280
VWidth: 0
Flags: W
HStem: 360 1120<338.289 941.711>
VStem: 80 1120<618.289 1221.71>
LayerCount: 2
Fore
SplineSet
640 1480 m 4
 949 1480 1200 1229 1200 920 c 4
 1200 611 949 360 640 360 c 4
 331 360 80 611 80 920 c 4
 80 1229 331 1480 640 1480 c 4
EndSplineSet
Validated: 1
EndChar

StartChar: uni0251
Encoding: 593 593 292
Width: 2250
VWidth: 0
UnlinkRmOvrlpSave: 1
Flags: W
HStem: -40 360<591.733 1156.94> 0 320<1971 2171> 1820 20G<1692.56 1971>
VStem: 80 601<526.367 1340.43> 1411 103<549.65 579 920 920> 1486 45<920 1192>
LayerCount: 2
Fore
SplineSet
1396 298 m 5x78
 1411 320 l 5
 1411 1520 l 5
 1491 1520 l 5
 1706 1840 l 5
 1971 1840 l 5
 1971 320 l 5
 2171 320 l 5
 2171 0 l 5
 1550 0 l 5
 1396 298 l 5x78
799 -40 m 4xb8
 323 -40 80 333 80 921 c 4
 80 1509 417 1880 877 1880 c 4
 1271 1880 1448 1637 1514 1545 c 5xb8
 1531 920 l 5
 1486 908 l 5
 1466 1192 1343 1509 1072 1509 c 4
 801 1509 681 1283 681 914 c 4
 681 545 862 320 1059 320 c 4xb4
 1256 320 1371 485 1489 745 c 5
 1411 320 l 5x78
 1504 579 l 5
 1472 320 1275 -40 799 -40 c 4xb8
EndSplineSet
Validated: 5
EndChar

StartChar: uni1E9E
Encoding: 7838 7838 293
Width: 2840
VWidth: 0
UnlinkRmOvrlpSave: 1
Flags: W
HStem: -40 320<1592.93 2095.28> 0 320<80 1040> 320 320<1343 1520> 2200 320<1321.57 1972.15>
VStem: 400 640<320 1910.39> 1200 640<463 860.885> 1200 320<463 640> 2160 640<364.072 884.191>
LayerCount: 2
Fore
SplineSet
1600 2520 m 0x59
 2117 2520 2332 2274 2520 1952 c 1
 1884 1528 l 1
 1415 1603 l 1
 2059 2030 l 1
 1960 2156 1834 2200 1640 2200 c 0
 1440 2200 1040 2087 1040 1560 c 2
 1040 320 l 1
 400 320 l 1
 400 1560 l 2
 400 2200 840 2520 1600 2520 c 0x59
80 0 m 1
 80 320 l 1
 1040 320 l 1
 1040 0 l 1
 80 0 l 1
1415 1603 m 1
 1974 1791 l 1
 2120 1280 2800 1360 2800 720 c 0
 2800 280 2440 -40 1960 -40 c 0
 1680 -40 1200 131 1200 640 c 1xbd
 1520 640 l 1xbb
 1520 400 1640 280 1840 280 c 0xbd
 2040 280 2160 360 2160 560 c 0
 2160 1158 1680 880 1415 1603 c 1
1840 640 m 0
 1840 463 1697 320 1520 320 c 0x3b
 1343 320 1200 463 1200 640 c 0x3d
 1200 817 1343 960 1520 960 c 0x3b
 1697 960 1840 817 1840 640 c 0
EndSplineSet
Validated: 5
EndChar

StartChar: AE
Encoding: 198 198 294
Width: 3900
VWidth: 0
UnlinkRmOvrlpSave: 1
Flags: W
HStem: 0 320<1560 1880 2520 3352.16> 640 320<760 2000> 960 320<2520 2880> 2160 320<1160 1560 2520 3312.16>
VStem: 1880 640<320 640 1280 2160> 1880 120<640 960> 2880 320<600 960 1280 1640> 3360 360<1680 2130.52> 3400 360<349.48 800>
LayerCount: 2
Fore
SplineSet
1160 2480 m 1xda80
 3720 2480 l 1
 3720 1680 l 1
 3360 1680 l 1
 3360 1840 l 2
 3360 1959 3320 2160 3200 2160 c 2
 2520 2160 l 1
 2520 1280 l 1
 2880 1280 l 1
 2880 1640 l 1
 3200 1640 l 1
 3200 600 l 1
 2880 600 l 1
 2880 960 l 1
 2520 960 l 1xbb
 2520 320 l 1
 3240 320 l 2
 3360 320 3400 521 3400 640 c 2
 3400 800 l 1
 3760 800 l 1
 3760 0 l 1
 1560 0 l 1
 1560 320 l 1
 1880 320 l 1
 1880 2160 l 1
 1160 2160 l 1
 1160 2480 l 1xda80
40 320 m 5
 40 0 l 1
 1320 0 l 1
 1320 320 l 5
 40 320 l 5
760 640 m 1xd6
 760 960 l 1
 2000 960 l 1
 2000 640 l 1
 760 640 l 1xd6
360 320 m 1
 1560 2480 l 1
 2000 2480 l 1
 800 320 l 1
 360 320 l 1
EndSplineSet
Validated: 5
EndChar

StartChar: uni01B7
Encoding: 439 439 295
Width: 2156
VWidth: 0
UnlinkRmOvrlpSave: 1
Flags: W
HStem: -40 320<479.352 1249.3> 320 320<203 380> 2160 320<507.836 1218>
VStem: 60 640<463 860.885> 60 320<463 640> 100 360<1680 2130.52> 1456 640<463.967 1060.33>
LayerCount: 2
Fore
SplineSet
100 2480 m 5xe6
 2020 2480 l 5
 2020 2240 l 5
 1384 1400 l 5
 944 1336 l 5
 677 1280 l 5
 677 1440 l 5
 1218 2160 l 5
 620 2160 l 6
 500 2160 460 1959 460 1840 c 6
 460 1680 l 5
 100 1680 l 5
 100 2480 l 5xe6
940 1280 m 6
 677 1280 l 5
 1220 1560 l 5
 1900 1560 2096 1160 2096 720 c 4
 2096 280 1740 -40 1020 -40 c 4
 500 -40 60 131 60 640 c 5xf2
 380 640 l 5xea
 380 400 500 280 900 280 c 4
 1260 280 1456 483 1456 683 c 4
 1456 936 1380 1280 940 1280 c 6
700 640 m 4
 700 463 557 320 380 320 c 4xea
 203 320 60 463 60 640 c 4xf2
 60 817 203 960 380 960 c 4xea
 557 960 700 817 700 640 c 4
EndSplineSet
Validated: 5
EndChar

StartChar: OE
Encoding: 338 338 296
Width: 4000
VWidth: 0
UnlinkRmOvrlpSave: 1
Flags: W
HStem: -40 320<1128.91 1664.43> 0 320<2640 3472.16> 960 320<2640 3000> 2160 320<2640 3432.16> 2200 320<1126.12 1683.15>
VStem: 80 720<766.786 1713.21> 2000 640<320 960 1280 1280> 2000 320<600 1880> 3000 320<600 960 1280 1640> 3480 360<1680 2130.52> 3520 360<349.48 800>
LayerCount: 2
Fore
SplineSet
1400 2520 m 4xad80
 2254 2520 2320 1880 2320 1240 c 4
 2320 600 2254 -40 1400 -40 c 4
 546 -40 80 600 80 1240 c 4
 80 1880 546 2520 1400 2520 c 4xad80
1400 2200 m 4
 988 2200 800 1767 800 1240 c 4
 800 713 1001 280 1400 280 c 4
 1799 280 2000 713 2000 1240 c 4
 2000 1767 1812 2200 1400 2200 c 4
2000 2480 m 5x75a0
 3840 2480 l 5
 3840 1680 l 5
 3480 1680 l 5
 3480 1840 l 6
 3480 1959 3440 2160 3320 2160 c 6
 2640 2160 l 5
 2640 1280 l 5
 3000 1280 l 5
 3000 1640 l 5
 3320 1640 l 5
 3320 600 l 5
 3000 600 l 5
 3000 960 l 5
 2640 960 l 5
 2640 320 l 5x76c0
 3360 320 l 6
 3480 320 3520 521 3520 640 c 6
 3520 800 l 5
 3880 800 l 5
 3880 0 l 5
 2000 0 l 5
 2000 2480 l 5x75a0
EndSplineSet
Validated: 5
EndChar

StartChar: paragraph
Encoding: 182 182 297
Width: 2320
VWidth: 0
Flags: W
HStem: -640 21G<1120 1440 1680 2000> 2160 320<1440 1680 2000 2240>
VStem: 80 1360<1138.52 1981.48> 1120 320<-640 640> 1680 320<-640 2160>
LayerCount: 2
Fore
SplineSet
1040 2480 m 6xe8
 2240 2480 l 5
 2240 2160 l 5
 2000 2160 l 5
 2000 -640 l 5
 1680 -640 l 5
 1680 2160 l 5
 1440 2160 l 5
 1440 -640 l 5
 1120 -640 l 5
 1120 640 l 5xd8
 1040 640 l 6
 480 640 80 1000 80 1560 c 4
 80 2120 480 2480 1040 2480 c 6xe8
EndSplineSet
Validated: 1
EndChar

StartChar: Thorn
Encoding: 222 222 298
Width: 2479
VWidth: 0
UnlinkRmOvrlpSave: 1
Flags: W
HStem: 0 320<80 400 1040 1440> 480 320<1040 1531.08> 1680 320<1040 1547.05> 2160 320<80 400 1040 1440>
VStem: 400 640<320 480 800 1680 2000 2160> 1680 720<948.617 1559.72>
LayerCount: 2
Fore
SplineSet
80 2480 m 5
 1440 2480 l 5
 1440 2160 l 5
 1040 2160 l 5
 1040 2000 l 5
 1120 2000 l 6
 1840 2000 2040 1944 2224 1760 c 4
 2343 1641 2400 1454 2400 1260 c 4
 2400 680 1870 480 1200 480 c 6
 1040 480 l 5
 1040 320 l 5
 1440 320 l 5
 1440 0 l 5
 80 0 l 5
 80 320 l 5
 400 320 l 5
 400 2160 l 5
 80 2160 l 5
 80 2480 l 5
1040 1680 m 5
 1040 800 l 5
 1200 800 l 6
 1560 800 1680 980 1680 1240 c 4
 1680 1480 1600 1680 1280 1680 c 6
 1040 1680 l 5
EndSplineSet
Validated: 1
EndChar

StartChar: Eth
Encoding: 208 208 299
Width: 2780
VWidth: 0
UnlinkRmOvrlpSave: 1
Flags: HW
HStem: 0 320<120 440 1080 1709.08> 960 320<120 1560> 2160 320<120 440 1080 1711.09>
VStem: 440 640<320 2160> 2040 720<774.958 1705.04>
LayerCount: 2
Fore
SplineSet
120 1280 m 5
 1560 1280 l 5
 1560 960 l 5
 120 960 l 5
 120 1280 l 5
EndSplineSet
Refer: 36 68 N 1 0 0 1 0 0 2
EndChar

StartChar: Tbar
Encoding: 358 358 300
Width: 2520
VWidth: 0
UnlinkRmOvrlpSave: 1
Flags: HW
HStem: 0 320<620 940 1580 1900> 960 320<520 2000> 1680 800<100 460 2060 2420> 2160 320<507.836 940 1580 2012.16>
VStem: 100 360<1680 2130.52> 940 640<320 2160> 2060 360<1680 2130.52>
CounterMasks: 1 0e
LayerCount: 2
Fore
SplineSet
520 1280 m 1xce
 2000 1280 l 1
 2000 960 l 1
 520 960 l 1
 520 1280 l 1xce
EndSplineSet
Refer: 52 84 N 1 0 0 1 0 0 3
EndChar

StartChar: tbar
Encoding: 359 359 301
Width: 1560
VWidth: 0
UnlinkRmOvrlpSave: 1
Flags: W
HStem: -40 360<858.876 1180.74> 960 320<80 1400> 1520 320<80 277.248 840 1400>
VStem: 280 560<339.094 1520> 1240 240<381.809 524.779>
LayerCount: 2
Fore
SplineSet
80 1280 m 5
 1400 1280 l 5
 1400 960 l 5
 80 960 l 5
 80 1280 l 5
EndSplineSet
Refer: 92 116 N 1 0 0 1 0 0 3
Validated: 5
EndChar

StartChar: Lslash
Encoding: 321 321 303
Width: 2360
VWidth: 0
UnlinkRmOvrlpSave: 1
Flags: HW
HStem: 0 320<120 440 1080 1832.16> 2160 320<120 440 1080 1480>
VStem: 440 640<320 2160> 1880 360<349.48 960>
LayerCount: 2
Fore
SplineSet
1309 1320 m 5
 1309 989 l 5
 210 694 l 5
 210 1026 l 5
 1309 1320 l 5
EndSplineSet
Refer: 44 76 N 1 0 0 1 0 0 3
EndChar

StartChar: lslash
Encoding: 322 322 304
Width: 1120
VWidth: 0
UnlinkRmOvrlpSave: 1
Flags: W
HStem: 0 320<80 280 840 1040> 2160 320<80 280>
VStem: 280 560<320 2160>
LayerCount: 2
Fore
SplineSet
1009 1280 m 1
 1009 949 l 1
 110 694 l 1
 110 1026 l 1
 1009 1280 l 1
EndSplineSet
Refer: 90 108 N 1 0 0 1 0 0 3
Validated: 5
EndChar

StartChar: Euro
Encoding: 8364 8364 305
Width: 2785
VWidth: 0
UnlinkRmOvrlpSave: 1
Flags: W
HStem: -40 320<1404.53 1993.34> 880 320<166 1537> 1360 320<166 1666> 2200 320<1366.78 2004.29>
VStem: 286 720<766.786 1523.81> 2366 320<706.061 927.168>
LayerCount: 2
Fore
SplineSet
1606 2520 m 0
 1964 2520 2247 2417 2446 2240 c 0
 2612 2093 2686 1960 2686 1720 c 1
 2206 1800 l 1
 2125 2108 1935 2200 1646 2200 c 0
 1234 2200 1006 1767 1006 1240 c 0
 1006 713 1287 280 1686 280 c 0
 2029 280 2317 576 2366 1000 c 1
 2686 920 l 1
 2579 399 2320 -40 1606 -40 c 0
 752 -40 286 600 286 1240 c 0
 286 1880 752 2520 1606 2520 c 0
2046 1720 m 0
 2046 1897 2189 2040 2366 2040 c 0
 2543 2040 2686 1897 2686 1720 c 0
 2686 1543 2543 1400 2366 1400 c 0
 2189 1400 2046 1543 2046 1720 c 0
1751 1680 m 1
 1666 1360 l 1
 80 1360 l 1
 166 1680 l 1
 1751 1680 l 1
1623 1200 m 1
 1537 880 l 1
 80 880 l 1
 166 1200 l 1
 1623 1200 l 1
EndSplineSet
Validated: 5
EndChar

StartChar: sterling
Encoding: 163 163 306
Width: 2360
VWidth: 0
UnlinkRmOvrlpSave: 1
Flags: W
HStem: 0 480<1543.83 1931.98> 200 440<772.475 1327.48> 880 320<166 1314> 1360 320<166 1314> 1840 320<1880 2057> 2200 320<1189.17 1740.48>
VStem: 360 640<1443.31 2013.63> 480 560<874.404 1355.26> 1560 640<1619.12 2017> 1880 320<1840 2017> 1960 320<503.369 800>
LayerCount: 2
Fore
SplineSet
320 160 m 1xbd
 280 0 l 1
 120 320 l 1
 360 480 480 640 480 880 c 0xbd
 480 1200 360 1360 360 1720 c 7
 360 2211 760 2520 1320 2520 c 0
 1680 2520 2200 2302 2200 1840 c 1xbe80
 1880 1840 l 1
 1880 2080 1680 2200 1440 2200 c 0
 1240 2200 1000 2040 1000 1720 c 0xbe40
 1000 1520 1040 1400 1040 1240 c 0
 1040 840 680 360 320 160 c 1xbd
1560 1840 m 0x3c80
 1560 2017 1703 2160 1880 2160 c 0x3c40
 2057 2160 2200 2017 2200 1840 c 0x3c80
 2200 1663 2057 1520 1880 1520 c 0x3c40
 1703 1520 1560 1663 1560 1840 c 0x3c80
200 240 m 0
 623 578 960 640 1240 640 c 0x7d20
 1520 640 1640 480 1760 480 c 0
 1920 480 1960 502 1960 800 c 1
 2280 800 l 1
 2280 200 2200 0 1760 0 c 0xbd20
 1360 0 1320 200 1040 200 c 0x7d20
 760 200 499 151 280 0 c 0xbd20
 200 240 l 0
1400 1680 m 1
 1314 1360 l 1
 80 1360 l 1
 166 1680 l 1
 1400 1680 l 1
1400 1200 m 1
 1314 880 l 1
 80 880 l 1
 166 1200 l 1
 1400 1200 l 1
EndSplineSet
Validated: 5
EndChar

StartChar: yen
Encoding: 165 165 307
Width: 2840
VWidth: 0
UnlinkRmOvrlpSave: 1
Flags: W
HStem: 0 320<756 1076 1716 2036> 520 320<580 2169> 1000 320<580 1076 1356 2169> 2160 320<80 1360 1680 2221 2480 2760>
VStem: 1076 640<320 1320>
LayerCount: 2
Fore
SplineSet
80 2480 m 1
 1360 2480 l 1
 1360 2160 l 1
 80 2160 l 1
 80 2480 l 1
1680 2480 m 1
 2760 2480 l 1
 2760 2160 l 1
 1680 2160 l 1
 1680 2480 l 1
2221 2348 m 1
 2480 2160 l 1
 1615 970 l 1
 1356 1159 l 1
 2221 2348 l 1
1135 1040 m 1
 320 2160 l 1
 1111 2160 l 1
 1652 1416 l 1
 1135 1040 l 1
1076 1320 m 1
 1716 1320 l 1
 1716 320 l 1
 2036 320 l 1
 2036 0 l 1
 756 0 l 1
 756 320 l 1
 1076 320 l 1
 1076 1320 l 1
2255 1320 m 1
 2169 1000 l 1
 495 1000 l 1
 580 1320 l 1
 2255 1320 l 1
2255 840 m 1
 2169 520 l 1
 495 520 l 1
 580 840 l 1
 2255 840 l 1
EndSplineSet
Validated: 5
EndChar

StartChar: plusminus
Encoding: 177 177 308
Width: 1680
VWidth: 0
Flags: W
HStem: 240 320<80 1600> 1320 320<80 680 1000 1600>
VStem: 680 320<720 1320 1640 2240>
LayerCount: 2
Fore
SplineSet
680 2240 m 5
 1000 2240 l 5
 1000 1640 l 5
 1600 1640 l 5
 1600 1320 l 5
 1000 1320 l 5
 1000 720 l 5
 680 720 l 5
 680 1320 l 5
 80 1320 l 5
 80 1640 l 5
 680 1640 l 5
 680 2240 l 5
80 560 m 5
 1600 560 l 5
 1600 240 l 5
 80 240 l 5
 80 560 l 5
EndSplineSet
Validated: 1
EndChar

StartChar: fraction
Encoding: 8260 8260 309
Width: 1013
VWidth: 0
Flags: W
HStem: 0 21G<-640 -167> 1820 20G<1180 1653>
LayerCount: 2
Fore
SplineSet
1200 1840 m 1
 1653 1840 l 1
 -187 0 l 1
 -640 0 l 1
 1200 1840 l 1
EndSplineSet
Validated: 1
EndChar

StartChar: uni00B9
Encoding: 185 185 311
Width: 1360
VWidth: 0
Flags: W
HStem: 1040 320<80 400 960 1280> 2000 320<80 393.882>
VStem: 400 560<1360 2000>
LayerCount: 2
Fore
SplineSet
560 2640 m 5
 960 2640 l 5
 960 1360 l 5
 1280 1360 l 5
 1280 1040 l 5
 80 1040 l 5
 80 1360 l 5
 400 1360 l 5
 400 2000 l 5
 80 2000 l 5
 80 2320 l 5
 160 2320 l 6
 320 2320 400 2363 560 2640 c 5
EndSplineSet
Validated: 1
EndChar

StartChar: uni00B2
Encoding: 178 178 312
Width: 1760
VWidth: 0
UnlinkRmOvrlpSave: 1
Flags: W
HStem: 1040 640<1320 1680> 1040 400<600 1320> 2360 320<448.059 1105.56>
VStem: 80 560<1957.19 2315> 1120 560<2078.78 2327.81> 1320 360<1440 1680>
LayerCount: 2
Fore
SplineSet
80 1040 m 1x74
 560 1440 l 1
 1320 1440 l 1x74
 1320 1680 l 1
 1680 1680 l 1
 1680 1040 l 1xb4
 80 1040 l 1x74
80 2160 m 1
 80 2440 400 2680 760 2680 c 0
 1460 2680 1680 2560 1680 2200 c 0
 1680 1760 600 1520 600 1360 c 1
 387 1197 80 1040 80 1040 c 1
 80 1600 480 1800 840 1960 c 0
 972 2019 1120 2120 1120 2200 c 0x78
 1120 2320 1048 2360 760 2360 c 0
 554 2360 386 2213 386 2095 c 1
 80 2160 l 1
80 2160 m 0
 80 2315 205 2440 360 2440 c 0
 515 2440 640 2315 640 2160 c 0
 640 2005 515 1880 360 1880 c 0
 205 1880 80 2005 80 2160 c 0
EndSplineSet
Validated: 5
EndChar

StartChar: uni00B3
Encoding: 179 179 313
Width: 1840
VWidth: 0
UnlinkRmOvrlpSave: 1
Flags: W
HStem: 1000 320<464.385 1150.93> 1680 320<760 1160> 1840 40<760 1440> 2360 320<513.672 1134.42>
VStem: 80 560<1512.76 1722.81> 1160 560<2015.07 2333.03> 1200 560<1365.52 1663.05>
LayerCount: 2
Fore
SplineSet
80 1520 m 0x98
 80 1675 205 1800 360 1800 c 0
 515 1800 640 1675 640 1520 c 0
 640 1365 515 1240 360 1240 c 0
 205 1240 80 1365 80 1520 c 0x98
80 1520 m 1
 514 1477 l 1
 514 1361 665 1320 880 1320 c 0
 1080 1320 1200 1360 1200 1560 c 0
 1200 1640 1160 1680 960 1680 c 2
 760 1680 l 1xda
 760 1880 l 1
 1160 1880 l 2xbc
 1640 1880 1760 1760 1760 1520 c 0xba
 1760 1200 1560 1000 960 1000 c 0
 260 1000 80 1240 80 1520 c 1
120 2160 m 0
 120 2315 245 2440 400 2440 c 0
 555 2440 680 2315 680 2160 c 0
 680 2005 555 1880 400 1880 c 0xb8
 245 1880 120 2005 120 2160 c 0
120 2160 m 1
 120 2440 320 2680 960 2680 c 0
 1520 2680 1720 2440 1720 2200 c 0
 1720 1960 1440 1840 1160 1840 c 2
 760 1840 l 1xbc
 760 2000 l 1
 960 2000 l 2
 1160 2000 1160 2080 1160 2160 c 0xdc
 1160 2320 1080 2360 880 2360 c 0
 679 2360 590 2324 590 2225 c 1
 120 2160 l 1
EndSplineSet
Validated: 5
EndChar

StartChar: uni2074
Encoding: 8308 8308 314
Width: 1760
VWidth: 0
Flags: W
HStem: 1040 320<640 1000 1480 1680> 1440 320<520 1000 1480 1680>
VStem: 1000 480<1360 1440 1760 2110.72>
LayerCount: 2
Fore
SplineSet
720 2640 m 5
 1280 2640 l 5
 1120 2240 800 1920 520 1760 c 5
 1000 1760 l 5
 1000 2040 l 5
 1120 2120 1200 2240 1240 2320 c 5
 1480 2320 l 5
 1480 1760 l 5
 1680 1760 l 5
 1680 1440 l 5
 1480 1440 l 5
 1480 1360 l 5
 1680 1360 l 5
 1680 1040 l 5
 640 1040 l 5
 640 1360 l 5
 1000 1360 l 5
 1000 1440 l 5
 80 1440 l 5
 80 1760 l 5
 360 2000 600 2320 720 2640 c 5
EndSplineSet
Validated: 1
EndChar

StartChar: underscore
Encoding: 95 95 319
Width: 1680
VWidth: 0
Flags: W
HStem: -800 320<80 1600>
LayerCount: 2
Fore
SplineSet
80 -480 m 5
 1600 -480 l 5
 1600 -800 l 5
 80 -800 l 5
 80 -480 l 5
EndSplineSet
Validated: 1
EndChar

StartChar: braceleft
Encoding: 123 123 320
Width: 1480
VWidth: 0
UnlinkRmOvrlpSave: 1
Flags: W
HStem: -800 320<840 1329.78> 760 320<80 600> 2320 320<840 1329.78>
VStem: 400 560<-417.767 731.017 1108.98 2257.77>
CounterMasks: 1 e0
LayerCount: 2
Fore
SplineSet
1000 2640 m 4
 1200 2640 1327 2612 1400 2560 c 5
 1312 2288 l 5
 1289 2311 1217 2320 1160 2320 c 4
 1067 2320 960 2200 960 2080 c 6
 960 1320 l 6
 960 1040 880 955 600 880 c 5
 600 760 l 5
 80 760 l 5
 80 1080 l 5
 200 1080 l 6
 334 1080 400 1176 400 1280 c 6
 400 2040 l 6
 400 2400 680 2640 1000 2640 c 4
1000 -800 m 4
 680 -800 400 -560 400 -200 c 6
 400 560 l 6
 400 664 334 760 200 760 c 6
 80 760 l 5
 80 1080 l 5
 600 1080 l 5
 600 960 l 5
 880 885 960 800 960 520 c 6
 960 -240 l 6
 960 -360 1067 -480 1160 -480 c 4
 1217 -480 1289 -471 1312 -448 c 5
 1400 -720 l 5
 1327 -772 1200 -800 1000 -800 c 4
EndSplineSet
Validated: 5
EndChar

StartChar: currency
Encoding: 164 164 321
Width: 2368
VWidth: 0
UnlinkRmOvrlpSave: 1
Flags: HW
HStem: 293 320<907.52 1460.48> 1560 333<889.142 1478.86>
VStem: 384 320<816.52 1369.48> 1664 320<816.52 1369.48>
LayerCount: 2
Fore
SplineSet
1184 1893 m 0
 1626 1893 1984 1535 1984 1093 c 0
 1984 651 1626 293 1184 293 c 0
 742 293 384 651 384 1093 c 0
 384 1535 742 1893 1184 1893 c 0
1184 1573 m 0
 919 1573 704 1358 704 1093 c 0
 704 828 919 613 1184 613 c 0
 1449 613 1664 828 1664 1093 c 0
 1664 1358 1449 1573 1184 1573 c 0
2048 2224 m 0
 2181 2224 2288 2117 2288 1984 c 0
 2288 1918 2261 1857 2218 1814 c 0
 2057 1653 1935 1758 1737 1560 c 1
 1624 1560 l 1
 1624 1673 l 1
 1822 1871 1717 1993 1878 2154 c 0
 1921 2197 1982 2224 2048 2224 c 0
2288 256 m 0
 2288 123 2181 16 2048 16 c 0
 1982 16 1921 43 1878 86 c 0
 1717 247 1822 369 1624 567 c 1
 1624 680 l 1
 1737 680 l 1
 1935 482 2057 587 2218 426 c 0
 2261 383 2288 322 2288 256 c 0
320 16 m 0
 187 16 80 123 80 256 c 0
 80 322 107 383 150 426 c 0
 311 587 433 482 631 680 c 1
 744 680 l 1
 744 567 l 1
 546 369 651 247 490 86 c 0
 447 43 386 16 320 16 c 0
80 1984 m 0
 80 2117 187 2224 320 2224 c 0
 386 2224 447 2197 490 2154 c 0
 651 1993 546 1871 744 1673 c 1
 744 1560 l 1
 631 1560 l 1
 433 1758 311 1653 150 1814 c 0
 107 1857 80 1918 80 1984 c 0
EndSplineSet
EndChar

StartChar: uni20B7
Encoding: 8375 8375 322
Width: 3060
VWidth: 0
UnlinkRmOvrlpSave: 1
Flags: W
HStem: 0 280<1040 1280 1440 1760> 760 320<404.367 549.224 844.631 1123.5 1334.63 1640> 1840 320<2560 2737> 2200 320<2010.83 2453.03>
VStem: 80 320<484.896 750.895> 1280 160<0 254.862> 1320 640<1671.77 2133.12> 1513 325<404.743 755.962> 2240 640<1619.12 2017> 2280 640<411.03 808.228>
LayerCount: 2
Fore
SplineSet
2080 2520 m 0xfa40
 2513 2520 2880 2294 2880 1840 c 1xfa80
 2560 1840 l 1
 2438 2007 l 1
 2438 2135 2296 2200 2200 2200 c 0
 2040 2200 1960 2120 1960 1920 c 0
 1960 1322 2920 1554 2920 720 c 0
 2920 280 2440 -40 1880 -40 c 0
 800 -40 80 131 80 640 c 1
 400 640 l 1
 400 360 1040 280 1760 280 c 0
 2040 280 2280 360 2280 560 c 0
 2280 1158 1320 926 1320 1760 c 0
 1320 2200 1640 2520 2080 2520 c 0xfa40
2240 1840 m 0
 2240 2017 2383 2160 2560 2160 c 0
 2737 2160 2880 2017 2880 1840 c 0
 2880 1663 2737 1520 2560 1520 c 0
 2383 1520 2240 1663 2240 1840 c 0
472 1080 m 0
 717 1080 769 962 800 800 c 1
 867 800 l 1
 873 770 876 739 876 707 c 0
 876 685 874 663 872 640 c 2
 800 0 l 1
 480 0 l 1
 552 640 l 2
 553 648 553 655 553 662 c 0
 553 728 516 760 472 760 c 0
 432 760 400 720 400 640 c 1
 80 640 l 1
 80 920 272 1080 472 1080 c 0
1000 1080 m 0
 1214 1080 1264 962 1280 800 c 1
 1355 800 l 1
 1357 781 1358 761 1358 740 c 0
 1358 708 1356 674 1352 640 c 2
 1280 0 l 1xfc
 960 0 l 1
 1032 640 l 2
 1033 648 1033 655 1033 662 c 0
 1033 728 996 760 952 760 c 0
 912 760 872 720 872 640 c 1
 720 760 l 1
 720 960 880 1080 1000 1080 c 0
1520 1080 m 0
 1760 1080 1838 931 1838 738 c 0
 1838 706 1836 674 1832 640 c 2
 1760 0 l 1
 1440 0 l 1
 1512 640 l 2
 1513 648 1513 655 1513 662 c 0xfd
 1513 728 1476 760 1432 760 c 0
 1392 760 1352 720 1352 640 c 1
 1200 760 l 1
 1200 960 1400 1080 1520 1080 c 0
EndSplineSet
Validated: 5
EndChar

StartChar: section
Encoding: 167 167 323
Width: 2200
VWidth: 0
UnlinkRmOvrlpSave: 1
Flags: W
HStem: -800 320<804.496 1329.4> -640 280<445 755> 2240 280<1405 1715> 2360 280<860.225 1354.3>
VStem: 80 560<649.484 1275.3> 320 560<-515 -157.186> 360 480<2036.87 2330.51> 1280 560<2037.19 2395> 1360 520<-441.222 -123.815> 1560 560<627.563 1193.27>
LayerCount: 2
Fore
SplineSet
1280 2240 m 0x21
 1280 2395 1405 2520 1560 2520 c 0x2040
 1715 2520 1840 2395 1840 2240 c 0x21
 1840 2085 1715 1960 1560 1960 c 0x2040
 1405 1960 1280 2085 1280 2240 c 0x21
1360 -280 m 0x8480
 1360 -71 1084 -56 825 24 c 0
 400 155 80 440 80 880 c 0
 80 1280 320 1640 800 1800 c 1
 1000 1640 l 1
 800 1540 640 1260 640 1000 c 0
 640 680 761 490 1176 376 c 0
 1481 292 1880 222 1880 -200 c 0
 1880 -680 1480 -800 1002 -800 c 0x8880
 600 -800 320 -640 320 -360 c 1
 800 -360 l 1x4480
 840 -429 880 -480 1040 -480 c 0
 1320 -480 1360 -411 1360 -280 c 0x8480
1400 80 m 0
 1200 280 l 0
 1440 400 1560 720 1560 960 c 0
 1560 1160 1360 1440 825 1584 c 0
 587 1648 360 1756 360 2080 c 0
 360 2560 760 2640 1158 2640 c 0x1240
 1600 2640 1840 2440 1840 2240 c 1x23
 1360 2240 l 1x2080
 1320 2309 1280 2360 1120 2360 c 0
 948 2360 840 2331 840 2200 c 0
 840 2048 990 1987 1176 1936 c 0
 1732 1785 2120 1480 2120 1080 c 0x1240
 2120 449 1720 200 1400 80 c 0
320 -360 m 0x44
 320 -205 445 -80 600 -80 c 0
 755 -80 880 -205 880 -360 c 0
 880 -515 755 -640 600 -640 c 0
 445 -640 320 -515 320 -360 c 0x44
EndSplineSet
Validated: 5
EndChar

StartChar: ordmasculine
Encoding: 186 186 324
Width: 1840
VWidth: 0
Flags: W
HStem: 834 320<731.855 1097.94> 2200 320<731.855 1097.94>
VStem: 80 560<1287.71 2066.29> 1200 560<1285.23 2068.77>
LayerCount: 2
Fore
SplineSet
920 2520 m 7
 1384 2520 1760 2186 1760 1677 c 7
 1760 1168 1384 834 920 834 c 7
 456 834 80 1168 80 1677 c 7
 80 2186 456 2520 920 2520 c 7
920 2200 m 7
 745 2200 640 2073 640 1677 c 7
 640 1281 745 1154 920 1154 c 7
 1095 1154 1200 1289 1200 1677 c 7
 1200 2065 1095 2200 920 2200 c 7
EndSplineSet
Validated: 1
EndChar

StartChar: ordfeminine
Encoding: 170 170 325
Width: 1840
VWidth: 0
UnlinkRmOvrlpSave: 1
Flags: W
HStem: 840 282<480 1047.56> 1516 245<480 1064.17> 2200 320<709.156 1116.33>
VStem: 80 560<1153.05 1483.11> 194 566<1915.25 2320> 1160 520<1218 2152.12>
LayerCount: 2
Fore
SplineSet
194 2120 m 4xec
 194 2276 321 2403 477 2403 c 4
 633 2403 760 2276 760 2120 c 4
 760 1964 633 1837 477 1837 c 4
 321 1837 194 1964 194 2120 c 4xec
640 1761 m 4xf4
 985 1761 1138 1670 1271 1459 c 5
 1194 1339 l 5
 1271 1218 l 5
 1122 916 985 840 640 840 c 4
 320 840 80 1000 80 1339 c 4
 80 1640 320 1761 640 1761 c 4xf4
892 1516 m 4
 722 1516 640 1460 640 1339 c 4
 640 1201 703 1122 872 1122 c 4
 998 1122 1140 1246 1188 1338 c 5
 1128 1423 996 1516 892 1516 c 4
1680 1845 m 6
 1680 1200 l 5
 1760 1200 l 5
 1760 880 l 5
 1297 880 l 5
 1160 1200 l 5
 1160 1904 l 6
 1160 2149 1093 2200 880 2200 c 4
 789 2200 730 2177 720 2160 c 6
 477 2040 l 5
 277 2320 l 5
 402 2445 579 2520 968 2520 c 4
 1415 2520 1680 2251 1680 1845 c 6
EndSplineSet
Validated: 5
EndChar

StartChar: bar
Encoding: 124 124 326
Width: 600
VWidth: 0
Flags: W
VStem: 140 320<-800 2640>
LayerCount: 2
Fore
SplineSet
460 -800 m 1
 140 -800 l 1
 140 2640 l 5
 460 2640 l 5
 460 -800 l 1
EndSplineSet
Validated: 1
EndChar

StartChar: asciitilde
Encoding: 126 126 328
Width: 1736
VWidth: 0
Flags: W
HStem: 632 640<192.746 560.322 1183.36 1549.74>
VStem: 80 560<709.549 936.952> 1096 560<959.048 1186.45>
LayerCount: 2
Fore
SplineSet
480 1272 m 4
 660 1272 782 1167 897 1070 c 4
 954 1022 1005 981 1040 966 c 4
 1057 958 1069 957 1076 959 c 4
 1082 960 1088 963 1096 973 c 4
 1096 977 1096 980 1096 984 c 4
 1096 1138 1222 1264 1376 1264 c 4
 1530 1264 1656 1138 1656 984 c 4
 1656 876 1622 784 1553 720 c 4
 1484 656 1383 624 1256 624 c 4
 1076 624 954 729 839 826 c 4
 782 874 731 915 696 930 c 4
 679 938 667 939 660 937 c 4
 654 936 648 933 640 923 c 4
 640 919 640 916 640 912 c 4
 640 758 514 632 360 632 c 4
 206 632 80 758 80 912 c 4
 80 1020 114 1112 183 1176 c 4
 252 1240 353 1272 480 1272 c 4
EndSplineSet
Validated: 1
EndChar

StartChar: brokenbar
Encoding: 166 166 331
Width: 600
VWidth: 0
Flags: W
VStem: 140 320<-800 720 1120 2640>
LayerCount: 2
Fore
SplineSet
460 -800 m 1
 140 -800 l 1
 140 720 l 1
 460 720 l 1
 460 -800 l 1
460 1120 m 1
 140 1120 l 1
 140 2640 l 1
 460 2640 l 1
 460 1120 l 1
EndSplineSet
Validated: 1
EndChar

StartChar: uniFB00
Encoding: 64256 64256 332
Width: 2960
VWidth: 0
UnlinkRmOvrlpSave: 1
Flags: W
HStem: 0 320<160 360 920 1280 1520 1720 2280 2720> 1520 320<80 2880> 1840 21G<360 920 1720 2280> 2320 320<965.984 1260 2353.36 2700>
VStem: 360 560<320 2292.95> 1040 640<2059.12 2457> 1440 80<1520 1840> 1720 560<320 2243.12> 2480 640<2059.12 2457>
LayerCount: 2
Fore
SplineSet
160 0 m 1x9980
 160 320 l 1
 1280 320 l 1
 1280 0 l 1
 160 0 l 1x9980
360 320 m 1
 360 1840 l 1
 920 1840 l 1xd980
 920 320 l 1
 360 320 l 1
80 1520 m 1
 80 1840 l 1
 1520 1840 l 1
 1520 1520 l 1xdb80
 80 1520 l 1
1040 2280 m 0x9d80
 1040 2457 1183 2600 1360 2600 c 0
 1537 2600 1680 2457 1680 2280 c 0
 1680 2103 1537 1960 1360 1960 c 0
 1183 1960 1040 2103 1040 2280 c 0x9d80
1637 2440 m 0
 1143 2240 l 0
 1143 2280 1102 2320 1040 2320 c 0
 960 2320 920 2160 920 1840 c 1
 360 1840 l 1xdd80
 360 2331 560 2640 1120 2640 c 0
 1400 2640 1569 2558 1637 2440 c 0
1520 0 m 1x9b80
 1520 320 l 1
 2720 320 l 1
 2720 0 l 1
 1520 0 l 1x9b80
1720 320 m 1
 1720 1840 l 1
 2280 1840 l 1xd980
 2280 320 l 1
 1720 320 l 1
1440 1520 m 1xdb80
 1440 1840 l 1
 2880 1840 l 1
 2880 1520 l 1
 1440 1520 l 1xdb80
2480 2280 m 0
 2480 2457 2623 2600 2800 2600 c 0
 2977 2600 3120 2457 3120 2280 c 0
 3120 2103 2977 1960 2800 1960 c 0
 2623 1960 2480 2103 2480 2280 c 0
3077 2440 m 0
 2776 2197 l 0
 2662 2288 2578 2320 2480 2320 c 0
 2339 2320 2280 2160 2280 1840 c 1
 1720 1840 l 1
 1720 2331 2000 2640 2560 2640 c 0
 2840 2640 3009 2558 3077 2440 c 0
EndSplineSet
Validated: 5
EndChar

StartChar: uniFB01
Encoding: 64257 64257 333
Width: 2480
VWidth: 0
UnlinkRmOvrlpSave: 1
Flags: W
HStem: 0 320<160 360 920 1200 1440 1640 2200 2400> 1520 320<80 1640> 1840 760<1663 2017> 2320 320<1140.05 1546.16>
VStem: 360 560<320 2113.28> 1440 80<1520 1840> 1520 640<2059.12 2457> 1640 560<320 1520>
LayerCount: 2
Fore
SplineSet
1440 1840 m 1xcd
 2200 1840 l 1xad
 2200 320 l 1
 2400 320 l 1
 2400 0 l 1
 1440 0 l 1
 1440 320 l 1
 1640 320 l 1
 1640 1520 l 1
 1440 1520 l 1
 1440 1840 l 1xcd
160 0 m 1
 160 320 l 1
 1200 320 l 1
 1200 0 l 1
 160 0 l 1
360 320 m 1
 360 1840 l 1
 920 1840 l 1xc8
 920 320 l 1
 360 320 l 1
80 1520 m 1
 80 1840 l 1
 1520 1840 l 1
 1520 1520 l 1xcc
 80 1520 l 1
1520 2280 m 0xaa
 1520 2457 1663 2600 1840 2600 c 0
 2017 2600 2160 2457 2160 2280 c 0
 2160 2103 2017 1960 1840 1960 c 0
 1663 1960 1520 2103 1520 2280 c 0xaa
2117 2440 m 0
 1560 2240 l 0
 1560 2280 1458 2320 1360 2320 c 0
 1219 2320 920 2160 920 1840 c 1
 360 1840 l 1
 360 2331 680 2640 1400 2640 c 0xd8
 1880 2640 2025 2600 2117 2440 c 0
EndSplineSet
Validated: 5
Ligature2: "'liga' +ahluljBuVAhbVwAA in +MOkwxjDzZYdbVwAA lookup 0-1" f i
EndChar

StartChar: uniE100
Encoding: 57600 57600 334
Width: 2560
VWidth: 0
UnlinkRmOvrlpSave: 1
Flags: W
HStem: 0 320<160 360 920 1280 1520 1720 2280 2480> 1520 320<80 1720> 1840 21G<360 920> 2351 289<748.531 1100>
VStem: 360 560<320 1993.47> 360 373<2003.29 2339.78> 840 640<2059.12 2457> 1720 560<320 1520>
AnchorPoint: "top" 2000 1920 basechar 0
LayerCount: 2
Fore
SplineSet
1520 1840 m 1xd1
 2280 1840 l 1xb1
 2280 320 l 1
 2480 320 l 1
 2480 0 l 1
 1520 0 l 1
 1520 320 l 1
 1720 320 l 1
 1720 1520 l 1
 1520 1520 l 1
 1520 1840 l 1xd1
160 0 m 1
 160 320 l 1
 1280 320 l 1
 1280 0 l 1
 160 0 l 1
360 320 m 1xd9
 360 1840 l 1
 920 1840 l 1
 920 320 l 1
 360 320 l 1xd9
80 1520 m 1
 80 1840 l 1
 1520 1840 l 1
 1520 1520 l 1
 80 1520 l 1
840 2280 m 0x93
 840 2457 983 2600 1160 2600 c 0
 1337 2600 1480 2457 1480 2280 c 0
 1480 2103 1337 1960 1160 1960 c 0
 983 1960 840 2103 840 2280 c 0x93
1437 2440 m 0
 960 2240 l 0
 960 2280 897 2351 835 2351 c 0
 783 2351 733 2301 733 2174 c 3xd5
 733 2038 920 1953 920 1840 c 1
 360 1840 l 1xd9
 360 2331 400 2640 960 2640 c 0
 1240 2640 1369 2558 1437 2440 c 0
EndSplineSet
Validated: 5
Ligature2: "'liga' +ahluljBuVAhbVwAA in +MOkwxjDzZYdbVwAA lookup 0-1" f dotlessi
EndChar

StartChar: uniE101
Encoding: 57601 57601 335
Width: 2280
VWidth: 0
UnlinkRmOvrlpSave: 1
Flags: W
HStem: -800 680<1120 1385> 0 320<160 360 920 1280> 1520 320<80 1640> 1840 760<1663 2017> 2320 320<1140.05 1546.16>
VStem: 360 560<320 2113.28> 888 640<-496.715 -219.115> 1440 80<1520 1840> 1520 640<2059.12 2457> 1640 560<-452.949 1520>
LayerCount: 2
Fore
SplineSet
1520 -480 m 0xd080
 1601 -480 1640 -440 1640 0 c 2
 1640 1028 l 0
 1640 1520 l 1
 1440 1520 l 1
 1440 1840 l 1xe140
 2200 1840 l 1
 2200 0 l 2
 2200 -491 2000 -800 1440 -800 c 0xd140
 1120 -800 1006 -730 931 -600 c 1
 1520 -480 l 0xd080
1528 -440 m 0xc2
 1528 -617 1385 -760 1208 -760 c 0
 1031 -760 888 -617 888 -440 c 0
 888 -263 1031 -120 1208 -120 c 0
 1385 -120 1528 -263 1528 -440 c 0xc2
160 0 m 1
 160 320 l 1
 1280 320 l 1
 1280 0 l 1
 160 0 l 1
360 320 m 1xe4
 360 1840 l 1
 920 1840 l 1
 920 320 l 1
 360 320 l 1xe4
80 1520 m 1
 80 1840 l 1
 1520 1840 l 1
 1520 1520 l 1xe1
 80 1520 l 1
1520 2280 m 0xd080
 1520 2457 1663 2600 1840 2600 c 0
 2017 2600 2160 2457 2160 2280 c 0
 2160 2103 2017 1960 1840 1960 c 0
 1663 1960 1520 2103 1520 2280 c 0xd080
2117 2440 m 0
 1560 2240 l 0
 1560 2280 1458 2320 1360 2320 c 0
 1219 2320 920 2160 920 1840 c 1
 360 1840 l 1
 360 2331 680 2640 1400 2640 c 0xec
 1880 2640 2025 2600 2117 2440 c 0
EndSplineSet
Validated: 5
LCarets2: 1 0
Ligature2: "'liga' +ahluljBuVAhbVwAA in +MOkwxjDzZYdbVwAA lookup 0-1" f j
EndChar

StartChar: uniE102
Encoding: 57602 57602 336
Width: 3680
VWidth: 0
UnlinkRmOvrlpSave: 1
Flags: W
HStem: 0 320<160 360 920 1200 1440 1640 2200 2400 2640 2840 3400 3600> 160 160<360 920> 1520 320<80 1360> 1520 360<2455.46 3038> 2320 320<1065.56 1629.28>
VStem: 360 560<160 2172.14> 1640 560<320 2273.59> 2840 560<320 1461.01>
LayerCount: 2
Fore
SplineSet
2800 1880 m 0x9f
 3276 1880 3400 1560 3400 1080 c 2
 3400 320 l 1
 3600 320 l 1
 3600 0 l 1
 2640 0 l 1
 2640 320 l 1
 2840 320 l 1
 2840 1120 l 2
 2840 1440 2760 1520 2584 1520 c 0
 2440 1520 2280 1355 2162 1095 c 1
 2147 1261 l 1
 2179 1520 2324 1880 2800 1880 c 0x9f
EndSplineSet
Refer: 339 64258 S 1 0 0 1 0 0 2
Validated: 5
Ligature2: "'liga' +ahluljBuVAhbVwAA in +MOkwxjDzZYdbVwAA lookup 0-1" f h
EndChar

StartChar: uniE103
Encoding: 57603 57603 337
Width: 3450
VWidth: 0
UnlinkRmOvrlpSave: 1
Flags: W
HStem: 0 320<160 360 920 1200> 160 160<360 920> 1520 360<2294.06 2859.12> 1520 320<80 1280> 2320 320<1065.56 1476.98>
VStem: 360 560<160 2172.14> 1480 440<203.844 858.147> 1920 44<648 858.147> 1937 103<320 811.647 1261 1290.35> 2769 602<499.568 1319.03>
LayerCount: 2
Fore
SplineSet
160 0 m 5x8c40
 160 320 l 5
 1200 320 l 5
 1200 0 l 5
 160 0 l 5x8c40
80 1520 m 5x1c40
 80 1840 l 5
 1280 1840 l 5
 1280 1520 l 5
 80 1520 l 5x1c40
1200 2640 m 4
 1760 2640 1760 2480 2040 2480 c 5
 2040 320 l 5
 1960 320 l 5x5ec0
 1745 0 l 5
 1480 0 l 5x8ec0
 1480 2240 l 5
 1371 2290 1400 2320 1280 2320 c 4
 1080 2320 920 2160 920 1840 c 6
 920 160 l 5
 360 160 l 5x5ec0
 360 1840 l 6
 360 2331 640 2640 1200 2640 c 4
2652 1880 m 4x2cc0
 3128 1880 3371 1507 3371 919 c 4
 3371 331 3034 -40 2574 -40 c 4
 2180 -40 2003 203 1937 295 c 5
 1920 720 l 5x2ec0
 1964 932 l 5
 1984 648 2108 331 2379 331 c 4
 2650 331 2769 557 2769 926 c 4
 2769 1295 2589 1520 2392 1520 c 4x2d40
 2195 1520 2080 1355 1962 1095 c 5
 2040 1520 l 5x1cc0
 1947 1261 l 5
 1979 1520 2176 1880 2652 1880 c 4x2cc0
EndSplineSet
Validated: 5
Ligature2: "'liga' +ahluljBuVAhbVwAA in +MOkwxjDzZYdbVwAA lookup 0-1" f b
EndChar

StartChar: uniE104
Encoding: 57604 57604 338
Width: 3640
VWidth: 0
UnlinkRmOvrlpSave: 1
Flags: W
HStem: 0 320<160 360 920 1200 1440 1640 2200 2400 2600 2812 3480 3560> 160 160<360 920> 1520 320<80 1360 2560 3009 3394 3520> 2320 320<1065.56 1629.28>
VStem: 360 560<160 2172.14> 1640 560<320 2273.59>
LayerCount: 2
Fore
SplineSet
2600 320 m 1xbc
 3560 320 l 1
 3560 0 l 1
 2600 0 l 1
 2600 320 l 1xbc
2560 1520 m 1
 2560 1840 l 1
 3520 1840 l 1
 3520 1520 l 1
 2560 1520 l 1
3009 1760 m 1
 3394 1670 l 1
 2666 870 l 1
 2280 960 l 1
 3009 1760 l 1
2280 960 m 5
 2808 1160 l 5
 3480 200 l 5
 2812 200 l 5
 2280 960 l 5
160 0 m 1
 160 320 l 1
 1200 320 l 1
 1200 0 l 1
 160 0 l 1
80 1520 m 1
 80 1840 l 1
 1360 1840 l 1
 1360 1520 l 1
 80 1520 l 1
1200 2640 m 0
 1760 2640 1920 2480 2200 2480 c 1
 2200 320 l 1
 2400 320 l 1
 2400 0 l 1
 1440 0 l 1
 1440 320 l 1
 1640 320 l 1xbc
 1640 2240 l 1
 1531 2290 1400 2320 1280 2320 c 0
 1080 2320 920 2160 920 1840 c 2
 920 160 l 1
 360 160 l 1x7c
 360 1840 l 2
 360 2331 640 2640 1200 2640 c 0
EndSplineSet
Validated: 5
Ligature2: "'liga' +ahluljBuVAhbVwAA in +MOkwxjDzZYdbVwAA lookup 0-1" f k
EndChar

StartChar: uniFB02
Encoding: 64258 64258 339
Width: 2480
VWidth: 0
UnlinkRmOvrlpSave: 1
Flags: W
HStem: 0 320<160 360 920 1200 1440 1640 2200 2400> 160 160<360 920> 1520 320<80 1360> 2320 320<1065.56 1629.28>
VStem: 360 560<160 2172.14> 1640 560<320 2273.59>
LayerCount: 2
Fore
SplineSet
160 0 m 5xbc
 160 320 l 5
 1200 320 l 5
 1200 0 l 5
 160 0 l 5xbc
80 1520 m 5
 80 1840 l 5
 1360 1840 l 5
 1360 1520 l 5
 80 1520 l 5
1200 2640 m 4
 1760 2640 1920 2480 2200 2480 c 5
 2200 320 l 5
 2400 320 l 5
 2400 0 l 5
 1440 0 l 5
 1440 320 l 5
 1640 320 l 5xbc
 1640 2240 l 5
 1531 2290 1400 2320 1280 2320 c 4
 1080 2320 920 2160 920 1840 c 6
 920 160 l 5
 360 160 l 5x7c
 360 1840 l 6
 360 2331 640 2640 1200 2640 c 4
EndSplineSet
Validated: 5
Ligature2: "'liga' +ahluljBuVAhbVwAA in +MOkwxjDzZYdbVwAA lookup 0-1" f l
EndChar

StartChar: uniFB04
Encoding: 64260 64260 341
Width: 3840
VWidth: 0
UnlinkRmOvrlpSave: 1
Flags: W
HStem: 0 320<160 360 920 1280 1520 1720 2280 2560 2800 3000 3560 3760> 160 160<1720 2280> 1520 320<80 1520 1440 2720> 1840 21G<360 920> 2320 320<965.984 1260 2425.56 2989.28>
VStem: 360 560<320 2292.95> 1040 640<2059.12 2457> 1720 560<160 2172.14> 3000 560<320 2273.59>
LayerCount: 2
Fore
SplineSet
160 0 m 5x8f80
 160 320 l 5
 1280 320 l 5
 1280 0 l 5
 160 0 l 5x8f80
360 320 m 5
 360 1840 l 5
 920 1840 l 5xaf80
 920 320 l 5
 360 320 l 5
80 1520 m 5
 80 1840 l 5
 1520 1840 l 5
 1520 1520 l 5
 80 1520 l 5
1040 2280 m 4
 1040 2457 1183 2600 1360 2600 c 4
 1537 2600 1680 2457 1680 2280 c 4
 1680 2103 1537 1960 1360 1960 c 4
 1183 1960 1040 2103 1040 2280 c 4
1637 2440 m 4
 1143 2240 l 4
 1143 2280 1102 2320 1040 2320 c 4
 960 2320 920 2160 920 1840 c 5
 360 1840 l 5
 360 2331 560 2640 1120 2640 c 4
 1400 2640 1569 2558 1637 2440 c 4
EndSplineSet
Refer: 339 64258 N 1 0 0 1 1360 0 2
Validated: 5
EndChar

StartChar: logicalnot
Encoding: 172 172 343
Width: 1680
VWidth: 0
Flags: W
HStem: 1280 320<80 1280>
VStem: 1280 320<880 1280>
LayerCount: 2
Fore
SplineSet
80 1600 m 5
 1600 1600 l 5
 1600 880 l 5
 1280 880 l 5
 1280 1280 l 5
 80 1280 l 5
 80 1600 l 5
EndSplineSet
Validated: 1
EndChar

StartChar: mu
Encoding: 181 181 344
Width: 2280
VWidth: 0
UnlinkRmOvrlpSave: 1
Flags: W
HStem: -640 320<80 280 840 1040> -40 360<937.368 1305.44> 1520 320<80 280>
VStem: 280 560<-320 1520> 1436 564<449.834 1520>
LayerCount: 2
Fore
SplineSet
80 1840 m 1
 840 1840 l 1
 840 -320 l 1
 1040 -320 l 1
 1040 -640 l 1
 80 -640 l 1
 80 -320 l 1
 280 -320 l 1
 280 1520 l 1
 80 1520 l 1
 80 1840 l 1
800 40 m 0
 840 0 920 -40 1080 -40 c 0
 1320 -40 1400 40 1480 160 c 1
 1579 0 l 1
 2200 0 l 1
 2200 320 l 1
 2000 320 l 1
 2000 1840 l 1
 1240 1840 l 1
 1240 1520 l 1
 1440 1520 l 1
 1436 589 l 1
 1400 466 1233 320 1120 320 c 0
 944 320 840 480 840 800 c 0
 800 40 l 0
EndSplineSet
Validated: 5
EndChar

StartChar: divide
Encoding: 247 247 345
Width: 1680
VWidth: 0
Flags: W
HStem: 440 480<654.658 1025.34> 1080 320<80 1600> 1560 480<654.658 1025.34>
VStem: 600 480<494.658 865.342 1614.66 1985.34>
CounterMasks: 1 e0
LayerCount: 2
Fore
SplineSet
80 1400 m 5
 1600 1400 l 5
 1600 1080 l 5
 80 1080 l 5
 80 1400 l 5
600 1800 m 4
 600 1933 707 2040 840 2040 c 4
 973 2040 1080 1933 1080 1800 c 4
 1080 1667 973 1560 840 1560 c 4
 707 1560 600 1667 600 1800 c 4
600 680 m 4
 600 813 707 920 840 920 c 4
 973 920 1080 813 1080 680 c 4
 1080 547 973 440 840 440 c 4
 707 440 600 547 600 680 c 4
EndSplineSet
Validated: 1
EndChar

StartChar: arrowup
Encoding: 8593 8593 346
Width: 2400
VWidth: 0
Flags: W
HStem: -640 21G<1024 1376> 2460 20G<1120 1280>
VStem: 1024 352<-640 378.543> 1064 272<713.577 1640>
LayerCount: 2
Fore
SplineSet
1200 2480 m 1xd0
 1280 2467 l 1
 2280 1400 l 1
 2160 1240 l 1
 1336 1640 l 1xd0
 1360 1160 1376 502 1376 -640 c 1
 1024 -640 l 1xe0
 1024 502 1040 1160 1064 1640 c 1
 240 1240 l 1
 120 1400 l 1
 1120 2467 l 1
 1200 2480 l 1xd0
EndSplineSet
Validated: 1
EndChar

StartChar: uniFFFD
Encoding: 65533 65533 350
Width: 3280
VWidth: 0
Flags: W
HStem: -640 424<1023.5 2071> 2226 254<1390.47 2078.09>
VStem: 80 712<-7.5 1351> 1709 477<1497.66 1748.51> 2762 438<489 1431.03>
LayerCount: 2
Fore
SplineSet
1640 2480 m 0
 2502 2480 3200 1782 3200 920 c 0
 3200 58 2502 -640 1640 -640 c 0
 778 -640 80 58 80 920 c 0
 80 1782 778 2480 1640 2480 c 0
2242 2061 m 0
 2045 2175 1867 2226 1704 2226 c 0
 1472 2226 1294 2113 1161 1942 c 0
 1109 1876 1069 1802 1069 1718 c 0
 1069 1541 1212 1398 1389 1398 c 0
 1566 1398 1709 1541 1709 1718 c 0
 1709 1789 1685 1857 1642 1913 c 1
 1667 1919 1693 1921 1719 1921 c 0
 1804 1921 1893 1893 1978 1844 c 0
 2127 1758 2186 1637 2186 1516 c 0
 2186 1440 2163 1365 2124 1298 c 0
 1965 1023 1318 1165 1318 709 c 0
 1318 706 1318 704 1318 701 c 1
 1491 601 l 1
 1526 662 1613 674 1725 674 c 0
 1794 674 1874 669 1957 669 c 0
 2199 669 2476 707 2644 998 c 0
 2722 1134 2762 1261 2762 1383 c 0
 2762 1635 2592 1859 2242 2061 c 0
1112 424 m 0
 935 424 792 281 792 104 c 0
 792 -73 935 -216 1112 -216 c 0
 1289 -216 1432 -73 1432 104 c 0
 1432 281 1289 424 1112 424 c 0
EndSplineSet
Validated: 1
EndChar

StartChar: copyright
Encoding: 169 169 351
Width: 3280
VWidth: 0
UnlinkRmOvrlpSave: 1
Flags: W
HStem: -640 320<1179.81 2100.19> -40 332<1463.15 2034.37> 1560 320<1454.53 1990.01> 2160 320<1179.81 2100.19>
VStem: 80 320<459.815 1380.19> 760 480<529.155 1318.92> 2215 280<480.625 608.192> 2880 320<459.815 1380.19>
LayerCount: 2
Fore
SplineSet
1640 2480 m 4
 2504 2480 3200 1784 3200 920 c 4
 3200 56 2504 -640 1640 -640 c 4
 776 -640 80 56 80 920 c 4
 80 1784 776 2480 1640 2480 c 4
1640 2160 m 4
 953 2160 400 1607 400 920 c 4
 400 233 953 -320 1640 -320 c 4
 2327 -320 2880 233 2880 920 c 4
 2880 1607 2327 2160 1640 2160 c 4
1650 1880 m 4
 2085 1880 2423 1650 2521 1283 c 5
 2095 1240 l 5
 2015 1480 1981 1560 1720 1560 c 4
 1493 1560 1240 1405 1240 920 c 4
 1240 435 1511 292 1738 292 c 4
 2031 292 2175 480 2215 680 c 5
 2495 600 l 5
 2415 280 2111 -40 1656 -40 c 4
 1127 -40 760 340 760 920 c 4
 760 1500 1121 1880 1650 1880 c 4
1892 1200 m 4
 1892 1377 2035 1520 2212 1520 c 5
 2214 1283 l 5
 2521 1283 l 5
 2528 1256 2532 1228 2532 1200 c 4
 2532 1023 2389 880 2212 880 c 4
 2035 880 1892 1023 1892 1200 c 4
EndSplineSet
Validated: 5
EndChar

StartChar: registered
Encoding: 174 174 352
Width: 3280
VWidth: 0
UnlinkRmOvrlpSave: 1
Flags: W
HStem: -640 320<1179.81 2100.19> -40 320<1936 2236.21> 0 320<840 960 1440 1520> 720 320<1352 1552> 760 280<1280 1352 1520 1880> 760 160<1352 1912> 1520 320<840 960 1446 1867.34> 2160 320<1179.81 2100.19>
VStem: 80 320<459.815 1380.19> 960 480<320 720 1040 1520> 1280 166<920 1040> 1352 88<720 920> 1920 480<1070.25 1483.12> 2240 280<280.625 560> 2880 320<459.815 1380.19>
LayerCount: 2
Fore
SplineSet
1640 2480 m 4x8782
 2504 2480 3200 1784 3200 920 c 4
 3200 56 2504 -640 1640 -640 c 4
 776 -640 80 56 80 920 c 4
 80 1784 776 2480 1640 2480 c 4x8782
1640 2160 m 4
 953 2160 400 1607 400 920 c 4
 400 233 953 -320 1640 -320 c 4
 2327 -320 2880 233 2880 920 c 4
 2880 1607 2327 2160 1640 2160 c 4
840 1840 m 5
 1446 1520 l 5xa3a2
 1440 320 l 5
 1520 320 l 5
 1520 0 l 5
 840 0 l 5
 840 320 l 5
 960 320 l 5
 960 1520 l 5xa3c2
 840 1520 l 5
 840 1840 l 5
840 1840 m 5
 1600 1840 l 6
 2320 1840 2400 1560 2400 1240 c 4
 2400 880 2160 760 1520 760 c 6
 1280 760 l 5
 1280 1040 l 5x8baa
 1600 1040 l 6
 1880 1040 1920 1080 1920 1280 c 4
 1920 1480 1840 1520 1600 1520 c 6
 1440 1520 l 5x8bca
 840 1840 l 5
1472 720 m 6xd396
 1352 720 l 5xd396
 1352 920 l 5
 1632 920 l 6x8796
 1912 920 2085 800 2112 480 c 4
 2122 354 2160 280 2200 280 c 4
 2240 280 2240 360 2240 440 c 6
 2240 560 l 5
 2520 560 l 5
 2520 440 l 6
 2520 240 2432 -40 2112 -40 c 4
 1760 -40 1688 40 1640 440 c 4
 1612 678 1552 720 1472 720 c 6xd396
EndSplineSet
Validated: 5
EndChar

StartChar: trademark
Encoding: 8482 8482 353
Width: 4720
VWidth: 0
Flags: W
HStem: 640 320<400 720 1200 1520 2080 2320 2720 2960 3680 3920 4400 4640> 1680 800<80 400 1520 1840> 2160 320<400 720 1200 1520 2080 2320 4400 4640>
VStem: 80 320<1680 2160> 720 480<960 2160> 1520 320<1680 2160> 2320 400<960 1768> 3920 480<960 1763>
LayerCount: 2
Fore
SplineSet
2080 2480 m 5xbf
 2880 2480 l 5
 3440 1600 l 5
 3923 2480 l 5
 4640 2480 l 5
 4640 2160 l 5
 4400 2160 l 5
 4400 960 l 5
 4640 960 l 5
 4640 640 l 5
 3680 640 l 5
 3680 960 l 5
 3920 960 l 5
 3920 1763 l 5
 3400 960 l 5
 3200 960 l 5
 2720 1768 l 5
 2720 960 l 5
 2960 960 l 5
 2960 640 l 5
 2080 640 l 5
 2080 960 l 5
 2320 960 l 5
 2320 2160 l 5
 2080 2160 l 5
 2080 2480 l 5xbf
80 2480 m 5xdf
 1840 2480 l 5
 1840 1680 l 5
 1520 1680 l 5xdf
 1520 2160 l 5
 1200 2160 l 5
 1200 960 l 5
 1520 960 l 5
 1520 640 l 5
 400 640 l 5
 400 960 l 5
 720 960 l 5
 720 2160 l 5
 400 2160 l 5xbf
 400 1680 l 5
 80 1680 l 5
 80 2480 l 5xdf
EndSplineSet
Validated: 1
EndChar

StartChar: figuredash
Encoding: 8210 8210 356
Width: 2240
VWidth: 0
Flags: W
HStem: 1080 320<160 2080>
LayerCount: 2
Fore
SplineSet
160 1080 m 5
 160 1400 l 5
 2080 1400 l 5
 2080 1080 l 5
 160 1080 l 5
EndSplineSet
Validated: 1
EndChar

StartChar: endash
Encoding: 8211 8211 357
Width: 2000
VWidth: 0
Flags: W
HStem: 800 320<40 1960>
LayerCount: 2
Fore
SplineSet
40 800 m 5
 40 1120 l 5
 1960 1120 l 5
 1960 800 l 5
 40 800 l 5
EndSplineSet
Validated: 1
EndChar

StartChar: emdash
Encoding: 8212 8212 358
Width: 3200
VWidth: 0
Flags: W
HStem: 800 320<40 3160>
LayerCount: 2
Fore
SplineSet
40 800 m 1
 40 1120 l 1
 3160 1120 l 1
 3160 800 l 1
 40 800 l 1
EndSplineSet
Validated: 1
EndChar

StartChar: guilsinglleft
Encoding: 8249 8249 366
Width: 1040
VWidth: 0
Flags: W
HStem: 240 1360
VStem: 80 880<680 800 1040 1160>
LayerCount: 2
Fore
SplineSet
80 1160 m 5
 960 1600 l 1
 960 1040 l 1
 400 920 l 1
 960 800 l 1
 960 240 l 1
 80 680 l 5
 80 1160 l 5
EndSplineSet
Validated: 1
EndChar

StartChar: degree
Encoding: 176 176 369
Width: 1520
VWidth: 0
Flags: W
HStem: 1160 320<606.932 913.068> 2200 320<606.932 913.068>
VStem: 80 480<1515.1 2164.9> 960 480<1515.1 2164.9>
LayerCount: 2
Fore
SplineSet
760 2520 m 4
 1120 2520 1440 2350 1440 1840 c 4
 1440 1330 1120 1160 760 1160 c 4
 400 1160 80 1330 80 1840 c 4
 80 2350 400 2520 760 2520 c 4
760 2200 m 4
 640 2200 560 2140 560 1840 c 4
 560 1540 640 1480 760 1480 c 4
 880 1480 960 1540 960 1840 c 4
 960 2140 880 2200 760 2200 c 4
EndSplineSet
Validated: 1
EndChar

StartChar: minus
Encoding: 8722 8722 371
Width: 1680
VWidth: 0
Flags: W
HStem: 1080 320<80 1600>
LayerCount: 2
Fore
SplineSet
1600 1080 m 1
 80 1080 l 1
 80 1400 l 1
 1600 1400 l 1
 1600 1080 l 1
EndSplineSet
Validated: 1
EndChar

StartChar: multiply
Encoding: 215 215 374
Width: 1680
VWidth: 0
Flags: W
LayerCount: 2
Fore
SplineSet
1357 1984 m 1
 1584 1757 l 1
 1066 1240 l 1
 1584 723 l 1
 1357 496 l 1
 840 1014 l 1
 323 496 l 1
 96 723 l 1
 614 1240 l 1
 96 1757 l 1
 323 1984 l 1
 840 1466 l 1
 1357 1984 l 1
EndSplineSet
Validated: 1
EndChar

StartChar: dcroat
Encoding: 273 273 376
Width: 2222
VWidth: 0
UnlinkRmOvrlpSave: 1
Flags: W
HStem: -46 366<591.733 1207.2> 0 320<1942 2142> 1449 371<812.855 1186.92> 1760 320<1220 2140> 2160 320<1182 1382>
VStem: 80 601<525.898 1310.53> 1382 560<579 2160>
AnchorPoint: "cedilla" 1124 80 basechar 0
AnchorPoint: "top" 1000 2560 basechar 0
LayerCount: 2
Fore
SplineSet
1220 1760 m 1x1e
 1220 2080 l 1
 2140 2080 l 1
 2140 1760 l 1
 1220 1760 l 1x1e
1182 2480 m 1
 1942 2480 l 1
 1942 320 l 1
 2142 320 l 1
 2142 0 l 1
 1548 0 l 1
 1382 320 l 1x4e
 1382 2160 l 1
 1182 2160 l 1
 1182 2480 l 1
799 -46 m 0x8e
 323 -46 80 333 80 921 c 0
 80 1509 394 1820 854 1820 c 0
 1248 1820 1377 1545 1443 1453 c 1
 1694 1829 l 1
 1486 908 l 1
 1466 1112 1343 1449 1072 1449 c 4
 801 1449 681 1283 681 914 c 0
 681 545 862 320 1059 320 c 0xae
 1256 320 1371 485 1489 745 c 1
 1942 320 l 1x4e
 1555 579 l 1
 1533 401 1463 245 1339 133 c 0
 1215 21 1037 -46 799 -46 c 0x8e
EndSplineSet
Validated: 5
EndChar

StartChar: Hbar
Encoding: 294 294 377
Width: 3040
VWidth: 0
UnlinkRmOvrlpSave: 1
Flags: HW
HStem: 0 320<120 440 1080 1400 1640 1960 2600 2920> 960 320<1000 2040> 1600 320<120 2920> 2160 320<120 440 1080 1400 1640 1960 2600 2920>
VStem: 1000 80<960 1280> 1960 80<960 1280>
LayerCount: 2
Fore
SplineSet
120 1600 m 1
 120 1920 l 1
 2920 1920 l 5
 2920 1600 l 5
 120 1600 l 1
EndSplineSet
Refer: 40 72 N 1 0 0 1 0 0 2
EndChar

StartChar: hbar
Encoding: 295 295 378
Width: 2280
VWidth: 0
UnlinkRmOvrlpSave: 1
Flags: W
HStem: 0 320<80 280 840 1040 1240 1440 2000 2200> 1480 380<1069.51 1638> 1760 320<80 1000> 2160 320<80 280>
VStem: 280 560<320 2160> 1440 560<320 1438.09>
LayerCount: 2
Fore
SplineSet
80 2480 m 1x9c
 840 2480 l 1
 840 320 l 1
 1040 320 l 1
 1040 0 l 1
 80 0 l 1
 80 320 l 1
 280 320 l 1
 280 2160 l 1
 80 2160 l 1
 80 2480 l 1x9c
1400 1860 m 4xdc
 1876 1860 2000 1640 2000 1160 c 2
 2000 320 l 1
 2200 320 l 1
 2200 0 l 1
 1240 0 l 1
 1240 320 l 1
 1440 320 l 1
 1440 1120 l 2
 1440 1440 1360 1480 1184 1480 c 0
 1040 1480 880 1275 762 1015 c 1
 747 1181 l 1
 779 1440 924 1860 1400 1860 c 4xdc
80 1760 m 1xbc
 80 2080 l 1
 1000 2080 l 1
 1000 1760 l 1
 80 1760 l 1xbc
EndSplineSet
Validated: 5
EndChar

StartChar: ij
Encoding: 307 307 380
Width: 2120
VWidth: 0
UnlinkRmOvrlpSave: 1
Flags: W
HStem: -800 320<948.223 1265.49> 0 320<80 280 840 1040> 1520 320<80 280 1200 1400> 1960 640<339.115 780.885 1459.12 1900.88>
VStem: 240 640<2059.12 2500.88> 280 560<320 1520> 328 640<-617 -219.115> 1360 640<2059.12 2500.88> 1400 560<-332.141 1520>
LayerCount: 2
Fore
SplineSet
1360 2280 m 0xf1
 1360 2457 1503 2600 1680 2600 c 0
 1857 2600 2000 2457 2000 2280 c 0
 2000 2103 1857 1960 1680 1960 c 0
 1503 1960 1360 2103 1360 2280 c 0xf1
1200 1840 m 1
 1960 1840 l 1
 1960 0 l 2
 1960 -491 1600 -800 1040 -800 c 0
 560 -800 446 -730 371 -600 c 1
 780 -380 l 1
 894 -471 962 -480 1060 -480 c 0
 1241 -480 1400 -320 1400 0 c 2
 1400 1520 l 1xf080
 1200 1520 l 1
 1200 1840 l 1
968 -440 m 0xf2
 968 -617 825 -760 648 -760 c 0
 471 -760 328 -617 328 -440 c 0
 328 -263 471 -120 648 -120 c 0
 825 -120 968 -263 968 -440 c 0xf2
EndSplineSet
Refer: 75 105 N 1 0 0 1 0 0 2
Validated: 5
Ligature2: "Dutch IJ/ij ligatures-1" i j
EndChar

StartChar: uniE105
Encoding: 57605 57605 381
Width: 2160
VWidth: 0
UnlinkRmOvrlpSave: 1
Flags: W
HStem: -800 320<948.223 1265.49> 0 320<80 280 840 1040> 1520 320<80 280 1200 1400> 2000 640
VStem: 183 897 280 560<320 1520> 328 640<-617 -219.115> 1143 897 1400 560<-332.141 1520>
LayerCount: 2
Fore
SplineSet
1200 1840 m 1xf080
 1960 1840 l 1
 1960 0 l 2
 1960 -491 1600 -800 1040 -800 c 0
 560 -800 446 -730 371 -600 c 1
 780 -380 l 1
 894 -471 962 -480 1060 -480 c 0
 1241 -480 1400 -320 1400 0 c 2
 1400 1520 l 1
 1200 1520 l 1
 1200 1840 l 1xf080
968 -440 m 0xf2
 968 -617 825 -760 648 -760 c 0
 471 -760 328 -617 328 -440 c 0
 328 -263 471 -120 648 -120 c 0
 825 -120 968 -263 968 -440 c 0xf2
EndSplineSet
Refer: 83 180 N 1 0 0 1 1060 0 2
Refer: 136 237 N 1 0 0 1 0 0 2
Validated: 5
Ligature2: "Dutch IJ/ij ligatures-1" iacute j
Ligature2: "'liga' +ahluljBuVAhbVwAA in +MOkwxjDzZYdbVwAA lookup 0-1" ij acutecomb
Ligature2: "'liga' +ahluljBuVAhbVwAA in +MOkwxjDzZYdbVwAA lookup 0-1" ij acute
EndChar

StartChar: uniE109
Encoding: 57609 57609 385
Width: 2560
VWidth: 0
UnlinkRmOvrlpSave: 1
Flags: W
HStem: 0 320<160 360 920 1280 1520 1720 2280 2480> 1520 320<80 1720> 1840 21G<360 920> 2060 480<1634.98 2005.02 2194.98 2565.02> 2351 289<748.531 1100>
VStem: 360 373<2003.29 2339.78> 360 560<320 1993.47> 840 640<2059.12 2457> 1580 480<2114.98 2485.02> 1720 560<320 1520> 2140 480<2114.98 2485.02>
LayerCount: 2
Fore
SplineSet
1820 2540 m 0x9080
 1952 2540 2060 2432 2060 2300 c 0
 2060 2168 1952 2060 1820 2060 c 0
 1688 2060 1580 2168 1580 2300 c 0
 1580 2432 1688 2540 1820 2540 c 0x9080
2380 2540 m 0
 2512 2540 2620 2432 2620 2300 c 0
 2620 2168 2512 2060 2380 2060 c 0
 2248 2060 2140 2168 2140 2300 c 0x9020
 2140 2432 2248 2540 2380 2540 c 0
EndSplineSet
Refer: 334 57600 N 1 0 0 1 0 0 2
Validated: 5
Ligature2: "'liga' +ahluljBuVAhbVwAA in +MOkwxjDzZYdbVwAA lookup 0-1" f idieresis
EndChar

StartChar: uniE10E
Encoding: 57614 57614 390
Width: 1360
VWidth: 0
UnlinkRmOvrlpSave: 1
Flags: W
HStem: 0 320<160 360 920 1280> 1520 320<80 1440> 1840 21G<360 920> 2320 320<965.984 1260>
VStem: 360 560<320 2292.95> 1040 640<2059.12 2403>
LayerCount: 2
Fore
SplineSet
160 0 m 1x9c
 160 320 l 1
 1280 320 l 1
 1280 0 l 1
 160 0 l 1x9c
360 320 m 1
 360 1840 l 1
 920 1840 l 1xdc
 920 320 l 1
 360 320 l 1
80 1520 m 1
 80 1840 l 1
 1440 1840 l 1
 1440 1520 l 1
 80 1520 l 1
1040 2280 m 0
 1040 2457 1183 2600 1360 2600 c 0
 1413 2600 1464 2587 1508 2564 c 0
 1610 2511 1680 2403 1680 2280 c 0
 1680 2103 1537 1960 1360 1960 c 0
 1183 1960 1040 2103 1040 2280 c 0
1637 2440 m 0
 1143 2240 l 0
 1143 2280 1102 2320 1040 2320 c 0
 960 2320 920 2160 920 1840 c 1
 360 1840 l 1
 360 2331 560 2640 1120 2640 c 0
 1400 2640 1569 2558 1637 2440 c 0
EndSplineSet
Validated: 5
EndChar

StartChar: cent
Encoding: 162 162 393
Width: 1994
VWidth: 0
Flags: HW
LayerCount: 2
Fore
SplineSet
880 -400 m 1
 880 2240 l 1
 1200 2240 l 1
 1200 -400 l 1
 880 -400 l 1
EndSplineSet
Refer: 66 99 S 1 0 0 1 0 0 2
EndChar

StartChar: Oslash
Encoding: 216 216 394
Width: 2720
VWidth: 0
Flags: HW
LayerCount: 2
Fore
SplineSet
1891.1640625 2480 m 1
 2260.6640625 2480 l 1
 828.8359375 0 l 1
 459.3359375 0 l 1
 1891.1640625 2480 l 1
EndSplineSet
Refer: 47 79 S 1 0 0 1 0 0 2
EndChar

StartChar: oslash
Encoding: 248 248 395
Width: 2076
VWidth: 0
Flags: HW
LayerCount: 2
Fore
SplineSet
1477.12402344 2000 m 1
 1846.62402344 2000 l 1
 599.544921875 -160 l 1
 230.044921875 -160 l 1
 1477.12402344 2000 l 1
EndSplineSet
Refer: 82 111 S 1 0 0 1 0 0 2
EndChar

StartChar: eng
Encoding: 331 331 396
Width: 2120
VWidth: 0
Flags: W
HStem: -800 320<988.223 1305.49> 0 320<80 280 840 1040> 1520 360<1055.46 1628.94> 1520 320<80 280>
VStem: 280 560<320 1261> 368 640<-617 -219.115> 1440 560<-332.141 1461.01>
AnchorPoint: "cedilla" 1124 80 basechar 0
AnchorPoint: "top" 1140 1920 basechar 0
LayerCount: 2
Fore
SplineSet
80 1840 m 1xda
 701 1840 l 1
 846 1560 l 1
 840 320 l 1
 1040 320 l 1
 1040 0 l 1
 80 0 l 1
 80 320 l 1
 280 320 l 1
 280 1520 l 1
 80 1520 l 1
 80 1840 l 1xda
2000 0 m 6
 2000 -491 1640 -800 1080 -800 c 4
 600 -800 486 -730 411 -600 c 5
 820 -380 l 5
 934 -471 1002 -480 1100 -480 c 4
 1281 -480 1440 -320 1440 0 c 6
 1440 1120 l 1
 1440 1440 1360 1520 1184 1520 c 0
 1040 1520 880 1355 762 1095 c 1
 747 1261 l 1
 779 1520 924 1880 1400 1880 c 0xe2
 1876 1880 2000 1560 2000 1080 c 2
 2000 0 l 6
1008 -440 m 4xc6
 1008 -617 865 -760 688 -760 c 4
 511 -760 368 -617 368 -440 c 4
 368 -263 511 -120 688 -120 c 4
 865 -120 1008 -263 1008 -440 c 4xc6
EndSplineSet
EndChar

StartChar: Eng
Encoding: 330 330 397
Width: 2860
VWidth: 0
UnlinkRmOvrlpSave: 1
Flags: HW
HStem: -800 320<1667.59 1953.98> 0 320<120 440 840 1160> 2160 320<120 440 1720 2040 2440 2760>
VStem: 440 400<320 1600> 1048 640<-617 -219.115> 2040 400<-385.852 0 1268 2160>
LayerCount: 2
Fore
SplineSet
2440 0 m 1
 2440 -491 2260 -800 1760 -800 c 0
 1280 -800 1166 -730 1091 -600 c 1
 1500 -380 l 1
 1614 -471 1722 -480 1820 -480 c 0
 1941 -480 2040 -320 2040 0 c 1
 2040 640 l 1
 2440 0 l 1
1688 -440 m 0
 1688 -617 1545 -760 1368 -760 c 0
 1191 -760 1048 -617 1048 -440 c 0
 1048 -263 1191 -120 1368 -120 c 0
 1545 -120 1688 -263 1688 -440 c 0
EndSplineSet
Refer: 46 78 N 1 0 0 1 0 0 2
EndChar

StartChar: kgreenlandic
Encoding: 312 312 398
Width: 2280
VWidth: 0
Flags: W
HStem: 0 320<80 280 840 1040 1240 1452 2120 2200> 1520 320<80 280 1200 1649 2034 2160>
VStem: 280 560<320 1520>
AnchorPoint: "cedilla" 1124 80 basechar 0
AnchorPoint: "top" 1000 1920 basechar 0
LayerCount: 2
Fore
SplineSet
80 1840 m 5
 840 1840 l 5
 840 320 l 1
 1040 320 l 1
 1040 0 l 1
 80 0 l 1
 80 320 l 1
 280 320 l 1
 280 1520 l 5
 80 1520 l 5
 80 1840 l 5
1240 320 m 1
 2200 320 l 1
 2200 0 l 1
 1240 0 l 1
 1240 320 l 1
1200 1520 m 1
 1200 1840 l 1
 2160 1840 l 1
 2160 1520 l 1
 1200 1520 l 1
1649 1760 m 1
 2034 1670 l 1
 1306 870 l 1
 920 960 l 1
 1649 1760 l 1
920 960 m 1
 1448 1160 l 1
 2120 200 l 1
 1452 200 l 1
 920 960 l 1
EndSplineSet
EndChar
